<svg width="264" height="248" viewBox="0 0 264 248" fill="none" xmlns="http://www.w3.org/2000/svg">
<g clip-path="url(#clip0_208_3048)">
<path fill-rule="evenodd" clip-rule="evenodd" d="M116.98 248L13.2959 226.418V99.5176L116.98 121.099V248Z" fill="#BCBEC0"/>
<path fill-rule="evenodd" clip-rule="evenodd" d="M116.98 248L13.2959 226.418V99.5176L116.98 121.099V248Z" fill="#BCBEC0"/>
<path fill-rule="evenodd" clip-rule="evenodd" d="M116.98 248L13.2959 226.418V99.5176L116.98 121.099V248Z" fill="#BCBEC0"/>
<path fill-rule="evenodd" clip-rule="evenodd" d="M116.98 248L13.2959 226.418V99.5176L116.98 121.099V248Z" fill="#E4394B" fill-opacity="0.53"/>
<path fill-rule="evenodd" clip-rule="evenodd" d="M71.969 238.631L58.3066 235.787V108.887L71.969 111.73V238.631Z" fill="#B2151B"/>
<path fill-rule="evenodd" clip-rule="evenodd" d="M260.908 233.934L116.979 248V121.099L260.908 107.033V233.934Z" fill="#E6E7E8"/>
<path fill-rule="evenodd" clip-rule="evenodd" d="M260.908 233.934L116.979 248V121.099L260.908 107.033V233.934Z" fill="#E33749" fill-opacity="0.41"/>
<path fill-rule="evenodd" clip-rule="evenodd" d="M195.775 240.299L182.113 241.635V114.734L195.775 113.399V240.299Z" fill="#ED1C24"/>
<path fill-rule="evenodd" clip-rule="evenodd" d="M116.477 113.399L10.2041 59.2884L157.727 44.8711L264 66.9919L116.477 113.399Z" fill="#F1F2F2"/>
<path fill-rule="evenodd" clip-rule="evenodd" d="M116.477 113.399L10.2041 59.2884L157.727 44.8711L264 66.9919L116.477 113.399Z" fill="#FE6171" fill-opacity="0.44"/>
<g style="mix-blend-mode:multiply">
<path fill-rule="evenodd" clip-rule="evenodd" d="M116.98 143.681L13.2959 122.099V92.9331L116.98 114.515V143.681Z" fill="#BCBEC0"/>
</g>
<g style="mix-blend-mode:multiply">
<path fill-rule="evenodd" clip-rule="evenodd" d="M260.908 129.615L116.979 143.681V114.515L260.908 100.449V129.615Z" fill="#BCBEC0"/>
</g>
<path fill-rule="evenodd" clip-rule="evenodd" d="M116.477 135.384L10.2041 113.263V59.2886L116.477 81.4094V135.384Z" fill="#BCBEC0"/>
<path fill-rule="evenodd" clip-rule="evenodd" d="M116.477 135.384L10.2041 113.263V59.2886L116.477 81.4094V135.384Z" fill="#E03344" fill-opacity="0.69"/>
<path fill-rule="evenodd" clip-rule="evenodd" d="M70.3424 125.781L56.3389 122.866V68.8916L70.3424 71.8065V125.781Z" fill="#B2151B"/>
<path fill-rule="evenodd" clip-rule="evenodd" d="M264 120.966L116.477 135.384V81.409L264 66.9917V120.966Z" fill="#E6E7E8"/>
<path fill-rule="evenodd" clip-rule="evenodd" d="M264 120.966L116.477 135.384V81.409L264 66.9917V120.966Z" fill="#E33749" fill-opacity="0.63"/>
<path fill-rule="evenodd" clip-rule="evenodd" d="M197.24 127.491L183.237 128.859V74.8848L197.24 73.5161V127.491Z" fill="#ED1C24"/>
<path fill-rule="evenodd" clip-rule="evenodd" d="M70.3424 71.8065L56.3389 68.8916L203.862 54.4741L217.865 57.389L70.3424 71.8065Z" fill="#F14950"/>
<path fill-rule="evenodd" clip-rule="evenodd" d="M197.24 73.5163L183.237 74.885L76.9639 52.7642L90.9674 51.3955L197.24 73.5163Z" fill="#F14950"/>
<g style="mix-blend-mode:multiply">
<path d="M134.605 71.8062C169.198 71.8062 197.241 69.1134 197.241 65.7918C197.241 62.4701 169.198 59.7773 134.605 59.7773C100.012 59.7773 71.9692 62.4701 71.9692 65.7918C71.9692 69.1134 100.012 71.8062 134.605 71.8062Z" fill="#939598"/>
</g>
<g style="mix-blend-mode:multiply">
<path d="M100.312 65.8694C100.312 65.8694 40.4023 53.6308 38.351 92.3134C37.7528 103.594 46.5479 124.617 42.8671 133.393C39.1864 142.168 28.6567 151.59 28.6567 151.59L46.0692 146.446L42.8281 162.766C42.8281 162.766 61.7142 149.127 63.4998 138.448C66.866 118.315 54.2367 98.6881 56.7559 89.7657C62.1932 70.5084 92.2761 74.0129 100.312 65.8694Z" fill="#BCBEC0"/>
</g>
<g style="mix-blend-mode:multiply">
<path d="M156.771 64.7093C156.771 64.7093 212.832 55.1201 215.758 90.3331C216.611 100.602 208.876 119.485 212.566 127.556C216.255 135.627 226.406 144.461 226.406 144.461L209.888 139.339L213.358 154.256C213.358 154.256 195.235 141.375 193.28 131.622C189.595 113.236 200.974 95.7204 198.373 87.5458C192.761 69.9026 168.886 71.4131 156.771 64.7093Z" fill="#BCBEC0"/>
</g>
<path d="M99.6645 67.383C99.6645 67.383 55.3011 31.8672 35.6245 61.245C29.8861 69.8125 27.471 90.0688 20.321 95.3415C13.171 100.614 0 103.426 0 103.426L16.9342 106.941L6.64821 118.307C6.64821 118.307 28.7586 115.813 35.2093 108.23C47.3705 93.9355 45.9345 73.1109 52.1823 67.2207C65.6669 54.5077 85.8119 67.383 99.6645 67.383Z" fill="#ED1C24"/>
<g style="mix-blend-mode:multiply">
<path d="M99.6649 67.3828C99.6649 67.3828 78.7694 50.6581 59.2988 49.6597C59.4727 54.1837 61.2537 58.6626 64.8741 61.7093C76.5172 60.7401 89.7144 67.3828 99.6649 67.3828Z" fill="#BCBEC0"/>
</g>
<path opacity="0.3" d="M46.8078 80.9887C47.7561 77.084 48.6151 73.5972 49.7873 70.9383C45.6475 66.5782 43.3487 60.6167 41.9329 54.4893C39.6437 56.2039 37.5183 58.4184 35.6245 61.2451C34.0698 63.5665 32.7616 66.7575 31.5342 70.2648C34.5061 76.0639 40.3984 79.1341 46.8078 80.9887Z" fill="white"/>
<path d="M162.087 63.7005C162.087 63.7005 215.715 44.79 224.567 79.0022C227.149 88.9796 222.725 108.896 227.73 116.228C232.734 123.56 244.236 130.553 244.236 130.553L227.088 128.293L233.037 142.41C233.037 142.41 212.991 132.772 209.411 123.49C202.662 105.99 210.909 86.8065 206.96 79.1884C198.439 62.7463 175.163 68.2637 162.087 63.7005Z" fill="#ED1C24"/>
<g style="mix-blend-mode:multiply">
<path d="M162.087 63.7004C169.841 66.4061 181.175 65.5772 190.899 67.8738C192.903 65.5272 193.191 61.7609 193.229 58.5252C177.543 58.2794 162.087 63.7004 162.087 63.7004Z" fill="#BCBEC0"/>
</g>
<path opacity="0.3" d="M207.478 93.9545C207.875 89.9564 208.218 86.3822 207.991 83.4862C213.342 80.7343 217.484 75.8643 220.848 70.5469C222.442 72.9194 223.715 75.7099 224.567 79.002C225.267 81.7054 225.446 85.1483 225.444 88.8634C220.72 93.3583 214.142 94.3153 207.478 93.9545Z" fill="white"/>
<path d="M99.9853 9.72997C92.4429 1.8588 84.3975 -2.07175 76.2514 1.101C75.4996 1.39209 74.773 1.74437 74.0791 2.15426C56.5753 12.3323 67.9195 53.0853 81.2846 63.3071C95.1716 73.9399 129.492 62.0989 129.492 62.0989C121.815 42.9353 111.489 21.7445 99.9853 9.72997ZM93.9941 53.4223C86.9704 47.3029 79.8662 33.7922 83.2461 27.1445L83.2536 27.1469C83.8645 25.9205 84.8648 24.9302 86.0987 24.3302C87.0932 23.8202 88.3141 23.4802 89.7823 23.3499C93.8516 22.9759 97.8018 24.153 101.547 26.4755C111.022 32.3541 119.214 45.5564 124.783 59.5886C124.783 59.5886 103.216 61.4599 93.9941 53.4223Z" fill="#ED1C24"/>
<g style="mix-blend-mode:multiply">
<path d="M91.6806 64.916C75.4382 61.7881 77.5627 41.9146 79.538 35.6395C81.8567 28.3039 83.246 27.1445 83.246 27.1445C79.8662 33.7922 86.9703 47.3029 93.9941 53.4224C103.216 61.4599 124.783 59.5886 124.783 59.5886C127.614 63.5243 108.582 68.177 91.6806 64.916Z" fill="#939598"/>
</g>
<path opacity="0.3" d="M101.547 26.4755C97.8018 24.153 93.8516 22.9759 89.7823 23.3499C88.3142 23.4802 87.0933 23.8202 86.0987 24.3302C83.6134 15.6228 77.9735 7.23915 74.0791 2.15426C74.7731 1.74437 75.4996 1.39209 76.2514 1.101C84.3975 -2.07175 92.443 1.8588 99.9854 9.72997C101.446 16.0165 101.619 22.5151 101.547 26.4755Z" fill="white"/>
<path d="M136.176 62.0989C136.176 62.0989 170.496 73.9399 184.383 63.3071C197.748 53.0853 209.092 12.3323 191.588 2.15426C190.894 1.74436 190.168 1.39209 189.416 1.101C181.27 -2.07175 173.225 1.8588 165.682 9.72997C154.179 21.7445 143.852 42.9353 136.176 62.0989ZM140.884 59.5886C146.454 45.5564 154.646 32.3541 164.121 26.4755C167.866 24.153 171.816 22.9759 175.885 23.3499C177.353 23.4802 178.574 23.8202 179.569 24.3302C180.803 24.9302 181.803 25.9205 182.414 27.1469L182.421 27.1445C185.801 33.7922 178.697 47.3029 171.673 53.4223C162.452 61.4599 140.884 59.5886 140.884 59.5886Z" fill="#ED1C24"/>
<g style="mix-blend-mode:multiply">
<path d="M173.987 64.916C190.229 61.7881 188.105 41.9146 186.129 35.6395C183.811 28.3039 182.421 27.1445 182.421 27.1445C185.801 33.7922 178.697 47.3029 171.673 53.4224C162.452 61.4599 140.884 59.5886 140.884 59.5886C138.053 63.5243 157.085 68.177 173.987 64.916Z" fill="#939598"/>
</g>
<path opacity="0.3" d="M164.121 26.4755C167.866 24.153 171.816 22.9759 175.885 23.3499C177.354 23.4802 178.574 23.8202 179.569 24.3302C182.054 15.6228 187.694 7.23915 191.589 2.15426C190.895 1.74436 190.168 1.39209 189.416 1.101C181.27 -2.07175 173.225 1.8588 165.682 9.72997C164.222 16.0165 164.049 22.5151 164.121 26.4755Z" fill="white"/>
<path d="M135.067 67.7388C140.591 67.7388 145.068 63.271 145.068 57.7598C145.068 52.2485 140.591 47.7808 135.067 47.7808C129.543 47.7808 125.065 52.2485 125.065 57.7598C125.065 63.271 129.543 67.7388 135.067 67.7388Z" fill="#ED1C24"/>
<g style="mix-blend-mode:multiply">
<path d="M135.067 60.6643C131.105 60.6643 127.553 59.3931 125.084 57.3813C125.08 57.5077 125.065 57.6317 125.065 57.7595C125.065 60.4061 126.119 62.9443 127.995 64.8157C129.87 66.6872 132.414 67.7385 135.067 67.7385C137.72 67.7385 140.263 66.6872 142.139 64.8157C144.015 62.9443 145.069 60.4061 145.069 57.7595C145.069 57.6317 145.054 57.5077 145.05 57.3813C142.581 59.3931 139.029 60.6643 135.067 60.6643Z" fill="#D1D3D4"/>
</g>
</g>
<defs>
<clipPath id="clip0_208_3048">
<rect width="264" height="248" fill="white"/>
</clipPath>
</defs>
</svg>
