<svg width="143" height="43" viewBox="0 0 143 43" fill="none" xmlns="http://www.w3.org/2000/svg">
<path d="M33.8596 32.9817V34.2751C35.2443 34.1895 36.5449 33.5811 37.4982 32.5731C38.4515 31.5651 38.9864 30.2327 38.9948 28.8453V24.0046H37.7015V28.8453C37.701 29.8922 37.3048 30.9003 36.5923 31.6674C35.8798 32.4345 34.9036 32.904 33.8596 32.9817ZM33.5522 34.5953V32.6871H33.6932C34.6882 32.6527 35.6307 32.2325 36.3215 31.5155C37.0122 30.7984 37.3968 29.8408 37.394 28.8452V23.6972H39.3022V28.8453C39.2988 30.3416 38.7124 31.7778 37.6676 32.8489C36.6228 33.92 35.2017 34.5419 33.7059 34.5825L33.5522 34.5953ZM49.0604 24.0046V28.8453C49.0688 30.2327 49.6038 31.5652 50.5571 32.5732C51.5105 33.5812 52.811 34.1895 54.1958 34.2751V32.9817C53.1774 32.9051 52.2236 32.4533 51.5192 31.7139C50.7681 30.9486 50.3493 29.9177 50.3539 28.8453V24.0046H49.0604ZM54.5031 34.5953L54.3494 34.5825C52.8537 34.5419 51.4325 33.92 50.3876 32.8489C49.3428 31.7778 48.7565 30.3416 48.7531 28.8453V23.6972H50.6613V28.8453C50.6562 29.8382 51.0386 30.7939 51.7275 31.5091C52.4163 32.2242 53.357 32.6423 54.3494 32.6743L54.5031 32.6872V34.5953ZM45.9999 32.4438L46.3199 33.0713C47.0705 34.5251 48.1997 35.7493 49.5881 36.6148C50.9766 37.4803 52.5728 37.955 54.2085 37.9889L54.1958 36.6955C52.1636 36.637 50.2337 35.7907 48.8141 34.3353C47.3946 32.8799 46.5967 30.9296 46.5889 28.8965V17.4607H45.2187V28.7557C45.2202 30.304 44.911 31.8369 44.3094 33.2635L44.0276 33.9294L43.7458 33.2635C43.1442 31.8369 42.835 30.304 42.8366 28.7557V17.4607H41.4536V28.8965C41.4516 30.9291 40.6573 32.8809 39.2393 34.3371C37.8213 35.7934 35.8913 36.6394 33.8595 36.6955V37.9889C35.4949 37.954 37.0905 37.4773 38.477 36.6093C39.8635 35.7413 40.9894 34.5144 41.7353 33.0585L42.0554 32.4438L42.2987 33.097C42.5708 33.8678 42.9181 34.6098 43.3359 35.3124V35.3252C43.5461 35.6965 43.777 36.0556 44.0276 36.4009C44.2869 36.0618 44.5182 35.702 44.7191 35.3252L44.7318 35.3124C45.1441 34.6114 45.4913 33.8741 45.7691 33.1098L45.9999 32.4438ZM54.5158 38.2962H54.3622C52.6447 38.2884 50.9622 37.8104 49.4971 36.9142C48.032 36.0179 46.8402 34.7377 46.0511 33.2122C45.7701 33.996 45.4141 34.7508 44.9882 35.4661V35.4789C44.7481 35.9249 44.4695 36.3491 44.1557 36.7468L44.0277 36.8876L43.9125 36.7468C43.5957 36.344 43.313 35.9157 43.0672 35.4661C42.646 34.7438 42.2903 33.9852 42.0043 33.1994C41.2185 34.7259 40.0296 36.008 38.5667 36.9065C37.1038 37.805 35.4226 38.2857 33.7058 38.2963H33.5522V36.4009L33.706 36.3881C35.6848 36.3732 37.5776 35.5779 38.9733 34.1751C40.3689 32.7723 41.1545 30.8753 41.1592 28.8965V17.1533H43.1314V28.7557C43.1331 30.2651 43.4379 31.7588 44.0278 33.1482C44.6136 31.758 44.914 30.2643 44.9113 28.7557V17.1533H46.8964V28.8966C46.9006 30.8767 47.6856 32.7752 49.081 34.1802C50.4763 35.5851 52.3694 36.3831 54.3494 36.4009H54.5032L54.5158 38.2962ZM33.8596 40.4221V41.7155C36.927 41.6415 39.8682 40.4795 42.1579 38.4371C41.9787 38.1938 41.6841 37.784 41.4152 37.3742C39.3439 39.2636 36.6622 40.3454 33.8596 40.4221ZM33.5522 42.0228V40.1275L33.7059 40.1147C36.5475 40.0814 39.2724 38.9796 41.3384 37.0284L41.4664 36.9003L41.5689 37.054C41.9018 37.579 42.3244 38.1425 42.4909 38.3602L42.5677 38.4755L42.4653 38.5651C40.0675 40.7516 36.9507 41.982 33.7059 42.0228L33.5522 42.0228ZM45.8845 38.4371C48.1792 40.4798 51.1245 41.6416 54.1958 41.7155V40.4221C51.3926 40.3478 48.7101 39.2657 46.64 37.3742C46.3839 37.7456 46.0894 38.1554 45.8845 38.4371ZM54.5031 42.0228H54.3494C51.1004 41.9845 47.9786 40.754 45.5772 38.5652L45.4748 38.4755L45.5643 38.3603C45.7821 38.0657 46.1792 37.515 46.4737 37.054L46.576 36.9003L46.717 37.0284C48.7829 38.9796 51.5079 40.0815 54.3494 40.1147L54.5031 40.1275V42.0228Z" fill="#EB3333"/>
<path d="M76.6065 13.3507H74.251V11.6459H74.93L75.5057 1.47791H79.8457V13.3507H78.0659V3.18271H77.1821L76.6065 13.3507Z" fill="#EB3333"/>
<path d="M81.1411 1.47791H85.546V3.18271H82.9209V6.06323H85.469V7.75384H82.9209V11.6459H85.546V13.3507H81.1411V1.47791Z" fill="#EB3333"/>
<path d="M86.377 1.47791H91.5521V3.18271H89.8615V13.3507H88.0818V3.18271H86.377V1.47791Z" fill="#EB3333"/>
<path d="M79.7953 16.0529H81.9724V27.9115H80.1926V22.8275L80.4744 19.4321H80.3974L79.1548 25.5418H77.4904L76.2094 19.4321H76.1323L76.4526 22.8275V27.9115H74.6729V16.0529H76.8378L78.2851 22.8275H78.3357L79.7953 16.0529Z" fill="#EB3333"/>
<path d="M86.8136 17.7424H85.0336V26.2457H86.8136V17.7424ZM84.0476 27.949C83.9434 27.955 83.839 27.939 83.7415 27.9019C83.644 27.8648 83.5555 27.8074 83.4817 27.7337C83.4079 27.6599 83.3505 27.5713 83.3134 27.4738C83.2763 27.3762 83.2603 27.272 83.2664 27.1678V16.8332C83.2603 16.729 83.2763 16.6248 83.3134 16.5272C83.3505 16.4297 83.4079 16.3411 83.4817 16.2673C83.5555 16.1935 83.644 16.1362 83.7415 16.0991C83.839 16.062 83.9434 16.046 84.0476 16.052H87.8125C87.9167 16.046 88.021 16.062 88.1185 16.0991C88.2161 16.1362 88.3047 16.1936 88.3785 16.2673C88.4523 16.3411 88.5095 16.4297 88.5466 16.5272C88.5837 16.6248 88.5998 16.729 88.5937 16.8332V27.1678C88.5998 27.272 88.5837 27.3762 88.5466 27.4738C88.5095 27.5713 88.4523 27.6599 88.3785 27.7336C88.3047 27.8074 88.2161 27.8648 88.1185 27.9019C88.021 27.939 87.9167 27.955 87.8125 27.949H84.0476Z" fill="#EB3333"/>
<path d="M90.6682 27.9105C90.564 27.9166 90.4598 27.9005 90.3622 27.8634C90.2647 27.8263 90.1761 27.769 90.1023 27.6952C90.0285 27.6214 89.9711 27.5328 89.934 27.4353C89.8969 27.3378 89.8809 27.2335 89.887 27.1293V16.8204C89.8823 16.7171 89.8993 16.614 89.9371 16.5178C89.9749 16.4216 90.0324 16.3344 90.1061 16.2619C90.1798 16.1895 90.268 16.1333 90.3648 16.0972C90.4617 16.061 90.565 16.0457 90.6682 16.0521H95.0607V19.4329H93.2678V17.7425H91.667V26.2202H93.2678V24.0174H95.0607V27.9105H90.6682Z" fill="#EB3333"/>
<path d="M101.937 27.9115H100.054L98.4792 22.3146H98.019V27.9115H96.2393V16.0529H98.019V20.624H98.5319L100.054 16.0529H101.937L100.107 21.4693L101.937 27.9115Z" fill="#EB3333"/>
<path d="M106.331 17.7425H104.55V26.2457H106.331V17.7425ZM103.552 27.949C103.448 27.9548 103.344 27.9385 103.248 27.9011C103.151 27.8637 103.063 27.8062 102.991 27.7322C102.918 27.6583 102.862 27.5697 102.826 27.4724C102.79 27.3751 102.776 27.2712 102.783 27.1678V16.8332C102.776 16.7298 102.79 16.626 102.826 16.5286C102.862 16.4313 102.918 16.3427 102.991 16.2688C103.063 16.1949 103.151 16.1373 103.248 16.0999C103.344 16.0625 103.448 16.0462 103.552 16.0521H107.329C107.433 16.0462 107.536 16.0626 107.633 16.0999C107.73 16.1373 107.818 16.1949 107.89 16.2688C107.963 16.3427 108.019 16.4313 108.055 16.5287C108.091 16.626 108.105 16.7298 108.098 16.8332V27.1678C108.105 27.2712 108.091 27.3751 108.055 27.4724C108.019 27.5697 107.963 27.6583 107.89 27.7322C107.818 27.8062 107.73 27.8637 107.633 27.9011C107.536 27.9385 107.433 27.9548 107.329 27.949H103.552Z" fill="#EB3333"/>
<path d="M111.171 26.22H112.784V22.3142H111.171V26.22ZM112.784 17.7424H111.183V20.6237H112.784V17.7424ZM114.564 20.1499C114.58 20.4359 114.503 20.7194 114.343 20.9574C114.184 21.1954 113.951 21.375 113.681 21.469C113.954 21.5592 114.189 21.7379 114.349 21.9768C114.509 22.2157 114.585 22.5012 114.564 22.788V27.1293C114.57 27.2335 114.554 27.3377 114.517 27.4353C114.48 27.5328 114.423 27.6214 114.349 27.6952C114.275 27.769 114.187 27.8263 114.089 27.8634C113.992 27.9005 113.887 27.9165 113.783 27.9105H109.391V16.052H113.783C113.886 16.0455 113.99 16.0609 114.086 16.097C114.183 16.1332 114.271 16.1894 114.345 16.2618C114.419 16.3343 114.476 16.4215 114.514 16.5177C114.552 16.6139 114.569 16.717 114.564 16.8202V20.1499Z" fill="#EB3333"/>
<path d="M116.639 27.9105C116.535 27.9166 116.43 27.9005 116.333 27.8634C116.235 27.8263 116.147 27.769 116.073 27.6952C115.999 27.6214 115.942 27.5328 115.905 27.4353C115.868 27.3378 115.852 27.2335 115.858 27.1293V16.8204C115.853 16.7171 115.87 16.614 115.908 16.5178C115.946 16.4216 116.003 16.3344 116.077 16.2619C116.151 16.1895 116.239 16.1333 116.336 16.0972C116.432 16.061 116.536 16.0457 116.639 16.0521H121.031V19.4329H119.251V17.7425H117.638V26.2202H119.251V24.0174H121.031V27.9105H116.639Z" fill="#EB3333"/>
<path d="M127.921 27.9115H126.026L124.463 22.3146H124.003V27.9115H122.211V16.0529H124.003V20.624H124.516L126.026 16.0529H127.921L126.077 21.4693L127.921 27.9115Z" fill="#EB3333"/>
<path d="M132.327 17.7424H130.546V26.2457H132.327V17.7424ZM129.535 27.949C129.431 27.955 129.326 27.939 129.229 27.9019C129.131 27.8648 129.043 27.8074 128.969 27.7336C128.895 27.6599 128.838 27.5713 128.801 27.4738C128.764 27.3762 128.748 27.272 128.754 27.1678V16.8332C128.748 16.729 128.764 16.6248 128.801 16.5272C128.838 16.4297 128.895 16.3411 128.969 16.2673C129.043 16.1936 129.131 16.1362 129.229 16.0991C129.326 16.062 129.431 16.046 129.535 16.052H133.338C133.442 16.046 133.547 16.062 133.644 16.0991C133.742 16.1362 133.83 16.1935 133.904 16.2673C133.978 16.3411 134.035 16.4297 134.072 16.5272C134.11 16.6248 134.125 16.729 134.119 16.8332V27.1678C134.125 27.272 134.11 27.3762 134.072 27.4738C134.035 27.5713 133.978 27.6599 133.904 27.7337C133.83 27.8074 133.742 27.8648 133.644 27.9019C133.547 27.939 133.442 27.955 133.338 27.949H129.535Z" fill="#EB3333"/>
<path d="M140.497 16.0529H142.674V27.9115H140.894V22.8275L141.176 19.4321H141.099L139.856 25.5418H138.192L136.923 19.4321H136.834L137.154 22.8275V27.9115H135.375V16.0529H137.552L138.985 22.8275H139.038L140.497 16.0529Z" fill="#EB3333"/>
<path d="M22.1056 27.9115H19.6852V26.2208H20.6076L20.9664 24.0174H19.6852L17.9946 16.0529H19.8271L21.1448 22.3146H21.236L22.2718 16.0529H24.0516L22.1056 27.9115Z" fill="#EB3333"/>
<path d="M75.4543 42.5224C75.3504 42.5274 75.2465 42.5106 75.1495 42.4731C75.0524 42.4356 74.9643 42.3783 74.8908 42.3047C74.8172 42.2311 74.7599 42.143 74.7224 42.046C74.6849 41.9489 74.6681 41.8451 74.6731 41.7412V31.3939C74.6671 31.2897 74.683 31.1854 74.7201 31.0879C74.7573 30.9904 74.8146 30.9018 74.8884 30.828C74.9622 30.7542 75.0508 30.6969 75.1484 30.6598C75.2459 30.6227 75.3502 30.6066 75.4543 30.6127H79.8468V34.0191H78.0539V32.3159H76.4532V40.8192H78.0539V38.6037H79.8468V42.5096H75.4543V42.5224Z" fill="#EB3333"/>
<path d="M86.4545 30.6135V42.5228H84.6869V32.3163H82.8301V42.5228H81.0645V30.6135H86.4545Z" fill="#EB3333"/>
<path d="M91.2956 32.3159H89.5285V40.8191H91.2956V32.3159ZM88.5295 42.5224C88.4256 42.5274 88.3218 42.5106 88.2248 42.4731C88.1277 42.4356 88.0396 42.3783 87.9661 42.3047C87.8925 42.2311 87.8352 42.143 87.7977 42.046C87.7602 41.9489 87.7433 41.8451 87.7483 41.7412V31.3939C87.7422 31.2897 87.7584 31.1854 87.7955 31.0879C87.8326 30.9904 87.8899 30.9018 87.9637 30.828C88.0375 30.7542 88.126 30.6969 88.2236 30.6598C88.3211 30.6227 88.4253 30.6066 88.5295 30.6127H92.2945C92.3986 30.6066 92.5029 30.6227 92.6004 30.6598C92.698 30.6969 92.7866 30.7542 92.8604 30.828C92.9342 30.9018 92.9914 30.9904 93.0285 31.0879C93.0656 31.1854 93.0818 31.2897 93.0757 31.3939V41.7412C93.0807 41.8451 93.0639 41.949 93.0264 42.046C92.9889 42.143 92.9315 42.2312 92.8579 42.3047C92.7844 42.3783 92.6963 42.4357 92.5992 42.4731C92.5022 42.5106 92.3984 42.5274 92.2945 42.5224L88.5295 42.5224Z" fill="#EB3333"/>
<path d="M96.1487 36.9004H97.8391V32.3158H96.1487V36.9004ZM96.1487 38.6036V42.5223H94.3687V30.6126H98.8381C98.9423 30.6065 99.0465 30.6225 99.1441 30.6597C99.2416 30.6968 99.3301 30.7541 99.4039 30.8279C99.4777 30.9017 99.5351 30.9902 99.5722 31.0878C99.6093 31.1853 99.6253 31.2896 99.6192 31.3938V37.8224C99.6253 37.9266 99.6093 38.0309 99.5722 38.1284C99.5351 38.2259 99.4777 38.3145 99.4039 38.3883C99.3301 38.4621 99.2416 38.5194 99.1441 38.5565C99.0465 38.5936 98.9423 38.6097 98.8381 38.6036H96.1487Z" fill="#EB3333"/>
<path d="M100.49 30.6135H105.663V32.3163H103.975V42.5228H102.193V32.3163H100.49V30.6135Z" fill="#EB3333"/>
<path d="M110.261 42.5228H107.841V40.82H108.763L109.122 38.6044H107.841L106.164 30.6135H107.982L109.314 36.8996H109.403L110.441 30.6135H112.209L110.261 42.5228Z" fill="#EB3333"/>
<path d="M12.5762 22.4679V42.1637H14.4715V21.072L14.3691 21.1617C13.8079 21.645 13.2083 22.0819 12.5762 22.4679Z" fill="#EB3333"/>
<path d="M0.679199 24.6065C5.82141 24.1935 10.6772 22.07 14.4714 18.5748V15.8983C10.885 19.8084 5.96467 22.2343 0.679199 22.6984V24.6065Z" fill="#EB3333"/>
<path d="M14.4714 1.50427H12.5761C12.572 4.82899 11.3653 8.03998 9.17862 10.5444C6.99194 13.0489 3.973 14.6776 0.679199 15.13V17.0381C4.47905 16.5812 7.98009 14.7487 10.5212 11.8868C13.0622 9.02489 14.4675 5.3315 14.4714 1.50427Z" fill="#EB3333"/>
<path d="M16.3412 1.50427C16.3354 5.82701 14.7335 9.99537 11.843 13.2096C8.95258 16.4239 4.97707 18.4576 0.679199 18.9206V20.8287C4.00982 20.5063 7.20108 19.3304 9.9446 17.4147C12.6881 15.4989 14.8912 12.908 16.3412 9.89229V42.1638H18.2365V1.50427H16.3412Z" fill="#EB3333"/>
<path d="M42.0045 9.80263C41.21 8.2706 40.01 6.98624 38.5353 6.08971C37.0606 5.19317 35.368 4.71889 33.6422 4.71863H33.4501C30.9583 4.72244 28.5696 5.71399 26.8076 7.47595C25.0457 9.23792 24.0541 11.6266 24.0503 14.1183V28.8966C24.0514 31.3904 25.0417 33.7819 26.8039 35.5465C28.5661 37.3111 30.9563 38.3046 33.4501 38.3091H33.5525V36.401H33.4501C31.462 36.3977 29.5564 35.6056 28.1518 34.1986C26.7472 32.7916 25.9583 30.8847 25.9584 28.8966V14.1183C25.9605 12.1309 26.7501 10.2252 28.1543 8.81871C29.5584 7.41218 31.4626 6.61939 33.4501 6.61394H33.6549C35.6444 6.61673 37.5514 7.40826 38.9582 8.815C40.3649 10.2217 41.1564 12.1289 41.1592 14.1183V17.1534H43.1314V14.2592C43.1314 14.1823 43.1443 14.1183 43.1443 14.0543C43.1297 12.5635 42.7376 11.1008 42.0045 9.80263Z" fill="#EB3333"/>
<path d="M33.5526 8.41956C32.0283 8.42163 30.567 9.02809 29.4891 10.106C28.4112 11.1838 27.8048 12.6452 27.8027 14.1695V28.8454C27.8048 30.3697 28.4112 31.831 29.4891 32.9089C30.567 33.9868 32.0283 34.5932 33.5526 34.5953V32.6871C32.5339 32.6863 31.5573 32.2813 30.837 31.561C30.1167 30.8407 29.7116 29.8639 29.7108 28.8453V14.1695C29.7108 13.1505 30.1156 12.1733 30.8361 11.4529C31.5566 10.7324 32.5338 10.3276 33.5527 10.3276C34.5717 10.3276 35.5488 10.7324 36.2692 11.4529C36.9897 12.1733 37.3945 13.1505 37.3945 14.1695V23.6973H39.3027V14.1695C39.3006 12.6451 38.6941 11.1838 37.6162 10.1059C36.5384 9.02808 35.077 8.42163 33.5526 8.41956Z" fill="#EB3333"/>
<path d="M54.4775 0.979248C54.2982 0.979248 54.1188 0.992057 53.9268 0.992057C53.9217 0.99692 53.9157 1.00059 53.9091 1.00281C53.9024 1.00503 53.8953 1.00573 53.8884 1.00487H53.7859C53.4043 1.02359 53.0239 1.06205 52.6462 1.12011H52.5821C52.5565 1.12011 52.5436 1.13292 52.5181 1.13292C52.143 1.18452 51.771 1.2572 51.404 1.35063H51.3654V1.36345H51.327C51.3173 1.36477 51.3083 1.36927 51.3014 1.37624C50.9247 1.46344 50.5528 1.57031 50.1873 1.6964L50.1361 1.722C49.7601 1.84381 49.3923 1.98924 49.0347 2.15742L49.0092 2.17021C47.0567 3.06697 45.3481 4.4197 44.0275 6.11451C42.7888 4.51615 41.2009 3.2224 39.3852 2.33231C37.5695 1.44222 35.5742 0.97939 33.5521 0.979248C31.2009 0.984722 28.8931 1.61338 26.864 2.80117C24.8349 3.98896 23.1569 5.69343 22.001 7.7409V1.50431H20.0928V42.1638H22.001V35.2613C23.1536 37.3116 24.8308 39.0185 26.8607 40.2067C28.8905 41.3949 31.2 42.0218 33.5521 42.0229V40.1276C30.5407 40.1238 27.6537 38.9258 25.5243 36.7964C23.3949 34.667 22.1969 31.78 22.1931 28.7685V14.2592C22.1931 11.2466 23.3899 8.35741 25.5201 6.22718C27.6503 4.09695 30.5395 2.9002 33.5521 2.9002C36.5647 2.9002 39.454 4.09695 41.5842 6.22718C43.7144 8.35741 44.9112 11.2466 44.9112 14.2592V17.1534H46.8961V14.1055C46.8994 12.1174 47.6915 10.2119 49.0985 8.80729C50.5055 7.40268 52.4124 6.61384 54.4005 6.61395H54.5925C56.5799 6.61602 58.4856 7.40557 59.8922 8.80971C61.2987 10.2138 62.0915 12.1181 62.0969 14.1055V28.8966C62.0937 30.8847 61.3015 32.7903 59.8945 34.1949C58.4875 35.5995 56.5806 36.3883 54.5925 36.3882H54.5029V36.9005L54.5157 38.2964H54.5029V38.3091H54.6054C57.0992 38.308 59.4907 37.3177 61.2552 35.5555C63.0198 33.7934 64.0134 31.4032 64.0179 28.9094V14.1184C64.0133 11.6246 63.0198 9.23443 61.2552 7.47225C59.4907 5.71008 57.0992 4.71979 54.6054 4.71864H54.4005C52.6769 4.72172 50.9872 5.1973 49.5151 6.09366C48.043 6.99001 46.8447 8.27284 46.0508 9.80263C45.8002 9.11817 45.4963 8.45447 45.1417 7.81769C45.5671 7.20001 46.0516 6.62529 46.5886 6.10167V6.11447C47.6151 5.11351 48.8236 4.31806 50.1488 3.77095C50.1616 3.75815 50.1616 3.75815 50.1744 3.75815C50.4947 3.63008 50.8275 3.50203 51.1605 3.39958C51.1861 3.39958 51.1991 3.38677 51.2246 3.38677C51.3418 3.34504 51.4616 3.31082 51.5832 3.28432C51.6155 3.26982 51.6502 3.26115 51.6856 3.25871L51.7239 3.2459C51.8904 3.20739 52.0569 3.16905 52.2362 3.13064C52.2618 3.13064 52.2874 3.11783 52.313 3.11783C52.32 3.1187 52.3271 3.11801 52.3338 3.11579C52.3405 3.11358 52.3465 3.10991 52.3516 3.10504H52.39L52.4156 3.09222C52.518 3.07941 52.6332 3.05371 52.7356 3.041H52.7614C52.787 3.041 52.8126 3.02819 52.851 3.02819L52.9022 3.01538C53.043 3.00259 53.1967 2.97686 53.3504 2.96415H53.4145C53.4913 2.95136 53.5681 2.95136 53.6449 2.93855C53.709 2.93855 53.7859 2.92574 53.8627 2.92574H53.9268C53.9459 2.91413 53.9685 2.9096 53.9907 2.91295C54.1572 2.91295 54.3237 2.90014 54.5029 2.90014C57.5144 2.90395 60.4014 4.10192 62.5308 6.23133C64.6602 8.36073 65.8582 11.2477 65.862 14.2592V28.7686C65.8604 31.7807 64.6632 34.669 62.5333 36.7988C60.4034 38.9287 57.515 40.126 54.5029 40.1276V42.0358C58.0187 42.0302 61.3888 40.6302 63.8736 38.1429C66.3585 35.6557 67.7552 32.2844 67.7574 28.7686V14.2592C67.76 10.7408 66.3652 7.36529 63.8797 4.87497C61.3942 2.38465 58.0214 0.983369 54.5029 0.979248H54.4775Z" fill="#EB3333"/>
<path d="M60.241 28.8454V14.1567C60.2382 12.6353 59.6318 11.1772 58.555 10.1024C57.4782 9.0276 56.0189 8.42395 54.4975 8.42395C52.9761 8.42395 51.5168 9.0276 50.44 10.1024C49.3632 11.1772 48.7568 12.6353 48.7539 14.1567V23.6973H50.6621V14.1695C50.661 13.6642 50.7595 13.1637 50.952 12.6965C51.1446 12.2294 51.4273 11.8049 51.7842 11.4472C52.141 11.0895 52.565 10.8057 53.0317 10.6121C53.4984 10.4185 53.9986 10.3188 54.5039 10.3188C55.0092 10.3188 55.5094 10.4185 55.9761 10.6121C56.4428 10.8057 56.8668 11.0895 57.2236 11.4472C57.5805 11.8049 57.8633 12.2294 58.0558 12.6965C58.2484 13.1637 58.3469 13.6642 58.3457 14.1695V28.8453C58.3427 29.8633 57.937 30.8388 57.2172 31.5586C56.4974 32.2785 55.5219 32.6842 54.5039 32.6872V34.5825C56.0249 34.5807 57.4831 33.9756 58.5586 32.9001C59.6341 31.8246 60.2392 30.3664 60.241 28.8454Z" fill="#EB3333"/>
</svg>
