<svg width="55" height="42" viewBox="0 0 55 42" fill="none" xmlns="http://www.w3.org/2000/svg">
<path d="M12.1904 18.2151L12.9445 14.167H13.5222L14.5966 16.7414L15.7115 14.167H16.2872L16.9663 18.2151H16.1595L15.8007 15.7177L14.7122 18.2151H14.4426L13.4066 15.7177L12.9972 18.2151H12.1904Z" fill="#EB3333"/>
<path d="M18.6821 17.2029C18.8061 17.3311 18.9558 17.4316 19.1213 17.4978C19.2868 17.564 19.4645 17.5944 19.6426 17.5871C19.8226 17.5944 20.0022 17.5641 20.1699 17.4979C20.3375 17.4317 20.4894 17.3313 20.6159 17.2029C20.8633 16.9265 21.0001 16.5686 21.0001 16.1976C21.0001 15.8267 20.8633 15.4687 20.6159 15.1923C20.3584 14.938 20.011 14.7953 19.649 14.7953C19.2871 14.7953 18.9396 14.938 18.6821 15.1923C18.4347 15.4687 18.298 15.8267 18.298 16.1976C18.298 16.5686 18.4347 16.9265 18.6821 17.2029ZM18.0931 14.6673C18.2997 14.4718 18.5431 14.3191 18.809 14.218C19.0749 14.1169 19.3582 14.0694 19.6426 14.0782C20.2208 14.0603 20.7825 14.2722 21.205 14.6673C21.5917 15.0805 21.8069 15.6253 21.8069 16.1912C21.8069 16.7572 21.5917 17.3019 21.205 17.7151C20.9975 17.9133 20.7522 18.0675 20.4837 18.1687C20.2153 18.27 19.9292 18.316 19.6426 18.3042C19.3579 18.316 19.0737 18.2699 18.8074 18.1686C18.541 18.0674 18.298 17.9131 18.0931 17.7151C17.7063 17.3019 17.4912 16.7572 17.4912 16.1912C17.4912 15.6253 17.7063 15.0805 18.0931 14.6673Z" fill="#EB3333"/>
<path d="M25.4697 17.1517V18.0737C25.1605 18.2308 24.8175 18.31 24.4708 18.3042C24.2 18.3139 23.9301 18.269 23.6771 18.1722C23.4241 18.0754 23.1932 17.9286 22.9981 17.7407C22.7859 17.5432 22.6179 17.303 22.5053 17.0359C22.3928 16.7688 22.3381 16.4809 22.3449 16.1911C22.333 15.8969 22.3853 15.6037 22.498 15.3317C22.6108 15.0597 22.7815 14.8155 22.9981 14.6161C23.3347 14.328 23.7492 14.1462 24.1892 14.0937C24.6291 14.0413 25.0748 14.1206 25.4697 14.3215V15.2436C25.3507 15.1015 25.2017 14.9876 25.0334 14.9101C24.8651 14.8326 24.6817 14.7934 24.4964 14.7953C24.3144 14.7908 24.1335 14.825 23.9657 14.8957C23.7979 14.9663 23.647 15.0718 23.5231 15.2051C23.2799 15.4807 23.1476 15.8366 23.1517 16.204C23.1414 16.3936 23.174 16.5831 23.2472 16.7583C23.3204 16.9334 23.4322 17.0898 23.5743 17.2157C23.7 17.3371 23.8484 17.4323 24.0111 17.4961C24.1737 17.5598 24.3473 17.5907 24.522 17.5871C24.7028 17.5926 24.8825 17.5562 25.047 17.4806C25.2114 17.4051 25.356 17.2925 25.4697 17.1517Z" fill="#EB3333"/>
<path d="M26.9928 14.167V15.884L28.4786 14.167H29.478L27.7631 16.038L29.5672 18.2151H28.5172L27.084 16.409L26.9928 16.4982V18.2151H26.2002V14.167H26.9928Z" fill="#EB3333"/>
<path d="M30.8096 17.2029C30.9336 17.3311 31.0832 17.4316 31.2487 17.4978C31.4143 17.564 31.592 17.5944 31.7701 17.5871C31.9502 17.5944 32.1298 17.564 32.2974 17.4979C32.465 17.4317 32.6168 17.3312 32.7433 17.2029C32.9907 16.9265 33.1276 16.5686 33.1276 16.1976C33.1276 15.8267 32.9907 15.4687 32.7433 15.1923C32.4858 14.938 32.1384 14.7953 31.7765 14.7953C31.4145 14.7953 31.0671 14.938 30.8096 15.1923C30.5622 15.4687 30.4254 15.8267 30.4254 16.1976C30.4254 16.5686 30.5622 16.9265 30.8096 17.2029ZM30.2205 14.6673C30.4272 14.4718 30.6705 14.3191 30.9364 14.218C31.2024 14.1169 31.4857 14.0694 31.7701 14.0782C32.3483 14.0603 32.91 14.2722 33.3324 14.6673C33.7192 15.0805 33.9343 15.6253 33.9343 16.1912C33.9343 16.7572 33.7192 17.3019 33.3324 17.7151C33.125 17.9133 32.8797 18.0675 32.6113 18.1687C32.3428 18.27 32.0567 18.316 31.7701 18.3042C31.4854 18.316 31.2013 18.2699 30.9349 18.1686C30.6685 18.0674 30.4255 17.9131 30.2205 17.7151C29.8338 17.3019 29.6187 16.7572 29.6187 16.1912C29.6187 15.6253 29.8338 15.0805 30.2205 14.6673Z" fill="#EB3333"/>
<path d="M35.458 16.4601V17.5743H35.791C35.976 17.5843 36.1606 17.5492 36.3288 17.4718C36.4109 17.4239 36.4782 17.3544 36.5233 17.2708C36.5685 17.1873 36.5898 17.0929 36.585 16.998C36.5893 16.9002 36.5634 16.8034 36.5107 16.7209C36.4579 16.6384 36.381 16.5741 36.2904 16.537C36.1136 16.4757 35.9266 16.4496 35.7398 16.4601H35.458ZM35.458 14.808V15.8454H35.791C35.8429 15.8411 35.8942 15.8325 35.9447 15.8197C36.004 15.7976 36.06 15.7675 36.1112 15.7301C36.1635 15.6878 36.207 15.6356 36.2392 15.5764C36.277 15.4965 36.2946 15.4086 36.2904 15.3203C36.2956 15.2476 36.2832 15.1747 36.2542 15.1078C36.2252 15.041 36.1805 14.9821 36.124 14.9361C35.9952 14.8502 35.8433 14.8055 35.6886 14.8081L35.458 14.808ZM34.6641 14.1677H35.6629C36.0108 14.1429 36.3572 14.2329 36.649 14.4238C36.7759 14.5209 36.8772 14.6474 36.9441 14.7925C37.0111 14.9375 37.0417 15.0967 37.0332 15.2563C37.0414 15.4207 37.0023 15.5841 36.9206 15.727C36.8389 15.87 36.718 15.9866 36.5722 16.063C36.6928 16.0746 36.81 16.1101 36.9168 16.1674C37.0236 16.2247 37.1179 16.3028 37.1942 16.3969C37.2705 16.4911 37.3273 16.5996 37.3612 16.7159C37.3951 16.8323 37.4055 16.9543 37.3918 17.0747C37.3973 17.2283 37.3692 17.3812 37.3095 17.5228C37.2498 17.6643 37.1599 17.7911 37.046 17.8943C36.7562 18.1247 36.3909 18.2388 36.0215 18.2145H34.6641V14.1677Z" fill="#EB3333"/>
<path d="M41.0669 17.1517V18.0737C40.7527 18.2295 40.406 18.3085 40.0552 18.3043C39.7845 18.314 39.5146 18.2691 39.2615 18.1723C39.0085 18.0754 38.7776 17.9287 38.5825 17.7407C38.3703 17.5433 38.2024 17.3031 38.0898 17.036C37.9772 16.7689 37.9225 16.4809 37.9294 16.1912C37.9175 15.897 37.9697 15.6037 38.0825 15.3317C38.1953 15.0597 38.3659 14.8155 38.5825 14.6161C38.9216 14.3279 39.3383 14.1463 39.7803 14.0939C40.2222 14.0415 40.6698 14.1207 41.0669 14.3215V15.2436C40.9454 15.1012 40.7941 14.9873 40.6237 14.9099C40.4533 14.8324 40.268 14.7933 40.0809 14.7954C39.9006 14.7896 39.7212 14.8233 39.5553 14.8941C39.3894 14.9649 39.241 15.071 39.1204 15.2052C38.872 15.4775 38.7389 15.8356 38.749 16.2041C38.7365 16.3927 38.7668 16.5817 38.8378 16.7569C38.9088 16.9322 39.0185 17.089 39.1588 17.2158C39.2863 17.3382 39.4368 17.4342 39.6017 17.4979C39.7666 17.5617 39.9425 17.592 40.1193 17.5871C40.2997 17.59 40.4785 17.5524 40.6425 17.477C40.8065 17.4017 40.9516 17.2905 41.0669 17.1517Z" fill="#EB3333"/>
<path d="M42.5789 14.167V15.884L44.0647 14.167H45.062L43.3471 16.038L45.1532 18.2151H44.1154L42.6679 16.409L42.5789 16.4982V18.2151H41.7842V14.167H42.5789Z" fill="#EB3333"/>
<path d="M46.3945 17.2028C46.521 17.3312 46.6729 17.4316 46.8406 17.4978C47.0082 17.564 47.1878 17.5943 47.3678 17.587C47.5459 17.5943 47.7237 17.5639 47.8892 17.4977C48.0547 17.4315 48.2044 17.331 48.3283 17.2028C48.5757 16.9264 48.7125 16.5685 48.7125 16.1975C48.7125 15.8266 48.5757 15.4686 48.3283 15.1922C48.0708 14.9379 47.7234 14.7952 47.3614 14.7952C46.9995 14.7952 46.652 14.9379 46.3945 15.1922C46.1471 15.4686 46.0104 15.8266 46.0104 16.1975C46.0104 16.5685 46.1471 16.9264 46.3945 17.2028ZM45.8055 14.6672C46.2349 14.2876 46.7883 14.0781 47.3614 14.0781C47.9346 14.0781 48.488 14.2876 48.9174 14.6672C49.3041 15.0804 49.5193 15.6252 49.5193 16.1911C49.5193 16.7571 49.3041 17.3018 48.9174 17.715C48.488 18.0946 47.9346 18.3041 47.3614 18.3041C46.7883 18.3041 46.2349 18.0946 45.8055 17.715C45.4187 17.3018 45.2036 16.7571 45.2036 16.1911C45.2036 15.6252 45.4187 15.0804 45.8055 14.6672Z" fill="#EB3333"/>
<path d="M52.5037 14.167V14.8461H51.0441V15.7563H52.4387V16.4353H51.0441V17.5361H52.5037V18.2151H50.2495V14.167H52.5037Z" fill="#EB3333"/>
<path d="M13.3931 23.5291C13.657 23.776 14.0049 23.9133 14.3663 23.9133C14.7278 23.9133 15.0757 23.776 15.3396 23.5291C15.5889 23.2522 15.7219 22.8899 15.711 22.5174C15.7243 22.1484 15.5907 21.7892 15.3396 21.5185C15.0796 21.2641 14.7302 21.1215 14.3663 21.1215C14.0025 21.1215 13.6531 21.2641 13.3931 21.5185C13.142 21.7892 13.0084 22.1484 13.0217 22.5174C13.0107 22.8899 13.1437 23.2522 13.3931 23.5291ZM12.804 20.9935C13.2359 20.6138 13.7913 20.4044 14.3663 20.4044C14.9414 20.4044 15.4968 20.6138 15.9287 20.9935C16.3155 21.4067 16.5306 21.9515 16.5306 22.5174C16.5306 23.0834 16.3155 23.6282 15.9287 24.0414C15.4968 24.421 14.9414 24.6304 14.3663 24.6304C13.7913 24.6304 13.2359 24.421 12.804 24.0414C12.4173 23.6281 12.2021 23.0834 12.2021 22.5174C12.2021 21.9515 12.4173 21.4067 12.804 20.9935Z" fill="#EB3333"/>
<path d="M18.0419 22.7863V23.862H18.4261C18.9255 23.862 19.1688 23.6827 19.1688 23.337C19.1702 23.2629 19.1562 23.1893 19.1275 23.1209C19.0988 23.0526 19.0562 22.9909 19.0024 22.94C18.8405 22.8198 18.6393 22.7649 18.4388 22.7863L18.0419 22.7863ZM17.2607 24.5408V20.494H19.6042V21.1727H18.0419V22.0949H18.5925C18.9594 22.0766 19.3199 22.1952 19.6042 22.4278C19.7304 22.5397 19.8302 22.6781 19.8966 22.8331C19.9631 22.988 19.9944 23.1558 19.9884 23.3243C19.9907 23.5858 19.91 23.8414 19.7579 24.0542C19.6188 24.2251 19.4396 24.359 19.2363 24.4439C19.033 24.5288 18.8118 24.5621 18.5925 24.5409L17.2607 24.5408Z" fill="#EB3333"/>
<path d="M21.4999 21.1727V22.3637H21.8329C22.0131 22.3788 22.1932 22.3338 22.3451 22.2356C22.416 22.1792 22.4726 22.107 22.5104 22.0247C22.5482 21.9423 22.5662 21.8523 22.5629 21.7618C22.5681 21.6715 22.5496 21.5814 22.5091 21.5005C22.4687 21.4196 22.4077 21.3508 22.3323 21.3008C22.1667 21.2014 21.9741 21.1566 21.7817 21.1727H21.4999ZM20.7188 20.494H21.8969C22.1036 20.4921 22.3098 20.5136 22.5116 20.558C22.6769 20.6058 22.8298 20.6888 22.9598 20.8013C23.0975 20.9218 23.2059 21.0721 23.2769 21.2407C23.3479 21.4093 23.3796 21.5919 23.3696 21.7746C23.381 21.941 23.3572 22.1079 23.2998 22.2646C23.2425 22.4212 23.1528 22.5641 23.0367 22.6838C22.9 22.8112 22.7384 22.9089 22.5621 22.9706C22.3857 23.0323 22.1985 23.0568 22.0122 23.0424H21.4999V24.5407H20.7188L20.7188 20.494Z" fill="#EB3333"/>
<path d="M24.714 23.0424H25.8665L25.2902 21.5953L24.714 23.0424ZM26.4556 24.5408L26.097 23.6956H24.4578L24.0992 24.5408H23.2412L24.9957 20.494H25.6104L27.3008 24.5408H26.4556Z" fill="#EB3333"/>
<path d="M28.1459 21.4161L27.736 20.8783C28.073 20.5653 28.5184 20.3954 28.9782 20.4045C29.3254 20.3841 29.669 20.4836 29.9515 20.6862C30.0661 20.7783 30.158 20.8955 30.2202 21.0286C30.2824 21.1618 30.3132 21.3075 30.3101 21.4545C30.3184 21.6304 30.2756 21.805 30.187 21.9572C30.0984 22.1095 29.9677 22.2328 29.8107 22.3125C30.033 22.3658 30.2285 22.4977 30.3613 22.6839C30.5013 22.882 30.5731 23.1202 30.5662 23.3626C30.5677 23.5405 30.5281 23.7163 30.4503 23.8763C30.3726 24.0362 30.2588 24.176 30.118 24.2847C29.7786 24.5258 29.3687 24.6474 28.9526 24.6304C28.6528 24.6528 28.3525 24.5932 28.084 24.4578C27.8155 24.3224 27.589 24.1165 27.4287 23.862L27.941 23.3754C28.021 23.5723 28.1717 23.7322 28.3636 23.8236C28.5485 23.9237 28.7552 23.9765 28.9654 23.9773C29.1768 23.9888 29.3854 23.9253 29.5546 23.798C29.6156 23.746 29.6644 23.6811 29.6976 23.6081C29.7308 23.5351 29.7476 23.4556 29.7466 23.3754C29.7466 22.9656 29.4521 22.7607 28.863 22.7607H28.4916V22.082H28.863C29.0363 22.0901 29.2075 22.0406 29.3497 21.9411C29.4024 21.8972 29.4454 21.8429 29.4762 21.7815C29.5069 21.7201 29.5246 21.6531 29.5283 21.5846C29.5319 21.516 29.5213 21.4475 29.4972 21.3832C29.4731 21.319 29.436 21.2604 29.3881 21.2112C29.2603 21.1245 29.1068 21.0838 28.9528 21.0959C28.803 21.0864 28.653 21.1101 28.5135 21.1655C28.374 21.2208 28.2484 21.3065 28.1459 21.4161Z" fill="#EB3333"/>
<path d="M32.2828 23.5291C32.5467 23.776 32.8947 23.9133 33.2561 23.9133C33.6175 23.9133 33.9653 23.776 34.2293 23.5291C34.4786 23.2522 34.6117 22.8899 34.6007 22.5174C34.614 22.1484 34.4804 21.7892 34.2293 21.5185C33.9692 21.2641 33.6199 21.1215 33.2561 21.1215C32.8922 21.1215 32.5428 21.2641 32.2828 21.5185C32.0317 21.7892 31.8981 22.1484 31.9114 22.5174C31.9004 22.8899 32.0335 23.2522 32.2828 23.5291ZM31.6937 20.9935C32.1256 20.6138 32.6809 20.4044 33.256 20.4044C33.8311 20.4044 34.3865 20.6138 34.8184 20.9935C35.2051 21.4067 35.4203 21.9515 35.4203 22.5174C35.4203 23.0834 35.2051 23.6282 34.8184 24.0414C34.3865 24.421 33.8311 24.6304 33.256 24.6304C32.6809 24.6304 32.1256 24.421 31.6937 24.0414C31.3069 23.6281 31.0918 23.0834 31.0918 22.5174C31.0918 21.9515 31.3069 21.4067 31.6937 20.9935Z" fill="#EB3333"/>
<path d="M36.931 22.7863V23.9005H37.2769C37.4632 23.9106 37.6488 23.8708 37.8147 23.7852C37.8947 23.7392 37.96 23.6715 38.0031 23.5899C38.0461 23.5083 38.0651 23.4162 38.0579 23.3242C38.065 23.2259 38.0401 23.1279 37.987 23.0449C37.934 22.9618 37.8556 22.8981 37.7634 22.8631C37.5908 22.8028 37.4081 22.7767 37.2256 22.7863H36.931ZM36.931 21.1343V22.1716H37.2769C37.3255 22.1663 37.3731 22.1533 37.4177 22.1332C37.4831 22.1235 37.5449 22.0971 37.597 22.0564C37.6453 22.0134 37.6845 21.9611 37.7122 21.9027C37.7544 21.8239 37.7764 21.7359 37.7763 21.6466C37.782 21.5725 37.7685 21.4982 37.7371 21.4309C37.7057 21.3636 37.6574 21.3055 37.597 21.2624C37.4718 21.1691 37.3173 21.1237 37.1615 21.1343H36.931ZM36.1499 20.494H37.1487C37.497 20.4648 37.8448 20.5552 38.1348 20.7501C38.2617 20.8472 38.363 20.9737 38.43 21.1188C38.4969 21.2638 38.5275 21.423 38.5191 21.5825C38.5271 21.7453 38.4878 21.9068 38.406 22.0477C38.3242 22.1886 38.2033 22.3028 38.058 22.3765C38.2552 22.4058 38.4385 22.4953 38.583 22.6326C38.6815 22.7315 38.7586 22.8496 38.8092 22.9796C38.8599 23.1097 38.8832 23.2488 38.8776 23.3882C38.8844 23.5419 38.8569 23.6952 38.7971 23.837C38.7373 23.9787 38.6467 24.1054 38.5318 24.2078C38.2436 24.4424 37.8783 24.5611 37.5073 24.5408H36.1499V20.494Z" fill="#EB3333"/>
<path d="M40.5039 23.0424H41.6565L41.0802 21.5953L40.5039 23.0424ZM42.2456 24.5408L41.887 23.6956H40.2478L39.8893 24.5408H39.0312L40.7729 20.494H41.4004L43.0908 24.5408H42.2456Z" fill="#EB3333"/>
<path d="M44.3587 20.4937V22.0565H46.0614V20.4937H46.856V24.5398H46.0614V22.7356H44.3587V24.5398H43.564V20.4937H44.3587Z" fill="#EB3333"/>
<path d="M47.7783 20.4937H48.5587V23.1836L50.7864 20.4937H51.35V24.5398H50.5574V21.8397L48.3277 24.5398H47.7783V20.4937Z" fill="#EB3333"/>
<path d="M54.5145 20.4937V21.1727H53.0529V22.0829H54.4495V22.76H53.0529V23.8627H54.5145V24.5398H52.2725V20.4937H54.5145Z" fill="#EB3333"/>
<path d="M35.1764 9.23748C34.4593 9.25029 33.7294 9.26311 33.0122 9.26311C33.0122 6.98362 33.025 4.71693 33.0378 2.43744C22.985 2.74477 18.823 7.39341 18.7718 7.44463L18.0034 8.34106L17.1838 7.48304C17.1326 7.43184 12.5608 2.77039 2.89218 2.43744V16.2681H0.740723V0.273113H1.81645C7.6088 0.0219581 13.3084 1.79204 17.9394 5.28032C19.745 3.69235 24.7522 0.273113 34.1007 0.273113H35.1764V9.23748Z" fill="#EB3333"/>
<path d="M17.9651 41.2528L17.2095 40.4972C16.4981 39.8024 15.651 39.2618 14.7211 38.9092C13.7912 38.5567 12.7986 38.3997 11.8053 38.4483H8.00184C3.53248 38.4483 0.740723 35.887 0.740723 31.7763V15.9351H2.89218V31.7763C2.89218 34.6448 4.76188 36.2967 8.00184 36.2967H11.8053C14.0318 36.2162 16.2147 36.9287 17.965 38.3073C19.7222 36.9322 21.9077 36.2204 24.1376 36.2967H27.9411C31.1682 36.2967 33.0379 34.6447 33.0379 31.7763V29.6504H35.1765V31.7763C35.1765 35.887 32.4104 38.4483 27.9411 38.4483H24.1376C23.1414 38.4002 22.1459 38.5585 21.2138 38.9133C20.2816 39.2681 19.4328 39.8117 18.7206 40.5101L17.9651 41.2528Z" fill="#EB3333"/>
</svg>
