<svg width="72" height="44" viewBox="0 0 72 44" fill="none" xmlns="http://www.w3.org/2000/svg">
<path fill-rule="evenodd" clip-rule="evenodd" d="M35.2125 2.21391C33.7378 5.09595 32.6163 7.48656 31.223 10.2779C30.7868 11.1136 30.5692 11.1984 29.836 11.1658L16.2592 11.1544C15.3399 11.1568 14.4588 11.523 13.8088 12.1731C13.1587 12.8232 12.7924 13.7042 12.7901 14.6235C12.7948 15.5422 13.1618 16.4221 13.8113 17.0717C14.4609 17.7212 15.3406 18.0882 16.2592 18.0928C19.806 18.0904 23.3527 18.088 26.8994 18.0857C27.6425 18.0847 27.8855 18.3695 27.6289 18.9875C27.3478 19.5545 27.0666 20.1215 26.7854 20.6884C26.3376 21.464 26.0818 21.4984 25.3673 21.4984H12.2902C9.62658 21.4908 7.07425 20.4295 5.19068 18.5462C3.30711 16.6629 2.24538 14.1107 2.2374 11.4471V11.4457C2.24537 8.78224 3.30715 6.23019 5.19076 4.34709C7.07437 2.464 9.6267 1.40292 12.2902 1.39567L34.3198 1.42769C35.1693 1.39567 35.3569 1.94904 35.2125 2.21391ZM12.3774 22.8682H13.3321C13.4549 22.8727 13.5709 22.9256 13.6549 23.0153C13.7389 23.105 13.784 23.2242 13.7804 23.3471V31.4226C13.784 31.5454 13.7388 31.6647 13.6549 31.7544C13.5709 31.8441 13.4549 31.8969 13.3321 31.9015H12.3774C12.2547 31.8969 12.1386 31.8441 12.0546 31.7544C11.9707 31.6647 11.9255 31.5455 11.9291 31.4226V23.3471C11.9255 23.2242 11.9706 23.105 12.0546 23.0153C12.1386 22.9256 12.2546 22.8727 12.3774 22.8682ZM25.3418 22.8556H25.5099C25.6051 22.851 25.6362 22.9476 25.5807 23.0556C25.4023 23.4155 25.2239 23.7754 25.0454 24.1354C24.9715 24.2676 24.8935 24.2211 24.8935 24.1159V23.3345C24.8899 23.2117 24.935 23.0924 25.019 23.0027C25.1029 22.913 25.219 22.8601 25.3418 22.8556ZM22.099 22.8556H23.0536C23.1764 22.8601 23.2925 22.913 23.3765 23.0027C23.4605 23.0924 23.5056 23.2116 23.502 23.3345V26.7791C23.5028 27.0738 23.4355 27.3648 23.3055 27.6292C22.8465 28.5445 22.3875 29.4598 21.9286 30.3751C21.8235 30.5663 21.6507 30.6299 21.6507 30.2877V23.3345C21.6471 23.2117 21.6922 23.0924 21.7762 23.0027C21.8602 22.913 21.9762 22.8601 22.099 22.8556ZM18.826 22.8556H19.7806C19.9034 22.8601 20.0195 22.913 20.1035 23.0027C20.1874 23.0924 20.2326 23.2116 20.229 23.3345V31.41C20.2325 31.5328 20.1874 31.6521 20.1034 31.7418C20.0194 31.8315 19.9034 31.8844 19.7806 31.8889H18.826C18.7032 31.8844 18.5872 31.8315 18.5032 31.7418C18.4192 31.6521 18.3741 31.5328 18.3777 31.41V23.3345C18.3741 23.2117 18.4192 23.0924 18.5032 23.0027C18.5872 22.913 18.7032 22.8601 18.826 22.8556ZM15.619 22.8556H16.5737C16.6965 22.8601 16.8125 22.913 16.8965 23.0027C16.9805 23.0924 17.0256 23.2116 17.022 23.3345V31.41C17.0256 31.5328 16.9804 31.6521 16.8965 31.7418C16.8125 31.8315 16.6965 31.8844 16.5737 31.8889H15.619C15.4962 31.8844 15.3802 31.8315 15.2962 31.7418C15.2123 31.6521 15.1671 31.5328 15.1707 31.41V23.3345C15.1671 23.2117 15.2122 23.0924 15.2962 23.0027C15.3802 22.913 15.4962 22.8601 15.619 22.8556ZM9.12505 22.3804L10.0797 22.6473C10.2071 22.6904 10.3183 22.7714 10.3984 22.8793C10.4785 22.9873 10.5238 23.1172 10.5281 23.2516V31.3273C10.5333 31.3838 10.5243 31.4407 10.502 31.4928C10.4796 31.545 10.4445 31.5907 10.3999 31.6258C10.3554 31.661 10.3027 31.6844 10.2468 31.694C10.1909 31.7035 10.1334 31.699 10.0797 31.6807L9.12505 31.4136C8.99768 31.3706 8.8865 31.2897 8.80638 31.1817C8.72626 31.0737 8.68103 30.9438 8.67674 30.8095V22.7337C8.67149 22.6772 8.68046 22.6203 8.70283 22.5682C8.72521 22.516 8.76028 22.4703 8.80484 22.4352C8.84941 22.4001 8.90205 22.3766 8.95798 22.3671C9.01391 22.3575 9.07135 22.3621 9.12505 22.3804ZM5.93628 20.8924L6.82203 21.4419C6.94791 21.5239 7.05363 21.6333 7.13127 21.7619C7.20891 21.8905 7.25647 22.035 7.2704 22.1846V30.0831C7.2704 30.3406 7.05093 30.4535 6.82203 30.2771L5.86737 29.5406C5.74612 29.4538 5.64383 29.3431 5.56675 29.2155C5.48968 29.0878 5.43942 28.9457 5.41906 28.798V21.2243C5.41559 21.1619 5.42875 21.0997 5.45718 21.0441C5.48562 20.9884 5.52831 20.9413 5.5809 20.9076C5.6335 20.8738 5.69411 20.8546 5.75654 20.852C5.81898 20.8493 5.881 20.8632 5.93628 20.8924ZM2.82113 17.7977L3.67063 18.8926C3.93974 19.1979 4.0865 19.592 4.0827 19.9989V26.8336C4.0827 27.2059 3.88962 27.4194 3.6785 27.0379C2.90146 25.7509 2.41381 24.3103 2.2494 22.816C2.23666 22.6288 2.23136 22.3586 2.23136 22.2344V18.3297C2.23135 17.5085 2.58222 17.4899 2.82113 17.7977ZM35.2942 33.3293H12.2933C9.26551 33.313 6.36689 32.1005 4.2291 29.9563C2.09131 27.8121 0.887635 24.9098 0.880371 21.882V21.8805C0.880371 21.8105 0.910462 11.7412 0.911645 11.6709L0.930921 11.7421C0.928508 11.645 0.927258 11.5476 0.927173 11.4499V11.4484C0.93574 8.4242 2.14091 5.52631 4.27937 3.38788C6.41783 1.24945 9.31575 0.0443219 12.34 0.0358C20.4583 0.0385307 28.0979 0.0412613 36.2162 0.0440027C36.4733 0.0130619 36.7337 0.0604419 36.9634 0.179943C37.1931 0.299443 37.3814 0.485498 37.5036 0.71376L53.4989 32.0962C53.706 32.7968 53.1314 33.3148 52.3788 33.3293C48.439 33.3293 46.5458 33.3365 42.6061 33.3363C41.8706 33.3363 41.2371 33.2749 40.6971 32.0866L31.2253 13.7338C30.8477 12.8098 30.4658 12.5157 29.8041 12.5157H16.4655C15.8941 12.5189 15.347 12.7472 14.943 13.1512C14.5389 13.5552 14.3105 14.1022 14.3072 14.6736C14.3072 15.8605 15.1502 16.7461 16.7271 16.7896H27.6336C27.9627 16.7412 28.2984 16.8128 28.579 16.9916C28.8597 17.1703 29.0666 17.4442 29.1618 17.763C31.5311 22.5313 33.9325 27.2927 36.3019 32.061C36.6213 32.6454 36.1095 33.3293 35.2942 33.3293ZM70.7378 32.0256L54.551 0.281078C54.4561 0.183198 54.3407 0.107509 54.2132 0.0594284C54.0856 0.0113475 53.949 -0.00793624 53.8131 0.00295761C53.6772 0.0138515 53.5454 0.0546535 53.4271 0.122443C53.3088 0.190233 53.207 0.283333 53.1289 0.39508C51.2147 4.2073 49.5566 7.60264 47.6422 11.4147C47.477 11.7531 47.3872 12.1233 47.379 12.4997C47.3707 12.8761 47.4442 13.2498 47.5944 13.5951L57.3216 32.3647C57.4954 32.6761 57.7537 32.9319 58.0668 33.1026C58.3799 33.2733 58.7349 33.3519 59.0908 33.3293H70.0786C70.2165 33.3015 70.3462 33.2428 70.4581 33.1576C70.5699 33.0724 70.661 32.9629 70.7245 32.8374C70.7879 32.7119 70.8221 32.5737 70.8244 32.4331C70.8267 32.2924 70.7971 32.1531 70.7378 32.0256Z" fill="#ED1C24"/>
<path fill-rule="evenodd" clip-rule="evenodd" d="M71.0224 43.8425H67.7263V40.8787C67.259 40.9605 67.009 41.0056 66.9763 41.0139C66.513 41.0946 66.0443 41.1398 65.5742 41.1492C64.2213 41.1492 63.2866 40.7884 62.7702 40.0668C62.4488 39.5791 62.2896 39.0024 62.315 38.4189V35.2335H65.6111V37.9762C65.5996 38.1046 65.6277 38.2334 65.6914 38.3454C65.7551 38.4575 65.8515 38.5474 65.9677 38.6032C66.1452 38.6834 66.3388 38.7213 66.5334 38.7141C66.7336 38.7145 66.9333 38.6959 67.13 38.6587C67.3328 38.619 67.5322 38.5635 67.7263 38.4926V35.2334H71.0224L71.0224 43.8425ZM61.2081 43.8425H57.9122V39.0216H57.863L55.6861 43.8425H51.8366V35.2335H55.1326V40.1529H55.1818L57.3586 35.2335H61.2081V43.8425ZM47.4091 41.2106C47.4157 41.0824 47.3885 40.9547 47.3302 40.8404C47.2719 40.726 47.1846 40.6289 47.077 40.5589C46.7814 40.3928 46.4439 40.3159 46.1055 40.3374H45.343V42.0962H46.1793C46.3603 42.1134 46.5429 42.094 46.7161 42.039C46.8894 41.9841 47.0499 41.8948 47.1878 41.7764C47.2601 41.7013 47.3168 41.6126 47.3548 41.5155C47.3928 41.4185 47.4112 41.3148 47.4091 41.2106ZM47.36 37.8039C47.3632 37.702 47.344 37.6007 47.3036 37.5072C47.2631 37.4137 47.2026 37.3302 47.1262 37.2628C46.8613 37.0545 46.5276 36.9535 46.1916 36.9799H45.343V38.6402H46.1178C46.3046 38.6591 46.4932 38.6405 46.6727 38.5857C46.8521 38.5308 47.0189 38.4406 47.1631 38.3205C47.2944 38.1811 47.3652 37.9953 47.36 37.8039ZM50.779 41.5427C50.7976 41.9748 50.6742 42.401 50.4277 42.7564C50.1812 43.1117 49.8251 43.3766 49.4139 43.5104C48.7113 43.7568 47.9688 43.8694 47.2247 43.8425H42.2192V35.2335H47.3968C48.5858 35.2335 49.4508 35.504 49.9918 36.0451C50.1825 36.23 50.3332 36.452 50.4347 36.6974C50.5362 36.9428 50.5864 37.2064 50.5821 37.472C50.5893 37.9442 50.4206 38.4023 50.1087 38.757C49.7785 39.1301 49.3282 39.3759 48.8358 39.452V39.5012C49.3107 39.5569 49.7593 39.7491 50.1272 40.0545C50.3405 40.2378 50.5098 40.4668 50.6226 40.7244C50.7355 40.982 50.7889 41.2616 50.779 41.5427ZM41.4567 43.8425H37.5211L35.4056 40.1898H35.3564V43.8425H32.0605V35.2335H35.3564V38.6157H35.4056L37.435 35.2335H41.1861L38.2835 39.2675L41.4567 43.8425ZM31.1997 43.6458C30.7801 43.764 30.3526 43.8524 29.9205 43.9102C29.5455 43.9611 29.1675 43.9878 28.789 43.9902C27.401 44.0731 26.0334 43.6246 24.9642 42.7356C24.5253 42.3305 24.1802 41.8345 23.9529 41.2822C23.7256 40.7299 23.6216 40.1347 23.6482 39.5381C23.6265 38.9771 23.7189 38.4176 23.9198 37.8933C24.1206 37.3691 24.4256 36.891 24.8165 36.488C25.7431 35.5532 27.096 35.0858 28.8751 35.0859C29.2989 35.0852 29.7222 35.1139 30.1419 35.172C30.2649 35.1885 30.5436 35.2378 30.9782 35.3197L31.1749 35.3565V37.6318C30.91 37.5277 30.6364 37.4475 30.3572 37.392C30.0557 37.3302 29.7487 37.2993 29.4409 37.2997C28.823 37.2736 28.2197 37.4923 27.7621 37.9084C27.5502 38.107 27.383 38.3485 27.2716 38.6168C27.1603 38.885 27.1074 39.174 27.1165 39.4643C27.0979 39.9687 27.2448 40.4654 27.5346 40.8787C27.7724 41.1631 28.0757 41.3856 28.4184 41.527C28.7611 41.6683 29.1331 41.7244 29.5022 41.6902C29.7332 41.6901 29.9638 41.6696 30.1911 41.6287C30.5323 41.5584 30.8691 41.4681 31.1997 41.3581L31.1997 43.6458ZM19.6881 39.5381C19.7077 39.0223 19.6412 38.5069 19.4914 38.013C19.4267 37.7634 19.28 37.5428 19.0747 37.3866C18.8695 37.2305 18.6178 37.1479 18.3599 37.1521C18.1031 37.1444 17.8512 37.2242 17.6456 37.3784C17.4401 37.5326 17.293 37.752 17.2284 38.0008C17.078 38.4987 17.0114 39.0183 17.0316 39.5381C17.0119 40.0538 17.0784 40.5692 17.2284 41.0631C17.2931 41.3127 17.4399 41.5333 17.6451 41.6894C17.8503 41.8456 18.1021 41.9282 18.3599 41.924C18.6168 41.9316 18.8685 41.8517 19.0741 41.6976C19.2796 41.5434 19.4268 41.3241 19.4914 41.0754C19.6417 40.5774 19.7082 40.0579 19.6881 39.5381ZM23.1563 39.5381C23.1889 40.1405 23.0934 40.743 22.8761 41.3059C22.6588 41.8687 22.3247 42.3791 21.8957 42.8033C20.9165 43.6442 19.6481 44.0699 18.3599 43.9902C17.0717 44.07 15.8032 43.6442 14.824 42.8033C14.395 42.3791 14.0609 41.8687 13.8435 41.3059C13.6262 40.743 13.5308 40.1405 13.5634 39.5381C13.5307 38.9356 13.6262 38.3331 13.8435 37.7702C14.0608 37.2074 14.395 36.697 14.824 36.2728C15.8032 35.4319 17.0717 35.0061 18.3599 35.0859C19.6481 35.0062 20.9165 35.432 21.8957 36.2728C22.3247 36.697 22.6588 37.2074 22.8761 37.7702C23.0934 38.3331 23.1889 38.9356 23.1563 39.5381ZM12.7025 43.8425H9.75084V37.0784H9.67705L7.97992 43.8425H5.23737L3.58928 37.0784H3.50324V43.8425H0.699219V35.2335H5.58159L6.70079 39.9439H6.76226L7.83242 35.2335H12.7025V43.8425Z" fill="#ED1C24"/>
</svg>
