<svg width="151" height="46" viewBox="0 0 151 46" fill="none" xmlns="http://www.w3.org/2000/svg">
<path d="M82.7677 23.5004H79.9119V4.79066H82.7677V12.1286H83.2416C84.7911 12.1286 85.2905 10.451 85.2905 9.19598V4.79066H88.1591V9.06787C88.2105 9.92712 88.0395 10.7851 87.6627 11.559C87.2858 12.3329 86.7157 12.9966 86.0076 13.486C86.7255 13.9627 87.3033 14.6222 87.6815 15.3966C88.0596 16.1709 88.2245 17.032 88.1591 17.8913V23.5003H85.2905V17.7633C85.2905 16.5595 84.7142 15.0868 83.2671 15.0997H82.7677V23.5004ZM131.303 23.5004V4.79066H133.851V15.7271L136.797 4.79062H139.985V23.5004H137.411V10.4894L133.902 23.526L131.303 23.5004ZM142.009 23.5004V4.79066H144.557V15.7271L147.49 4.79062H150.679V23.5004H148.105V10.4894L144.596 23.526L142.009 23.5004ZM149.488 2.54959H143.2V0.359741H149.488V2.54959ZM124.029 23.5004H121.173V4.79066H124.029V12.1286H124.503C126.053 12.1286 126.552 10.451 126.552 9.19598V4.79066H129.421V9.06787C129.472 9.92712 129.301 10.7851 128.924 11.559C128.547 12.3329 127.977 12.9966 127.269 13.486C127.987 13.9627 128.565 14.6222 128.943 15.3966C129.321 16.1709 129.486 17.032 129.421 17.8913V23.5003H126.552V17.7633C126.552 16.5595 125.989 15.0868 124.529 15.0997H124.029V23.5004ZM72.254 23.462H69.3983V4.76504H77.8886V12.2694H74.9687V7.42866H72.2538V20.7983H74.9687V15.9575H77.8885V23.4619L72.254 23.462ZM113.515 23.462H110.66V4.76504H119.15V12.2694H116.23V7.42866H113.515V20.7983H116.23V15.9575H119.15V23.4619L113.515 23.462ZM64.4551 7.42872H61.7914V20.7983H64.4551V7.42872ZM61.7402 23.462H58.8843V4.76504H67.3749V23.462H61.7402ZM95.7533 7.42872H93.0896V20.7983H95.7533V7.42872ZM93.0383 23.462H90.1826V4.76504H98.6731V23.462H93.0383ZM103.552 7.42872V12.4487C104.615 12.5128 105.909 12.4487 105.909 10.5406V8.83741V7.42872H103.552ZM103.552 15.1252V20.7983H105.909V17.1614C105.909 15.2533 104.615 15.074 103.552 15.1252ZM108.764 8.05622V10.3485C108.792 10.9838 108.661 11.6159 108.384 12.1882C108.107 12.7604 107.692 13.2548 107.176 13.6269C107.71 14.081 108.131 14.6528 108.407 15.2971C108.682 15.9415 108.805 16.641 108.764 17.3407V23.462H100.696V4.76504H108.764V8.05622ZM50.842 17.2894C51.5847 13.294 52.5581 8.82459 53.0063 4.79066H56.8609V23.5004H54.3637V16.0985L54.6583 9.41367C53.9539 14.1514 52.7609 18.8035 51.0982 23.2955V23.3083H50.5731V23.2955C48.9138 18.8034 47.725 14.1512 47.0258 9.41367L47.3204 16.0985V23.5004H44.8232V4.79066H48.6649C49.1131 8.82461 50.0863 13.2939 50.842 17.2894Z" fill="#EB3333"/>
<path d="M79.1052 29.1095V37.4463C80.1809 37.5103 81.4616 37.3182 81.4616 35.4101V33.7197V29.1095H79.1052ZM84.3301 32.9385V35.2308C84.3301 38.1122 82.8447 40.1228 80.0657 40.1228H79.1052V45.1428H76.2495V26.4458C78.9388 26.4586 81.6409 26.4458 84.3301 26.4458V32.9385ZM85.1113 26.4458H93.9475V29.1094H90.9637V45.1427H88.1078V29.1095H85.1112L85.1113 26.4458ZM71.3959 29.1094H68.7322V42.4791H71.3959V29.1094ZM68.681 45.1427H65.8252V26.4458H74.303V45.1428L68.681 45.1427ZM47.6789 45.1427H44.8232V26.4458H53.3136V33.9502H50.3938V29.1094H47.6789V42.4791H50.3938V37.6383H53.3136V45.1427L47.6789 45.1427ZM58.18 45.1427H55.3243V26.4458H63.8148V45.1428H60.895V29.1095H58.1801L58.18 45.1427Z" fill="#EB3333"/>
<path d="M19.8516 35.4229C20.5645 36.2766 21.3256 37.089 22.1311 37.8561C26.0366 41.5631 30.9115 44.0893 36.1922 45.1428V41.9156C31.7952 40.9027 27.7494 38.7317 24.4745 35.6278C23.4334 34.6382 22.482 33.5583 21.6316 32.4006L19.8516 35.4229Z" fill="#EB3333"/>
<path d="M8.10828 32.0549C9.90999 30.3711 11.3491 28.3374 12.3378 26.0782C13.3265 23.819 13.8438 21.3818 13.8582 18.9158V4.76501H17.175V18.9158C17.1727 21.518 17.57 24.1051 18.3531 26.5867C19.13 24.1037 19.5273 21.5175 19.5313 18.9158V4.76501H22.8481V18.9158C22.863 21.3805 23.3793 23.8165 24.3656 26.0753C25.3519 28.3341 26.7876 30.3686 28.5853 32.0549C30.7542 34.1015 33.3532 35.6372 36.1921 36.5499V39.8538C32.4673 38.8445 29.0492 36.931 26.2417 34.2832C24.1893 32.3427 22.5363 30.0196 21.3754 27.4447C20.6292 29.5478 19.6132 31.5452 18.3531 33.3868H18.3403C17.0894 31.5416 16.0781 29.545 15.3309 27.4447C14.1608 30.0176 12.504 32.3398 10.4518 34.2832C7.649 36.9308 4.23518 38.8444 0.51416 39.8539V36.5499C3.3506 35.6401 5.94611 34.1038 8.10828 32.0549Z" fill="#EB3333"/>
<path d="M28.1498 18.6213C28.1587 20.4171 28.5347 22.1922 29.2548 23.8373C29.975 25.4824 31.024 26.9628 32.3374 28.1875C33.4706 29.2668 34.7727 30.1536 36.1921 30.8128V34.2448C33.8822 33.4135 31.7711 32.1093 29.994 30.4157C28.3741 28.9063 27.0803 27.0811 26.1927 25.0526C25.3052 23.0241 24.8424 20.8354 24.833 18.6213V15.4326H28.1498V18.6213Z" fill="#EB3333"/>
<path d="M8.55641 15.4326H11.8732V18.6213C11.8638 20.8354 11.4011 23.0241 10.5135 25.0526C9.6259 27.0811 8.33231 28.9063 6.71241 30.4157C4.93523 32.1093 2.82409 33.4135 0.51416 34.2448V30.8129C1.93353 30.1537 3.23561 29.2669 4.36881 28.1876C5.68224 26.9629 6.73128 25.4825 7.45142 23.8374C8.17157 22.1923 8.5476 20.4173 8.55641 18.6214V15.4326Z" fill="#EB3333"/>
<path d="M15.062 32.4008C14.2153 33.5614 13.2637 34.6417 12.219 35.6279C8.94901 38.7316 4.90728 40.9027 0.51416 41.9157V45.1429C5.79206 44.0922 10.6635 41.5654 14.5625 37.8562C15.3746 37.0957 16.1361 36.2829 16.842 35.423L15.062 32.4008Z" fill="#EB3333"/>
</svg>
