<svg width="34" height="44" viewBox="0 0 34 44" fill="none" xmlns="http://www.w3.org/2000/svg">
<g clip-path="url(#clip0_583_14041)">
<path d="M14.7598 14.0012L14.3701 14.128L14.7777 14.941C14.779 14.9438 14.7804 14.9451 14.7818 14.9479L14.9039 15.1904L14.9108 15.0705L14.7598 14.0012ZM14.7598 14.0012L14.3701 14.128L14.7777 14.941C14.779 14.9438 14.7804 14.9451 14.7818 14.9479L14.9039 15.1904L14.9108 15.0705L14.7598 14.0012ZM14.7598 14.0012L14.3701 14.128L14.7777 14.941C14.779 14.9438 14.7804 14.9451 14.7818 14.9479L14.9039 15.1904L14.9108 15.0705L14.7598 14.0012ZM14.7598 14.0012L14.3701 14.128L14.7777 14.941C14.779 14.9438 14.7804 14.9451 14.7818 14.9479L14.9039 15.1904L14.9108 15.0705L14.7598 14.0012ZM14.7598 14.0012L14.3701 14.128L14.7777 14.941C14.779 14.9438 14.7804 14.9451 14.7818 14.9479L14.9039 15.1904L14.9108 15.0705L14.7598 14.0012ZM14.7598 14.0012L14.3701 14.128L14.7777 14.941C14.779 14.9438 14.7804 14.9451 14.7818 14.9479L14.9039 15.1904L14.9108 15.0705L14.7598 14.0012ZM14.7598 14.0012L14.3701 14.128L14.7777 14.941C14.779 14.9438 14.7804 14.9451 14.7818 14.9479L14.9039 15.1904L14.9108 15.0705L14.7598 14.0012ZM14.7598 14.0012L14.3701 14.128L14.7777 14.941C14.779 14.9438 14.7804 14.9451 14.7818 14.9479L14.9039 15.1904L14.9108 15.0705L14.7598 14.0012Z" fill="#ED1C24"/>
<path d="M1.54101 43.9587V39.8988H0.789765V43.9587H0.0522461V39.1855H2.27856V43.9587H1.54101Z" fill="#ED1C24"/>
<path d="M4.0803 40.2897C4.03471 40.6189 3.98688 40.947 3.93682 41.2739C3.88675 41.6007 3.83212 41.9333 3.77292 42.2717H4.42165L4.11442 40.2897H4.0803ZM4.72218 43.9587L4.53787 42.9643H3.66371C3.63182 43.1289 3.60108 43.2946 3.57148 43.4615C3.54183 43.6283 3.51337 43.7941 3.4861 43.9587H2.73486C2.89429 43.1587 3.05362 42.3632 3.21284 41.5723C3.37227 40.7812 3.53165 39.9857 3.69097 39.1855H4.51046L5.47342 43.9587H4.72218Z" fill="#ED1C24"/>
<path d="M6.88579 39.8784V43.9588H6.14827V39.8784H5.3833V39.1858H7.65073V39.8784H6.88579Z" fill="#ED1C24"/>
<path d="M8.80345 39.8784V41.4214H9.063C9.29067 41.4214 9.4489 41.3563 9.53771 41.225C9.62651 41.0945 9.67091 40.8982 9.67091 40.6362C9.67091 40.4019 9.62879 40.2171 9.54456 40.0819C9.46023 39.9459 9.30428 39.878 9.07671 39.8784H8.80345ZM9.11769 39.1858C9.55484 39.1858 9.87469 39.3001 10.0772 39.5287C10.2799 39.7573 10.3812 40.1254 10.3812 40.6328C10.3831 40.8379 10.3625 41.0426 10.3196 41.2432C10.2843 41.4135 10.212 41.574 10.1079 41.713C10.0043 41.8459 9.86939 41.9507 9.71531 42.0181C9.55365 42.0912 9.34987 42.1278 9.10398 42.1278H8.80345V43.9589H8.06592V39.1858H9.11769Z" fill="#ED1C24"/>
<path d="M12.5853 40.9688L11.5882 43.9588H10.8779V39.1858H11.5951V42.2101H11.6223L12.6126 39.1858H13.3297V43.9588H12.6059V40.9688H12.5853Z" fill="#ED1C24"/>
<path d="M16.2991 42.7382C16.2991 43.1542 16.2061 43.4685 16.0203 43.6811C15.8336 43.8937 15.5407 44.0001 15.1415 44.0001C14.742 44.0001 14.4514 43.8984 14.2696 43.6949C14.0887 43.4914 13.9981 43.1977 13.9977 42.8136V40.4134C13.9959 40.2398 14.0177 40.0668 14.0625 39.8991C14.1012 39.753 14.1694 39.6164 14.2629 39.4979C14.3585 39.3826 14.4813 39.293 14.6202 39.2373C14.7885 39.1719 14.9679 39.1404 15.1484 39.1447C15.3657 39.1447 15.549 39.1733 15.697 39.2304C15.8348 39.2811 15.957 39.3675 16.051 39.4807C16.1424 39.5978 16.2072 39.7335 16.241 39.8784C16.2817 40.0514 16.3012 40.2288 16.2991 40.4066V42.7382ZM15.5615 40.3516C15.5636 40.2275 15.5342 40.1048 15.4762 39.9951C15.4192 39.8899 15.3111 39.8373 15.1518 39.8373C15.0769 39.8339 15.0028 39.8543 14.9401 39.8956C14.887 39.9327 14.8437 39.9821 14.8137 40.0395C14.7831 40.0999 14.7624 40.1647 14.7523 40.2317C14.7414 40.2962 14.7357 40.3616 14.7352 40.4271V42.8274C14.7335 42.9449 14.7655 43.0603 14.8274 43.16C14.8888 43.2583 14.9946 43.3074 15.1449 43.3074C15.2953 43.3074 15.4022 43.256 15.4659 43.1531C15.5323 43.0401 15.5655 42.9105 15.5615 42.7794V40.3516Z" fill="#ED1C24"/>
<path d="M18.169 39.8784V43.9588H17.4314V39.8784H16.6665V39.1858H18.9339V39.8784H18.169Z" fill="#ED1C24"/>
<path d="M19.5472 43.1289H18.7822V43.9587H19.5472V43.1289Z" fill="#ED1C24"/>
<path d="M21.3163 39.1446C21.4882 39.1408 21.6595 39.1684 21.8217 39.2259C21.9541 39.2748 22.0741 39.3525 22.1733 39.4533C22.2673 39.5518 22.3374 39.6706 22.3782 39.8007C22.4228 39.9434 22.4448 40.0924 22.4431 40.2419L21.726 40.4272C21.726 40.2533 21.6929 40.1116 21.6281 40.002C21.5621 39.8921 21.4574 39.8372 21.3128 39.8372C21.2391 39.834 21.1661 39.8531 21.1034 39.8921C21.05 39.9274 21.0065 39.9758 20.977 40.0328C20.948 40.0916 20.9277 40.1543 20.9168 40.2191C20.9057 40.2813 20.9 40.3445 20.8997 40.4077V42.833C20.9001 42.8836 20.9047 42.9341 20.9134 42.9839C20.9224 43.0388 20.9417 43.0916 20.9703 43.1393C21.0011 43.1886 21.0433 43.2298 21.0932 43.2593C21.1538 43.2936 21.2228 43.3103 21.2923 43.3073C21.5633 43.3073 21.7011 43.1107 21.7056 42.7175C21.8284 42.7404 21.9513 42.7599 22.0744 42.7759C22.1973 42.7919 22.3202 42.8091 22.4431 42.8274C22.4339 43.1885 22.3349 43.4743 22.146 43.6845C21.9571 43.8949 21.6782 44.0001 21.3094 44.0001C20.9179 44.0001 20.6288 43.9006 20.4421 43.7017C20.2554 43.5029 20.1621 43.2114 20.1621 42.8274V40.4477C20.1612 40.2779 20.1806 40.1087 20.2201 39.9436C20.2554 39.7931 20.3217 39.6518 20.4148 39.5287C20.5096 39.4069 20.6327 39.3103 20.7733 39.2476C20.9213 39.1789 21.1023 39.1446 21.3163 39.1446Z" fill="#ED1C24"/>
<path d="M24.4907 43.9587V39.8988H23.7395V43.9587H23.002V39.1855H25.2283V43.9587H24.4907Z" fill="#ED1C24"/>
<path d="M28.225 42.7382C28.225 43.1542 28.1321 43.4685 27.9462 43.6811C27.7595 43.8937 27.4666 44.0001 27.0674 44.0001C26.668 44.0001 26.3773 43.8984 26.1955 43.6949C26.0146 43.4914 25.9239 43.1977 25.9234 42.8136V40.4134C25.9217 40.2398 25.9436 40.0668 25.9884 39.8991C26.0271 39.753 26.0953 39.6165 26.1886 39.4979C26.2844 39.3826 26.4072 39.293 26.5461 39.2373C26.7144 39.1718 26.8939 39.1404 27.0743 39.1447C27.2917 39.1447 27.4749 39.1733 27.6229 39.2304C27.7608 39.2811 27.8829 39.3675 27.9769 39.4807C28.0683 39.5978 28.1332 39.7335 28.1669 39.8784C28.2076 40.0514 28.2271 40.2288 28.225 40.4066L28.225 42.7382ZM27.4875 40.3517C27.4895 40.2275 27.4601 40.1048 27.4021 39.9951C27.3452 39.8899 27.237 39.8373 27.0777 39.8373C27.0028 39.8339 26.9287 39.8543 26.866 39.8956C26.813 39.9327 26.7696 39.9821 26.7396 40.0395C26.709 40.0999 26.6883 40.1647 26.6781 40.2317C26.6673 40.2962 26.6616 40.3616 26.6611 40.4271V42.8274C26.6594 42.9449 26.6914 43.0603 26.7533 43.16C26.8147 43.2583 26.9206 43.3074 27.0709 43.3074C27.2212 43.3074 27.3282 43.256 27.3918 43.1531C27.4582 43.0401 27.4914 42.9105 27.4875 42.7794L27.4875 40.3517Z" fill="#ED1C24"/>
<path d="M29.6644 39.8784V41.4214H29.9238C30.1515 41.4214 30.3097 41.3563 30.3985 41.225C30.4873 41.0945 30.5317 40.8982 30.5317 40.6362C30.5317 40.4019 30.4896 40.2171 30.4054 40.0819C30.3211 39.9459 30.1651 39.878 29.9375 39.8784H29.6644ZM29.9785 39.1858C30.4157 39.1858 30.7355 39.3001 30.9381 39.5287C31.1407 39.7573 31.242 40.1254 31.242 40.6328C31.2439 40.8379 31.2233 41.0426 31.1805 41.2432C31.1452 41.4135 31.0729 41.574 30.9688 41.713C30.8652 41.8459 30.7302 41.9507 30.5761 42.0181C30.4145 42.0912 30.2107 42.1278 29.9648 42.1278H29.6644V43.9589H28.9268V39.1858H29.9785Z" fill="#ED1C24"/>
<path d="M32.9341 39.8784V43.9588H32.1966V39.8784H31.4316V39.1858H33.6991V39.8784H32.9341Z" fill="#ED1C24"/>
<path d="M8.27436 37.499L8.50722 35.9495H8.98225V38.1319H8.65936V36.5668L8.4234 38.1319H8.1005L7.84591 36.5886V38.1319H7.54785V35.9495H8.02288L8.27436 37.499Z" fill="#ED1C24"/>
<path d="M9.20264 36.4733C9.20264 36.2987 9.24714 36.1636 9.33614 36.068C9.42511 35.9724 9.55344 35.9246 9.72113 35.9246C9.88878 35.9246 10.0171 35.9724 10.1061 36.068C10.1951 36.1636 10.2396 36.2987 10.2396 36.4733V37.6081C10.2396 37.7827 10.1951 37.9178 10.1061 38.0135C10.0171 38.1091 9.88877 38.1569 9.72113 38.1569C9.55347 38.1569 9.42514 38.1091 9.33614 38.0135C9.24712 37.9179 9.20262 37.7828 9.20264 37.6081V36.4733ZM9.54416 37.63C9.54416 37.7734 9.60315 37.8451 9.72113 37.8451C9.83911 37.8451 9.8981 37.7734 9.8981 37.63V36.4515C9.8981 36.3081 9.83911 36.2363 9.72113 36.2363C9.60315 36.2363 9.54416 36.308 9.54416 36.4515V37.63Z" fill="#ED1C24"/>
<path d="M11.4505 37.3182V37.6081C11.4505 37.974 11.2808 38.1569 10.9413 38.1569C10.6018 38.1569 10.4321 37.974 10.4321 37.6081V36.4733C10.4321 36.1075 10.6019 35.9246 10.9413 35.9246C11.2807 35.9246 11.4505 36.1075 11.4505 36.4733V36.6853H11.1276V36.4515C11.1276 36.3081 11.0686 36.2363 10.9506 36.2363C10.8326 36.2363 10.7737 36.308 10.7736 36.4515V37.63C10.7736 37.7713 10.8326 37.842 10.9506 37.842C11.0686 37.842 11.1276 37.7713 11.1276 37.63V37.3182H11.4505Z" fill="#ED1C24"/>
<path d="M12.1058 37.262L12.0002 37.4616V38.1319H11.6587V35.9495H12.0002V36.9004L12.4473 35.9495H12.7888L12.3138 36.9222L12.7888 38.1319H12.438L12.1058 37.262Z" fill="#ED1C24"/>
<path d="M12.916 36.4733C12.916 36.2987 12.9605 36.1636 13.0495 36.068C13.1385 35.9724 13.2668 35.9246 13.4345 35.9246C13.6022 35.9246 13.7305 35.9724 13.8195 36.068C13.9085 36.1636 13.953 36.2987 13.953 36.4733V37.6081C13.953 37.7827 13.9085 37.9178 13.8195 38.0135C13.7305 38.1091 13.6022 38.1569 13.4345 38.1569C13.2668 38.1569 13.1385 38.1091 13.0495 38.0135C12.9605 37.9179 12.916 37.7828 12.916 37.6081V36.4733ZM13.2575 37.63C13.2575 37.7734 13.3165 37.8451 13.4345 37.8451C13.5525 37.8451 13.6115 37.7734 13.6115 37.63V36.4515C13.6115 36.3081 13.5525 36.2363 13.4345 36.2363C13.3165 36.2363 13.2575 36.308 13.2575 36.4515V37.63Z" fill="#ED1C24"/>
<path d="M14.6887 35.9495C15.0261 35.9495 15.1948 36.1168 15.1948 36.4514V36.5294C15.1948 36.7538 15.1213 36.9004 14.9744 36.969C15.1441 37.0355 15.2289 37.1914 15.229 37.4366V37.6143C15.229 37.9594 15.0561 38.1319 14.7105 38.1319H14.1733V35.9495H14.6887ZM14.5149 36.2612V36.838H14.6484C14.785 36.838 14.8533 36.7611 14.8533 36.6073V36.4857C14.8533 36.3361 14.7953 36.2612 14.6794 36.2612H14.5149ZM14.5149 37.1498V37.8201H14.7105C14.8285 37.8201 14.8874 37.7484 14.8874 37.605V37.4148C14.8874 37.315 14.8698 37.2454 14.8347 37.2059C14.8015 37.1685 14.7456 37.1498 14.667 37.1498H14.5149Z" fill="#ED1C24"/>
<path d="M16.4241 37.3182V37.6081C16.4241 37.974 16.2544 38.1569 15.9149 38.1569C15.5755 38.1569 15.4057 37.974 15.4058 37.6081V36.4733C15.4058 36.1075 15.5755 35.9246 15.9149 35.9246C16.2544 35.9246 16.4241 36.1075 16.4241 36.4733V36.6853H16.1012V36.4515C16.1012 36.3081 16.0422 36.2363 15.9243 36.2363C15.8063 36.2363 15.7473 36.308 15.7473 36.4515V37.63C15.7473 37.7713 15.8063 37.842 15.9243 37.842C16.0422 37.842 16.1012 37.7713 16.1012 37.63V37.3182H16.4241Z" fill="#ED1C24"/>
<path d="M17.0794 37.262L16.9739 37.4616V38.1319H16.6323V35.9495H16.9739V36.9004L17.4209 35.9495H17.7625L17.2874 36.9222L17.7625 38.1319H17.4116L17.0794 37.262Z" fill="#ED1C24"/>
<path d="M18.2683 38.1319H17.9175V35.9495H18.2218V37.3306L18.346 36.8505L18.6254 35.9495H19.0011V38.1319H18.6937V36.5948L18.554 37.1311L18.2683 38.1319Z" fill="#ED1C24"/>
<path d="M19.594 38.1319H19.2432V35.9495H19.5474V37.3307L19.6716 36.8505L19.9511 35.9495H20.3267V38.1319H20.0194V36.5949L19.8796 37.1311L19.594 38.1319ZM19.9448 35.4631C19.9366 35.5588 19.8848 35.6066 19.7896 35.6066C19.7006 35.6066 19.6519 35.5587 19.6437 35.4631H19.4326C19.4388 35.6938 19.5578 35.8092 19.7896 35.8092C20.0318 35.8092 20.1529 35.6938 20.1529 35.4631H19.9448Z" fill="#ED1C24"/>
<path d="M21.0566 35.9495H21.3982V37.8201H21.7863V35.9495H22.134V37.8264H22.283V38.425H21.9508V38.1319H21.0566V35.9495Z" fill="#ED1C24"/>
<path d="M22.8108 36.8692H23.2796V37.181H22.8108V37.8201H23.4007V38.1319H22.4692V35.9495H23.4007V36.2612H22.8108V36.8692Z" fill="#ED1C24"/>
<path d="M23.9533 38.1319H23.6118V35.9495H23.9533V36.8848H24.3414V35.9495H24.6892V38.1319H24.3414V37.1966H23.9533V38.1319Z" fill="#ED1C24"/>
<path d="M24.8379 35.9495H25.8935V36.2612H25.5365V38.1319H25.1949V36.2612H24.8379V35.9495Z" fill="#ED1C24"/>
<path d="M26.5455 35.9495C26.8849 35.9495 27.0546 36.1293 27.0546 36.4888V36.7726C27.0546 37.1322 26.8849 37.312 26.5455 37.3119H26.384V38.1319H26.0425V35.9495H26.5455ZM26.384 36.2612V37.0001H26.5455C26.6572 37.0001 26.7131 36.9316 26.7131 36.7944V36.467C26.7131 36.3298 26.6572 36.2612 26.5455 36.2612H26.384Z" fill="#ED1C24"/>
<path d="M27.7696 11.8049H27.7586L23.3908 11.6519L23.432 11.4783C23.4569 11.3728 23.4468 11.2619 23.4032 11.1627L23.2934 10.905C23.2852 10.8857 23.2756 10.8678 23.266 10.8499L23.1329 10.6212C23.124 10.6064 23.1144 10.5922 23.1041 10.5785L23.0739 10.5371C23.0725 10.5345 23.0706 10.5322 23.0684 10.5303L22.9902 10.4228C22.9472 10.3639 22.8922 10.3151 22.8287 10.2797C22.7652 10.2442 22.6948 10.223 22.6224 10.2174L22.5291 10.2106C22.4409 10.1426 22.3329 10.1057 22.2217 10.1059H22.0776C22.0059 10.0295 21.9124 9.97723 21.81 9.95626C21.7076 9.93529 21.6012 9.94663 21.5054 9.98873L21.5013 9.99007L17.8828 0L27.7696 11.8049Z" fill="#ED1C24"/>
<path d="M17.8829 0L14.8819 8.33795L14.768 8.65351L14.6609 8.94834L14.547 9.26531L14.4414 9.5602L14.3275 9.8771L14.2218 10.172L14.1066 10.4889L14.0009 10.7838L13.887 11.1007L13.7813 11.3956V11.3969L13.7127 11.4466C13.7114 11.4479 13.7086 11.4479 13.7072 11.4494L13.6112 11.5183L12.2733 9.63045L12.0126 9.27082L9.42871 5.81083L17.8829 0Z" fill="#ED1C24"/>
<path d="M11.107 19.6551L10.7818 20.7877L10.7255 20.9875L10.672 21.1736L10.6144 21.3733L10.5609 21.5594L10.5032 21.7592L10.4497 21.9438L10.3935 22.1436L10.34 22.3297L10.2823 22.5294L10.2288 22.7155L10.1712 22.9139L10.119 23.0999L10.0614 23.2998L10.0079 23.4857L9.95436 23.6704C9.93651 23.6759 9.91731 23.6828 9.89946 23.6897L9.636 23.8055L9.25456 23.8234H9.24766L7.63532 23.9225V20.478L4.00172 21.8309L1.19092 11.9504L11.107 19.6551Z" fill="#ED1C24"/>
<path d="M26.4618 18.2449L26.4571 18.2484L26.2946 18.3757L26.1428 18.4946L25.9803 18.622L25.8282 18.7408L25.666 18.8682L25.5139 18.9871L25.3514 19.1141L25.2 19.2329L25.0371 19.3603L24.8854 19.4792L24.7232 19.6062L24.5711 19.7254L24.5684 19.7274L24.6576 20.0273L24.7418 20.3114L24.8326 20.6168L24.9168 20.9009L25.0076 21.2059L25.0918 21.4899L25.1826 21.7954L25.2668 22.0795L25.3572 22.3841L25.4417 22.6685L25.5322 22.9732L25.6168 23.2581L25.7071 23.5627L25.7917 23.8475L25.8825 24.1523L28.0243 31.3656L28.0409 31.4213L28.0351 31.3726L28.032 31.3453L26.4626 18.2523L26.4618 18.2449Z" fill="#ED1C24"/>
<path d="M27.0268 32.5145L27.235 32.2531L27.0937 31.9988L27.0086 31.9665L26.7329 31.9858L25.6467 31.8401L25.5826 31.7978L23.9502 30.7211L23.2283 27.5295L23.2269 27.5234L22.8612 25.9067L22.7407 24.8963L22.7097 24.6353L22.672 23.683L22.6308 23.6341H22.6309L20.0546 20.5714L19.5179 19.9337L19.2025 19.6596L19.2024 19.6597L18.3377 18.9084L18.3499 18.865L18.5837 18.0378L18.5858 18.0303L18.895 16.936L18.8961 16.9319L18.8961 16.9318L19.0191 16.496L19.4637 14.9644L19.4637 14.9645L19.4711 14.939L20.6936 15.692L20.6977 15.6731L20.7437 15.6239L21.1268 15.0973L21.1267 15.0972L21.6333 14.4002L21.6721 14.3051L22.1648 13.0997L22.4124 12.6276L22.4813 12.3477L22.8694 11.6664L22.9408 11.3625L22.8307 11.1059L22.6974 10.8775L22.6676 10.8365L22.6675 10.8366L22.5842 10.7228L22.2872 10.7L22.2214 10.6117L21.8589 10.6135L21.7092 10.4518L21.3435 10.6143L21.2738 11.3877L21.2737 11.3897L21.3492 11.624L21.3462 11.8299L21.3618 11.8491L21.3458 11.8513L21.335 12.566L20.6096 13.418L20.5676 12.8806L20.189 12.2997L20.1813 12.288L20.1781 12.2831L20.029 12.0553L20.0291 12.0552L19.9928 11.9999L19.9396 11.5518L19.6306 10.6507L19.3282 10.2395H19.3283L19.3048 10.2075L18.9227 9.93049L18.9871 9.79509L19.1989 9.65753L19.7748 9.36012L19.7692 9.33132H19.7692L19.6821 8.88204L19.6069 8.65791L19.6986 8.49784L19.6783 8.26934L19.9958 8.03017L19.9367 7.95702L19.7942 7.93185L19.8597 7.89127L19.8661 7.88729L19.8677 7.88632L19.8947 7.90525L19.8755 7.88149L19.8513 7.85151L19.8512 7.85145L19.5489 7.47759L19.4892 7.40822L19.4216 6.90385L19.4213 6.90136L19.0554 6.40629L19.0533 6.40348L17.3286 5.97583L17.2651 6.04995L16.2797 7.0418L16.2616 7.03722L16.2606 7.03607L16.2607 7.03699L16.2463 7.03332L16.2867 7.30877L16.3687 8.1653L16.7888 8.9363L16.7398 9.62623L16.6668 9.73614L16.4631 9.95321L16.361 10.0244L16.3978 10.0168L16.446 10.0688L16.4457 10.0691L16.3878 10.0661L16.3165 10.0623L16.2223 10.1207L16.1288 10.1857L15.9235 10.3146L15.7377 10.5852L15.2298 10.783L15.1976 10.8196L15.1974 10.8193L15.0716 10.9674L15.0715 10.9676L14.6906 11.416L14.3449 11.6123L14.0078 11.8569L14.0077 11.857L12.2295 13.1473L12.2315 13.1471L12.0125 13.305L12.0004 13.3171L11.7974 13.8717L12.2707 14.5778L12.2706 14.5779L12.3006 14.6225L13.1575 15.9002L14.0197 16.8641L14.0197 16.864L14.5036 17.405L14.5543 17.7783L14.5687 17.8498L14.5687 17.8499L14.6131 18.0713L14.2975 18.7715H14.2976L14.2835 18.8029L14.2835 18.803L14.0802 19.254L14.1774 20.9202L14.119 21.0419L12.8557 23.6769L12.7896 23.9246L12.7907 23.9232L12.6767 24.3481L12.5753 24.4936L12.5687 24.4961L12.5705 24.5005L12.5556 24.5218L12.5557 24.5218L12.4729 24.6404L12.3567 24.5966L12.3567 24.5966L11.4197 24.2429L10.1865 24.161L10.1866 24.161L10.1476 24.1585L10.1431 24.1582L10.0998 24.1553L9.75152 24.3062L9.27837 24.3289L7.04209 24.4652L6.6104 24.2842L6.35817 23.9795L6.07638 23.6374L6.07629 23.6374L5.99707 23.541L5.47457 23.4902L4.28743 24.475L4.27197 24.4883L4.27149 24.4881L4.19657 24.5506L3.24124 25.0711L2.75873 25.9379L2.75879 25.938L2.33496 26.699L2.87831 26.916L4.02523 26.201L5.50848 25.9258L5.95409 26.1614L5.96782 25.9127L5.96189 25.9152L5.96964 25.8788L5.9733 25.8127L6.25575 25.8129L6.25591 25.8128L7.94971 25.8138L8.66275 25.9638L8.66269 25.9638L10.5261 26.3557L12.3821 26.5839L12.9309 26.6297L12.9309 26.6296L13.4734 26.6747L13.4805 26.6918L13.4865 26.6758L13.4951 26.6765L13.4951 26.6765L13.6502 26.6894L15.0971 25.195L15.6401 24.3953L16.1068 23.7078H16.1069L16.761 22.7441L17.0147 22.2265L18.209 23.1822L19.01 23.675H19.01L19.87 24.2043L19.87 24.2042L20.5767 24.639L20.8796 25.0567L20.891 25.2354L20.8911 25.2356L20.9362 25.9403L20.9362 25.9403L21.0075 27.0558L21.0076 27.0558L21.035 27.4813L21.7334 28.8114L22.2345 30.1433L22.4758 31.3907L22.4962 32.3261H22.4961L22.4964 32.3392V32.3456H22.4965L22.5066 32.809L22.6941 32.8611L22.6941 32.8611L23.4045 33.0585L23.4043 33.0586L23.5109 33.0881L24.6553 33.0719L25.5109 33.0866L25.5121 33.0866L26.1918 32.9148L26.9944 32.5535L27.012 32.5324L27.0126 32.5324L27.0232 32.5191L27.027 32.5145H27.0268ZM14.7147 15.9396L14.7026 15.9155L14.3278 15.1686L14.3278 15.1684L13.6552 13.828L14.6121 13.5172L15.1758 13.3342L15.4171 15.0492L15.347 16.2822L15.3466 16.2883L15.3134 16.871L15.2297 16.8033L15.1566 16.7078L15.002 16.5126L14.7179 15.9459L14.7147 15.9396Z" fill="#ED1C24"/>
</g>
<defs>
<clipPath id="clip0_583_14041">
<rect width="33.6471" height="44" fill="white" transform="translate(0.0522461)"/>
</clipPath>
</defs>
</svg>
