<svg width="479" height="542" viewBox="0 0 479 542" fill="none" xmlns="http://www.w3.org/2000/svg">
<path d="M101.982 366.249C149.559 321.002 179.101 258.607 179.101 189.997V0H223.608V189.997C223.608 223.405 229.176 262.566 239.406 292.903V384.248L239.313 384.1C223.294 362.586 210.474 334.339 198.876 304.483C183.182 338.975 160.965 370.107 133.447 396.161C95.8622 431.769 49.999 457.453 0 470.894V426.572C38.0952 414.384 72.953 393.765 101.982 366.249Z" fill="url(#paint0_linear_614_21822)"/>
<path d="M107.957 143.218H152.464V186.042C152.464 247.716 125.937 303.747 83.2057 344.37C59.3138 367.04 30.9827 384.512 0 395.684V349.605C19.0489 340.781 36.5312 328.909 51.7584 314.458C86.4243 281.494 107.957 236.025 107.957 186.042V143.218Z" fill="url(#paint1_linear_614_21822)"/>
<path d="M195.343 371.001C183.923 386.538 171.153 401.036 157.181 414.324C113.239 455.93 58.971 485.028 0 498.603V542C70.8118 527.764 136.187 493.884 188.646 444.236C199.49 433.934 209.695 422.982 219.206 411.438L195.343 371.001Z" fill="url(#paint2_linear_614_21822)"/>
<path d="M376.613 366.249C329.035 321.002 299.493 258.607 299.493 189.997V0H254.986V189.997C254.986 223.405 249.418 262.566 239.188 292.903V384.248L239.281 384.1C255.301 362.586 268.12 334.339 279.718 304.483C295.412 338.975 317.63 370.107 345.147 396.161C382.732 431.769 428.595 457.453 478.594 470.894V426.572C440.499 414.384 405.641 393.765 376.613 366.249Z" fill="url(#paint3_linear_614_21822)"/>
<path d="M370.64 143.218H326.133V186.042C326.133 247.716 352.659 303.747 395.391 344.37C419.283 367.04 447.614 384.512 478.596 395.684V349.605C459.547 340.781 442.065 328.909 426.838 314.458C392.172 281.494 370.64 236.025 370.64 186.042V143.218Z" fill="url(#paint4_linear_614_21822)"/>
<path d="M283.255 371.001C294.674 386.538 307.444 401.036 321.417 414.324C365.358 455.93 419.626 485.028 478.597 498.603V542C407.786 527.764 342.411 493.884 289.951 444.236C279.108 433.934 268.902 422.982 259.392 411.438L283.255 371.001Z" fill="url(#paint5_linear_614_21822)"/>
<defs>
<linearGradient id="paint0_linear_614_21822" x1="-68.3977" y1="352.426" x2="303.212" y2="137.877" gradientUnits="userSpaceOnUse">
<stop stop-color="#FFD324"/>
<stop offset="1" stop-color="#FF6373"/>
</linearGradient>
<linearGradient id="paint1_linear_614_21822" x1="-40.2307" y1="326.003" x2="183.438" y2="196.867" gradientUnits="userSpaceOnUse">
<stop stop-color="#FFD324"/>
<stop offset="1" stop-color="#FF6373"/>
</linearGradient>
<linearGradient id="paint2_linear_614_21822" x1="-7.55913" y1="528.907" x2="213.38" y2="401.348" gradientUnits="userSpaceOnUse">
<stop stop-color="#FFD324"/>
<stop offset="1" stop-color="#FF6373"/>
</linearGradient>
<linearGradient id="paint3_linear_614_21822" x1="451.918" y1="88.0022" x2="270.457" y2="402.301" gradientUnits="userSpaceOnUse">
<stop stop-color="#FFD324"/>
<stop offset="1" stop-color="#FF6373"/>
</linearGradient>
<linearGradient id="paint4_linear_614_21822" x1="449.094" y1="188.514" x2="364.892" y2="334.356" gradientUnits="userSpaceOnUse">
<stop stop-color="#FFD324"/>
<stop offset="1" stop-color="#FF6373"/>
</linearGradient>
<linearGradient id="paint5_linear_614_21822" x1="393.337" y1="434.557" x2="358.037" y2="495.698" gradientUnits="userSpaceOnUse">
<stop stop-color="#FFD324"/>
<stop offset="1" stop-color="#FF6373"/>
</linearGradient>
</defs>
</svg>
