<svg width="143" height="42" viewBox="0 0 143 42" fill="none" xmlns="http://www.w3.org/2000/svg">
<path d="M33.8591 32.2304V33.5239C35.2438 33.4382 36.5444 32.8299 37.4977 31.8219C38.451 30.8139 38.9859 29.4814 38.9943 28.0941V23.2533H37.701V28.0941C37.7005 29.141 37.3043 30.149 36.5918 30.9161C35.8793 31.6832 34.9031 32.1527 33.8591 32.2304ZM33.5518 33.844V31.9358H33.6927C34.6877 31.9014 35.6302 31.4812 36.321 30.7642C37.0117 30.0472 37.3963 29.0896 37.3935 28.094V22.946H39.3018V28.0941C39.2984 29.5904 38.7119 31.0265 37.6671 32.0976C36.6223 33.1688 35.2012 33.7906 33.7054 33.8312L33.5518 33.844ZM49.06 23.2533V28.0941C49.0683 29.4815 49.6033 30.8139 50.5567 31.8219C51.51 32.8299 52.8105 33.4382 54.1953 33.5239V32.2305C53.1769 32.1538 52.2232 31.7021 51.5187 30.9627C50.7676 30.1973 50.3488 29.1665 50.3534 28.0941V23.2533H49.06ZM54.5026 33.844L54.3489 33.8312C52.8532 33.7906 51.432 33.1688 50.3871 32.0977C49.3423 31.0265 48.756 29.5904 48.7526 28.0941V22.946H50.6608V28.0941C50.6557 29.087 51.0382 30.0427 51.727 30.7578C52.4158 31.473 53.3565 31.891 54.3489 31.9231L54.5026 31.9359V33.844ZM45.9994 31.6926L46.3194 32.3201C47.07 33.7738 48.1992 34.998 49.5876 35.8636C50.9761 36.7291 52.5723 37.2038 54.208 37.2376L54.1953 35.9442C52.1631 35.8858 50.2332 35.0394 48.8136 33.584C47.3941 32.1287 46.5962 30.1783 46.5884 28.1453V16.7094H45.2182V28.0045C45.2197 29.5527 44.9105 31.0856 44.3089 32.5122L44.0271 33.1781L43.7453 32.5122C43.1437 31.0856 42.8345 29.5527 42.8361 28.0045V16.7094H41.4531V28.1453C41.4511 30.1779 40.6568 32.1296 39.2388 33.5859C37.8208 35.0421 35.8908 35.8882 33.859 35.9442V37.2377C35.4944 37.2027 37.09 36.726 38.4765 35.858C39.863 34.9901 40.9889 33.7631 41.7348 32.3073L42.0549 31.6926L42.2983 32.3457C42.5703 33.1165 42.9177 33.8586 43.3354 34.5612V34.574C43.5456 34.9452 43.7765 35.3044 44.0271 35.6497C44.2864 35.3105 44.5177 34.9507 44.7186 34.574L44.7313 34.5612C45.1436 33.8601 45.4908 33.1228 45.7686 32.3585L45.9994 31.6926ZM54.5154 37.545H54.3617C52.6442 37.5371 50.9617 37.0591 49.4966 36.1629C48.0315 35.2667 46.8398 33.9864 46.0506 32.461C45.7696 33.2447 45.4136 33.9995 44.9877 34.7149V34.7277C44.7476 35.1737 44.469 35.5979 44.1552 35.9955L44.0272 36.1364L43.912 35.9955C43.5952 35.5928 43.3125 35.1644 43.0667 34.7149C42.6455 33.9925 42.2898 33.2339 42.0038 32.4482C41.218 33.9747 40.0291 35.2567 38.5662 36.1553C37.1033 37.0538 35.4221 37.5344 33.7053 37.545H33.5518V35.6497L33.7055 35.6369C35.6843 35.622 37.5771 34.8267 38.9728 33.4239C40.3684 32.0211 41.154 30.1241 41.1587 28.1453V16.4021H43.1309V28.0044C43.1327 29.5139 43.4375 31.0076 44.0273 32.397C44.6131 31.0067 44.9135 29.513 44.9108 28.0044V16.4021H46.8959V28.1453C46.9001 30.1254 47.6851 32.024 49.0805 33.4289C50.4758 34.8339 52.3689 35.6319 54.3489 35.6497H54.5027L54.5154 37.545ZM33.8591 39.6708V40.9642C36.9265 40.8903 39.8677 39.7283 42.1575 37.6858C41.9782 37.4426 41.6836 37.0327 41.4147 36.6229C39.3434 38.5124 36.6617 39.5941 33.8591 39.6708ZM33.5518 41.2716V39.3762L33.7054 39.3634C36.547 39.3302 39.2719 38.2284 41.3379 36.2771L41.466 36.1491L41.5684 36.3027C41.9013 36.8278 42.3239 37.3913 42.4904 37.609L42.5672 37.7242L42.4648 37.8139C40.067 40.0003 36.9502 41.2307 33.7054 41.2715L33.5518 41.2716ZM45.8841 37.6858C48.1787 39.7286 51.124 40.8904 54.1953 40.9642V39.6708C51.3922 39.5965 48.7096 38.5144 46.6395 36.6229C46.3834 36.9943 46.0889 37.4041 45.8841 37.6858ZM54.5026 41.2716H54.3489C51.0999 41.2332 47.9781 40.0027 45.5767 37.8139L45.4743 37.7243L45.5639 37.609C45.7816 37.3145 46.1787 36.7638 46.4732 36.3028L46.5756 36.1491L46.7165 36.2772C48.7825 38.2284 51.5074 39.3302 54.3489 39.3634L54.5026 39.3763V41.2716Z" fill="white"/>
<path d="M76.606 12.5994H74.2505V10.8947H74.9295L75.5052 0.726654H79.8452V12.5994H78.0654V2.43146H77.1817L76.606 12.5994Z" fill="white"/>
<path d="M81.1406 0.726654H85.5455V2.43146H82.9204V5.31198H85.4685V7.00259H82.9204V10.8947H85.5455V12.5994H81.1406V0.726654Z" fill="white"/>
<path d="M86.3765 0.726654H91.5516V2.43146H89.8611V12.5994H88.0813V2.43146H86.3765V0.726654Z" fill="white"/>
<path d="M79.7943 15.3016H81.9714V27.1602H80.1916V22.0762L80.4735 18.6808H80.3964L79.1538 24.7905H77.4895L76.2084 18.6808H76.1313L76.4517 22.0762V27.1602H74.6719V15.3016H76.8368L78.2842 22.0762H78.3348L79.7943 15.3016Z" fill="white"/>
<path d="M86.8131 16.9912H85.0331V25.4945H86.8131V16.9912ZM84.0471 27.1977C83.9429 27.2038 83.8385 27.1877 83.741 27.1506C83.6435 27.1135 83.555 27.0562 83.4812 26.9824C83.4074 26.9086 83.35 26.82 83.3129 26.7225C83.2758 26.625 83.2598 26.5207 83.2659 26.4165V16.082C83.2598 15.9778 83.2758 15.8735 83.3129 15.776C83.35 15.6785 83.4074 15.5899 83.4812 15.5161C83.555 15.4423 83.6435 15.385 83.741 15.3479C83.8385 15.3107 83.9429 15.2947 84.0471 15.3008H87.8121C87.9162 15.2947 88.0205 15.3108 88.118 15.3479C88.2156 15.385 88.3042 15.4423 88.378 15.5161C88.4518 15.5899 88.509 15.6785 88.5461 15.776C88.5832 15.8735 88.5993 15.9778 88.5933 16.082V26.4165C88.5993 26.5207 88.5832 26.625 88.5461 26.7225C88.509 26.82 88.4518 26.9086 88.378 26.9824C88.3042 27.0562 88.2156 27.1135 88.118 27.1506C88.0205 27.1877 87.9162 27.2038 87.8121 27.1977H84.0471Z" fill="white"/>
<path d="M90.6677 27.1592C90.5635 27.1653 90.4593 27.1493 90.3617 27.1122C90.2642 27.0751 90.1756 27.0177 90.1018 26.9439C90.028 26.8701 89.9706 26.7816 89.9335 26.684C89.8964 26.5865 89.8804 26.4822 89.8865 26.378V16.0691C89.8818 15.9659 89.8989 15.8628 89.9366 15.7666C89.9744 15.6703 90.0319 15.5832 90.1056 15.5107C90.1793 15.4382 90.2675 15.3821 90.3643 15.3459C90.4612 15.3098 90.5646 15.2944 90.6677 15.3008H95.0602V18.6817H93.2673V16.9912H91.6665V25.4689H93.2673V23.2662H95.0602V27.1592H90.6677Z" fill="white"/>
<path d="M101.937 27.1602H100.054L98.4792 21.5633H98.019V27.1602H96.2393V15.3016H98.019V19.8727H98.5319L100.054 15.3016H101.937L100.107 20.718L101.937 27.1602Z" fill="white"/>
<path d="M106.33 16.9912H104.549V25.4945H106.33V16.9912ZM103.551 27.1977C103.447 27.2035 103.343 27.1872 103.247 27.1499C103.15 27.1125 103.062 27.0549 102.99 26.981C102.917 26.907 102.861 26.8185 102.825 26.7211C102.789 26.6238 102.775 26.52 102.782 26.4165V16.082C102.775 15.9786 102.789 15.8747 102.825 15.7774C102.861 15.6801 102.917 15.5915 102.99 15.5175C103.062 15.4436 103.15 15.386 103.247 15.3487C103.343 15.3113 103.447 15.295 103.551 15.3008H107.328C107.432 15.295 107.536 15.3113 107.632 15.3487C107.729 15.3861 107.817 15.4436 107.889 15.5176C107.962 15.5915 108.018 15.6801 108.054 15.7774C108.09 15.8747 108.104 15.9786 108.097 16.082V26.4165C108.104 26.52 108.09 26.6238 108.054 26.7211C108.018 26.8185 107.962 26.907 107.889 26.981C107.817 27.0549 107.729 27.1125 107.632 27.1499C107.536 27.1872 107.432 27.2035 107.328 27.1977H103.551Z" fill="white"/>
<path d="M111.171 25.4688H112.784V21.5629H111.171V25.4688ZM112.784 16.9911H111.183V19.8725H112.784V16.9911ZM114.564 19.3987C114.58 19.6847 114.503 19.9682 114.343 20.2061C114.184 20.4441 113.951 20.6237 113.681 20.7177C113.954 20.8079 114.189 20.9866 114.349 21.2256C114.509 21.4645 114.585 21.7499 114.564 22.0367V26.378C114.57 26.4822 114.554 26.5865 114.517 26.684C114.48 26.7815 114.423 26.8701 114.349 26.9439C114.275 27.0177 114.187 27.075 114.089 27.1121C113.992 27.1493 113.887 27.1653 113.783 27.1592H109.391V15.3007H113.783C113.886 15.2943 113.99 15.3096 114.086 15.3458C114.183 15.382 114.271 15.4381 114.345 15.5106C114.419 15.583 114.476 15.6702 114.514 15.7664C114.552 15.8627 114.569 15.9657 114.564 16.069V19.3987Z" fill="white"/>
<path d="M116.638 27.1592C116.534 27.1653 116.429 27.1493 116.332 27.1122C116.234 27.0751 116.146 27.0177 116.072 26.9439C115.998 26.8701 115.941 26.7816 115.904 26.684C115.867 26.5865 115.851 26.4822 115.857 26.378V16.0691C115.852 15.9659 115.869 15.8628 115.907 15.7666C115.945 15.6703 116.002 15.5832 116.076 15.5107C116.15 15.4382 116.238 15.3821 116.335 15.3459C116.431 15.3098 116.535 15.2944 116.638 15.3008H121.03V18.6817H119.25V16.9912H117.637V25.4689H119.25V23.2662H121.03V27.1592H116.638Z" fill="white"/>
<path d="M127.921 27.1602H126.025L124.462 21.5633H124.002V27.1602H122.21V15.3016H124.002V19.8727H124.515L126.025 15.3016H127.921L126.076 20.718L127.921 27.1602Z" fill="white"/>
<path d="M132.326 16.9912H130.546V25.4945H132.326V16.9912ZM129.534 27.1977C129.43 27.2038 129.326 27.1877 129.228 27.1506C129.131 27.1135 129.042 27.0562 128.968 26.9824C128.895 26.9086 128.837 26.82 128.8 26.7225C128.763 26.625 128.747 26.5207 128.753 26.4165V16.082C128.747 15.9778 128.763 15.8735 128.8 15.776C128.837 15.6785 128.895 15.5899 128.968 15.5161C129.042 15.4423 129.131 15.385 129.228 15.3479C129.326 15.3108 129.43 15.2947 129.534 15.3008H133.338C133.442 15.2947 133.546 15.3107 133.644 15.3479C133.741 15.385 133.83 15.4423 133.904 15.5161C133.977 15.5899 134.035 15.6784 134.072 15.776C134.109 15.8735 134.125 15.9778 134.119 16.082V26.4165C134.125 26.5207 134.109 26.625 134.072 26.7225C134.035 26.82 133.977 26.9086 133.904 26.9824C133.83 27.0562 133.741 27.1135 133.644 27.1506C133.546 27.1877 133.442 27.2038 133.338 27.1977H129.534Z" fill="white"/>
<path d="M140.497 15.3016H142.674V27.1602H140.894V22.0762L141.176 18.6808H141.099L139.856 24.7905H138.192L136.923 18.6808H136.834L137.154 22.0762V27.1602H135.374V15.3016H137.551L138.984 22.0762H139.037L140.497 15.3016Z" fill="white"/>
<path d="M22.1052 27.1602H19.6847V25.4696H20.6071L20.9659 23.2661H19.6847L17.9941 15.3016H19.8266L21.1443 21.5633H21.2355L22.2713 15.3016H24.0511L22.1052 27.1602Z" fill="white"/>
<path d="M75.4534 41.7711C75.3494 41.7761 75.2455 41.7593 75.1485 41.7219C75.0515 41.6844 74.9633 41.627 74.8898 41.5534C74.8162 41.4799 74.7589 41.3917 74.7214 41.2947C74.6839 41.1977 74.6672 41.0939 74.6722 40.99V30.6426C74.6661 30.5385 74.6821 30.4342 74.7192 30.3366C74.7563 30.2391 74.8137 30.1505 74.8874 30.0768C74.9612 30.003 75.0499 29.9456 75.1474 29.9085C75.2449 29.8714 75.3492 29.8554 75.4534 29.8615H79.8458V33.2679H78.0529V31.5647H76.4522V40.0679H78.0529V37.8524H79.8458V41.7583H75.4534V41.7711Z" fill="white"/>
<path d="M86.4536 29.8623V41.7716H84.6859V31.5651H82.8292V41.7716H81.0635V29.8623H86.4536Z" fill="white"/>
<path d="M91.2952 31.5646H89.528V40.0679H91.2952V31.5646ZM88.529 41.7711C88.4251 41.7761 88.3213 41.7593 88.2243 41.7219C88.1273 41.6844 88.0392 41.627 87.9656 41.5534C87.892 41.4799 87.8347 41.3917 87.7972 41.2947C87.7597 41.1977 87.7428 41.0939 87.7478 40.99V30.6426C87.7418 30.5385 87.7579 30.4342 87.795 30.3366C87.8321 30.2391 87.8895 30.1505 87.9632 30.0768C88.037 30.003 88.1255 29.9456 88.2231 29.9085C88.3206 29.8714 88.4249 29.8554 88.529 29.8615H92.294C92.3982 29.8554 92.5024 29.8714 92.6 29.9085C92.6975 29.9456 92.7861 30.003 92.8599 30.0768C92.9337 30.1505 92.9909 30.2391 93.028 30.3366C93.0652 30.4342 93.0813 30.5385 93.0752 30.6426V40.99C93.0802 41.0939 93.0634 41.1977 93.0259 41.2947C92.9885 41.3918 92.931 41.4799 92.8574 41.5535C92.7839 41.627 92.6958 41.6844 92.5987 41.7219C92.5017 41.7594 92.3979 41.7762 92.294 41.7712L88.529 41.7711Z" fill="white"/>
<path d="M96.1482 36.1491H97.8387V31.5645H96.1482V36.1491ZM96.1482 37.8523V41.771H94.3682V29.8613H98.8376C98.9418 29.8553 99.046 29.8713 99.1436 29.9084C99.2411 29.9455 99.3296 30.0028 99.4034 30.0766C99.4772 30.1504 99.5346 30.239 99.5717 30.3365C99.6088 30.434 99.6248 30.5383 99.6187 30.6425V37.0712C99.6248 37.1754 99.6088 37.2796 99.5717 37.3772C99.5346 37.4747 99.4772 37.5633 99.4034 37.6371C99.3296 37.7108 99.2411 37.7682 99.1436 37.8053C99.046 37.8424 98.9418 37.8584 98.8376 37.8523H96.1482Z" fill="white"/>
<path d="M100.49 29.8623H105.663V31.5651H103.974V41.7716H102.193V31.5651H100.49V29.8623Z" fill="white"/>
<path d="M110.26 41.7716H107.84V40.0688H108.762L109.121 37.8532H107.84L106.164 29.8623H107.982L109.314 36.1484H109.403L110.441 29.8623H112.208L110.26 41.7716Z" fill="white"/>
<path d="M12.5757 21.7166V41.4125H14.471V20.3208L14.3686 20.4104C13.8074 20.8938 13.2078 21.3306 12.5757 21.7166Z" fill="white"/>
<path d="M0.678711 23.8553C5.82093 23.4423 10.6767 21.3188 14.471 17.8236V15.1471C10.8845 19.0572 5.96418 21.4831 0.678711 21.9471V23.8553Z" fill="white"/>
<path d="M14.471 0.753021H12.5756C12.5716 4.07774 11.3648 7.28873 9.17813 9.79317C6.99145 12.2976 3.97251 13.9264 0.678711 14.3788V16.2869C4.47856 15.8299 7.9796 13.9975 10.5207 11.1356C13.0617 8.27364 14.467 4.58024 14.471 0.753021Z" fill="white"/>
<path d="M16.3407 0.753021C16.3349 5.07576 14.733 9.24412 11.8425 12.4584C8.95209 15.6726 4.97658 17.7063 0.678711 18.1694V20.0775C4.00934 19.7551 7.20059 18.5792 9.94411 16.6634C12.6876 14.7477 14.8908 12.1568 16.3407 9.14104V41.4125H18.236V0.753021H16.3407Z" fill="white"/>
<path d="M42.004 9.05137C41.2095 7.51935 40.0095 6.23499 38.5348 5.33846C37.0601 4.44192 35.3675 3.96764 33.6417 3.96738H33.4496C30.9578 3.97119 28.5691 4.96274 26.8071 6.7247C25.0452 8.48666 24.0536 10.8753 24.0498 13.3671V28.1454C24.0509 30.6392 25.0413 33.0307 26.8034 34.7952C28.5656 36.5598 30.9558 37.5534 33.4496 37.5579H33.552V35.6497H33.4496C31.4615 35.6465 29.5559 34.8544 28.1513 33.4474C26.7467 32.0404 25.9578 30.1335 25.9579 28.1454V13.3671C25.96 11.3796 26.7496 9.47398 28.1538 8.06746C29.5579 6.66093 31.4621 5.86814 33.4496 5.86269H33.6545C35.6439 5.86548 37.5509 6.65701 38.9577 8.06375C40.3644 9.47048 41.156 11.3776 41.1588 13.3671V16.4021H43.1309V13.5079C43.1309 13.4311 43.1438 13.3671 43.1438 13.303C43.1292 11.8123 42.7371 10.3495 42.004 9.05137Z" fill="white"/>
<path d="M33.5521 7.6683C32.0278 7.67037 30.5665 8.27684 29.4886 9.35472C28.4107 10.4326 27.8043 11.8939 27.8022 13.4183V28.0941C27.8043 29.6185 28.4107 31.0798 29.4886 32.1577C30.5665 33.2355 32.0278 33.842 33.5521 33.8441V31.9359C32.5335 31.9351 31.5568 31.53 30.8365 30.8097C30.1162 30.0894 29.7111 29.1127 29.7103 28.094V13.4182C29.7103 12.3993 30.1151 11.4221 30.8356 10.7016C31.5561 9.98112 32.5333 9.57635 33.5522 9.57635C34.5712 9.57635 35.5483 9.98112 36.2688 10.7016C36.9892 11.4221 37.394 12.3993 37.394 13.4182V22.946H39.3022V13.4182C39.3001 11.8939 38.6936 10.4326 37.6157 9.35469C36.5379 8.27683 35.0765 7.67037 33.5521 7.6683Z" fill="white"/>
<path d="M54.4775 0.227997C54.2982 0.227997 54.1188 0.240806 53.9268 0.240806C53.9217 0.245669 53.9157 0.249342 53.9091 0.251559C53.9024 0.253775 53.8953 0.254481 53.8884 0.25362H53.7859C53.4043 0.272341 53.0239 0.310803 52.6462 0.368858H52.5821C52.5565 0.368858 52.5436 0.381671 52.5181 0.381671C52.143 0.433268 51.771 0.505951 51.404 0.599381H51.3654V0.612194H51.327C51.3173 0.613521 51.3083 0.618016 51.3014 0.624984C50.9247 0.712192 50.5528 0.819059 50.1873 0.945146L50.1361 0.970749C49.7601 1.09256 49.3923 1.23799 49.0347 1.40617L49.0092 1.41896C47.0567 2.31572 45.3481 3.66845 44.0275 5.36326C42.7888 3.7649 41.2009 2.47115 39.3852 1.58106C37.5695 0.690968 35.5742 0.228139 33.5521 0.227997C31.2009 0.23347 28.8931 0.862128 26.864 2.04992C24.8349 3.23771 23.1569 4.94217 22.001 6.98965V0.753059H20.0928V41.4125H22.001V34.51C23.1536 36.5604 24.8308 38.2672 26.8607 39.4554C28.8905 40.6437 31.2 41.2705 33.5521 41.2717V39.3763C30.5407 39.3725 27.6537 38.1745 25.5243 36.0451C23.3949 33.9157 22.1969 31.0287 22.1931 28.0173V13.508C22.1931 10.4954 23.3899 7.60616 25.5201 5.47593C27.6503 3.3457 30.5395 2.14895 33.5521 2.14895C36.5647 2.14895 39.454 3.3457 41.5842 5.47593C43.7144 7.60616 44.9112 10.4954 44.9112 13.508V16.4022H46.8961V13.3543C46.8994 11.3662 47.6915 9.46064 49.0985 8.05603C50.5055 6.65143 52.4124 5.86259 54.4005 5.8627H54.5925C56.5799 5.86477 58.4856 6.65432 59.8922 8.05845C61.2987 9.46259 62.0915 11.3669 62.0969 13.3543V28.1454C62.0937 30.1335 61.3015 32.039 59.8945 33.4436C58.4875 34.8482 56.5806 35.6371 54.5925 35.637H54.5029V36.1492L54.5157 37.5451H54.5029V37.5579H54.6054C57.0992 37.5567 59.4907 36.5665 61.2552 34.8043C63.0198 33.0421 64.0134 30.652 64.0179 28.1582V13.3671C64.0133 10.8733 63.0198 8.48317 61.2552 6.721C59.4907 4.95883 57.0992 3.96854 54.6054 3.96739H54.4005C52.6769 3.97046 50.9872 4.44604 49.5151 5.3424C48.043 6.23876 46.8447 7.52159 46.0508 9.05138C45.8002 8.36691 45.4963 7.70322 45.1417 7.06644C45.5671 6.44876 46.0516 5.87403 46.5886 5.35042V5.36322C47.6151 4.36226 48.8236 3.56681 50.1488 3.01969C50.1616 3.0069 50.1616 3.0069 50.1744 3.0069C50.4947 2.87883 50.8275 2.75078 51.1605 2.64833C51.1861 2.64833 51.1991 2.63552 51.2246 2.63552C51.3418 2.59379 51.4616 2.55957 51.5832 2.53306C51.6155 2.51857 51.6502 2.5099 51.6856 2.50746L51.7239 2.49465C51.8904 2.45614 52.0569 2.4178 52.2362 2.37939C52.2618 2.37939 52.2874 2.36658 52.313 2.36658C52.32 2.36745 52.3271 2.36676 52.3338 2.36454C52.3405 2.36233 52.3465 2.35865 52.3516 2.35379H52.39L52.4156 2.34097C52.518 2.32816 52.6332 2.30246 52.7356 2.28975H52.7614C52.787 2.28975 52.8126 2.27694 52.851 2.27694L52.9022 2.26413C53.043 2.25134 53.1967 2.22561 53.3504 2.2129H53.4145C53.4913 2.20011 53.5681 2.20011 53.6449 2.1873C53.709 2.1873 53.7859 2.17449 53.8627 2.17449H53.9268C53.9459 2.16288 53.9685 2.15835 53.9907 2.1617C54.1572 2.1617 54.3237 2.14889 54.5029 2.14889C57.5144 2.15269 60.4014 3.35067 62.5308 5.48008C64.6602 7.60948 65.8582 10.4965 65.862 13.5079V28.0173C65.8604 31.0294 64.6632 33.9177 62.5333 36.0476C60.4034 38.1775 57.515 39.3747 54.5029 39.3764V41.2845C58.0187 41.2789 61.3888 39.8789 63.8736 37.3917C66.3585 34.9045 67.7552 31.5331 67.7574 28.0173V13.508C67.76 9.98952 66.3652 6.61404 63.8797 4.12372C61.3942 1.63339 58.0214 0.232118 54.5029 0.227997H54.4775Z" fill="white"/>
<path d="M60.2401 28.0941V13.4055C60.2372 11.8841 59.6309 10.4259 58.5541 9.35114C57.4772 8.27634 56.0179 7.6727 54.4965 7.6727C52.9751 7.6727 51.5159 8.27634 50.4391 9.35114C49.3622 10.4259 48.7558 11.8841 48.7529 13.4055V22.946H50.6611V13.4182C50.66 12.913 50.7585 12.4124 50.951 11.9453C51.1436 11.4782 51.4263 11.0536 51.7832 10.6959C52.1401 10.3382 52.564 10.0545 53.0307 9.86084C53.4974 9.66722 53.9977 9.56755 54.5029 9.56755C55.0082 9.56755 55.5084 9.66722 55.9751 9.86084C56.4418 10.0545 56.8658 10.3382 57.2227 10.6959C57.5795 11.0536 57.8623 11.4782 58.0548 11.9453C58.2474 12.4124 58.3459 12.913 58.3447 13.4182V28.0941C58.3417 29.1121 57.9361 30.0875 57.2162 30.8074C56.4964 31.5272 55.5209 31.9329 54.5029 31.9359V33.8312C56.024 33.8294 57.4821 33.2244 58.5576 32.1488C59.6332 31.0733 60.2382 29.6151 60.2401 28.0941Z" fill="white"/>
</svg>
