<svg width="55" height="42" viewBox="0 0 55 42" fill="none" xmlns="http://www.w3.org/2000/svg">
<path d="M12.1904 18.4639L12.9445 14.4158H13.5222L14.5966 16.9902L15.7115 14.4158H16.2872L16.9663 18.4639H16.1595L15.8007 15.9665L14.7122 18.4639H14.4426L13.4066 15.9665L12.9972 18.4639H12.1904Z" fill="#FEFEFB"/>
<path d="M18.6821 17.4517C18.8061 17.5799 18.9558 17.6803 19.1213 17.7466C19.2868 17.8128 19.4645 17.8432 19.6426 17.8359C19.8226 17.8432 20.0022 17.8128 20.1699 17.7467C20.3375 17.6805 20.4894 17.58 20.6159 17.4517C20.8633 17.1753 21.0001 16.8174 21.0001 16.4464C21.0001 16.0754 20.8633 15.7175 20.6159 15.4411C20.3584 15.1867 20.011 15.0441 19.649 15.0441C19.2871 15.0441 18.9396 15.1867 18.6821 15.4411C18.4347 15.7175 18.298 16.0754 18.298 16.4464C18.298 16.8174 18.4347 17.1753 18.6821 17.4517ZM18.0931 14.9161C18.2997 14.7205 18.5431 14.5678 18.809 14.4667C19.0749 14.3656 19.3582 14.3181 19.6426 14.327C20.2208 14.3091 20.7825 14.5209 21.205 14.9161C21.5917 15.3293 21.8069 15.874 21.8069 16.44C21.8069 17.0059 21.5917 17.5507 21.205 17.9639C20.9975 18.162 20.7522 18.3163 20.4837 18.4175C20.2153 18.5187 19.9292 18.5648 19.6426 18.553C19.3579 18.5648 19.0737 18.5187 18.8074 18.4174C18.541 18.3162 18.298 18.1619 18.0931 17.9639C17.7063 17.5507 17.4912 17.0059 17.4912 16.44C17.4912 15.874 17.7063 15.3293 18.0931 14.9161Z" fill="#FEFEFB"/>
<path d="M25.4697 17.4004V18.3225C25.1605 18.4796 24.8175 18.5587 24.4708 18.553C24.2 18.5627 23.9301 18.5178 23.6771 18.421C23.4241 18.3242 23.1932 18.1774 22.9981 17.9895C22.7859 17.792 22.6179 17.5518 22.5053 17.2847C22.3928 17.0176 22.3381 16.7297 22.3449 16.4399C22.333 16.1457 22.3853 15.8525 22.498 15.5805C22.6108 15.3085 22.7815 15.0643 22.9981 14.8648C23.3347 14.5767 23.7492 14.395 24.1892 14.3425C24.6291 14.2901 25.0748 14.3694 25.4697 14.5703V15.4923C25.3507 15.3503 25.2017 15.2364 25.0334 15.1589C24.8651 15.0813 24.6817 15.0422 24.4964 15.0441C24.3144 15.0396 24.1335 15.0738 23.9657 15.1444C23.7979 15.2151 23.647 15.3206 23.5231 15.4539C23.2799 15.7294 23.1476 16.0854 23.1517 16.4528C23.1414 16.6424 23.174 16.8318 23.2472 17.007C23.3204 17.1822 23.4322 17.3386 23.5743 17.4645C23.7 17.5858 23.8484 17.6811 24.0111 17.7449C24.1737 17.8086 24.3473 17.8395 24.522 17.8359C24.7028 17.8414 24.8825 17.8049 25.047 17.7294C25.2114 17.6539 25.356 17.5413 25.4697 17.4004Z" fill="#FEFEFB"/>
<path d="M26.9928 14.4158V16.1327L28.4786 14.4158H29.478L27.7631 16.2868L29.5672 18.4639H28.5172L27.084 16.6578L26.9928 16.747V18.4639H26.2002V14.4158H26.9928Z" fill="#FEFEFB"/>
<path d="M30.8096 17.4517C30.9336 17.5799 31.0832 17.6803 31.2487 17.7466C31.4143 17.8128 31.592 17.8432 31.7701 17.8359C31.9502 17.8432 32.1298 17.8128 32.2974 17.7467C32.465 17.6805 32.6168 17.58 32.7433 17.4517C32.9907 17.1753 33.1276 16.8173 33.1276 16.4464C33.1276 16.0754 32.9907 15.7175 32.7433 15.4411C32.4858 15.1867 32.1384 15.0441 31.7765 15.0441C31.4145 15.0441 31.0671 15.1867 30.8096 15.4411C30.5622 15.7175 30.4254 16.0754 30.4254 16.4464C30.4254 16.8173 30.5622 17.1753 30.8096 17.4517ZM30.2205 14.9161C30.4272 14.7205 30.6705 14.5678 30.9364 14.4667C31.2024 14.3656 31.4857 14.3181 31.7701 14.327C32.3483 14.3091 32.91 14.5209 33.3324 14.9161C33.7192 15.3293 33.9343 15.874 33.9343 16.44C33.9343 17.0059 33.7192 17.5507 33.3324 17.9639C33.125 18.162 32.8797 18.3163 32.6113 18.4175C32.3428 18.5187 32.0567 18.5648 31.7701 18.553C31.4854 18.5648 31.2013 18.5187 30.9349 18.4174C30.6685 18.3162 30.4255 18.1619 30.2205 17.9639C29.8338 17.5507 29.6187 17.0059 29.6187 16.44C29.6187 15.8741 29.8338 15.3293 30.2205 14.9161Z" fill="#FEFEFB"/>
<path d="M35.458 16.7089V17.823H35.791C35.976 17.8331 36.1606 17.7979 36.3288 17.7206C36.4109 17.6727 36.4782 17.6032 36.5233 17.5196C36.5685 17.436 36.5898 17.3416 36.585 17.2468C36.5893 17.1489 36.5634 17.0522 36.5107 16.9697C36.4579 16.8871 36.381 16.8229 36.2904 16.7857C36.1136 16.7245 35.9266 16.6984 35.7398 16.7089H35.458ZM35.458 15.0568V16.0941H35.791C35.8429 16.0898 35.8942 16.0813 35.9447 16.0685C36.004 16.0464 36.06 16.0163 36.1112 15.9789C36.1635 15.9366 36.207 15.8843 36.2392 15.8252C36.277 15.7453 36.2946 15.6574 36.2904 15.5691C36.2956 15.4964 36.2832 15.4235 36.2542 15.3566C36.2252 15.2897 36.1805 15.2308 36.124 15.1849C35.9952 15.099 35.8433 15.0543 35.6886 15.0568L35.458 15.0568ZM34.6641 14.4165H35.6629C36.0108 14.3917 36.3572 14.4817 36.649 14.6726C36.7759 14.7697 36.8772 14.8962 36.9441 15.0413C37.0111 15.1863 37.0417 15.3455 37.0332 15.505C37.0414 15.6695 37.0023 15.8329 36.9206 15.9758C36.8389 16.1188 36.718 16.2354 36.5722 16.3118C36.6928 16.3234 36.81 16.3588 36.9168 16.4162C37.0236 16.4735 37.1179 16.5515 37.1942 16.6457C37.2705 16.7399 37.3273 16.8484 37.3612 16.9647C37.3951 17.0811 37.4055 17.2031 37.3918 17.3235C37.3973 17.4771 37.3692 17.63 37.3095 17.7715C37.2498 17.9131 37.1599 18.0399 37.046 18.1431C36.7562 18.3735 36.3909 18.4876 36.0215 18.4632H34.6641V14.4165Z" fill="#FEFEFB"/>
<path d="M41.0669 17.4005V18.3225C40.7527 18.4783 40.406 18.5573 40.0552 18.553C39.7845 18.5627 39.5146 18.5179 39.2615 18.421C39.0085 18.3242 38.7776 18.1775 38.5825 17.9895C38.3703 17.792 38.2024 17.5518 38.0898 17.2848C37.9772 17.0177 37.9225 16.7297 37.9294 16.4399C37.9175 16.1457 37.9697 15.8525 38.0825 15.5805C38.1953 15.3085 38.3659 15.0643 38.5825 14.8649C38.9216 14.5767 39.3383 14.395 39.7803 14.3426C40.2222 14.2902 40.6698 14.3694 41.0669 14.5703V15.4924C40.9454 15.35 40.7941 15.2361 40.6237 15.1586C40.4533 15.0812 40.268 15.0421 40.0809 15.0442C39.9006 15.0384 39.7212 15.0721 39.5553 15.1429C39.3894 15.2137 39.241 15.3198 39.1204 15.454C38.872 15.7263 38.7389 16.0844 38.749 16.4528C38.7365 16.6415 38.7668 16.8305 38.8378 17.0057C38.9088 17.1809 39.0185 17.3378 39.1588 17.4645C39.2863 17.587 39.4368 17.6829 39.6017 17.7467C39.7666 17.8104 39.9425 17.8408 40.1193 17.8359C40.2997 17.8388 40.4785 17.8012 40.6425 17.7258C40.8065 17.6505 40.9516 17.5393 41.0669 17.4005Z" fill="#FEFEFB"/>
<path d="M42.5789 14.4158V16.1327L44.0647 14.4158H45.062L43.3471 16.2868L45.1532 18.4639H44.1154L42.6679 16.6578L42.5789 16.747V18.4639H41.7842V14.4158H42.5789Z" fill="#FEFEFB"/>
<path d="M46.3945 17.4516C46.521 17.5799 46.6729 17.6804 46.8406 17.7466C47.0082 17.8127 47.1878 17.8431 47.3678 17.8358C47.5459 17.8431 47.7237 17.8127 47.8892 17.7465C48.0547 17.6803 48.2044 17.5798 48.3283 17.4516C48.5757 17.1752 48.7125 16.8173 48.7125 16.4463C48.7125 16.0753 48.5757 15.7174 48.3283 15.441C48.0708 15.1867 47.7234 15.044 47.3614 15.044C46.9995 15.044 46.652 15.1867 46.3945 15.441C46.1471 15.7174 46.0104 16.0754 46.0104 16.4463C46.0104 16.8173 46.1471 17.1752 46.3945 17.4516ZM45.8055 14.916C46.2349 14.5364 46.7883 14.3269 47.3614 14.3269C47.9346 14.3269 48.488 14.5364 48.9174 14.916C49.3041 15.3292 49.5193 15.874 49.5193 16.4399C49.5193 17.0058 49.3041 17.5506 48.9174 17.9638C48.488 18.3434 47.9346 18.5529 47.3614 18.5529C46.7883 18.5529 46.2349 18.3434 45.8055 17.9638C45.4187 17.5506 45.2036 17.0058 45.2036 16.4399C45.2036 15.874 45.4187 15.3292 45.8055 14.916Z" fill="#FEFEFB"/>
<path d="M52.5037 14.4158V15.0949H51.0441V16.005H52.4387V16.6841H51.0441V17.7848H52.5037V18.4639H50.2495V14.4158H52.5037Z" fill="#FEFEFB"/>
<path d="M13.3931 23.7779C13.657 24.0247 14.0049 24.1621 14.3663 24.1621C14.7278 24.1621 15.0757 24.0247 15.3396 23.7779C15.5889 23.501 15.7219 23.1386 15.711 22.7662C15.7243 22.3972 15.5907 22.038 15.3396 21.7673C15.0796 21.5128 14.7302 21.3703 14.3663 21.3703C14.0025 21.3703 13.6531 21.5128 13.3931 21.7673C13.142 22.038 13.0084 22.3972 13.0217 22.7662C13.0107 23.1386 13.1437 23.501 13.3931 23.7779ZM12.804 21.2423C13.2359 20.8626 13.7913 20.6532 14.3663 20.6532C14.9414 20.6532 15.4968 20.8626 15.9287 21.2423C16.3155 21.6555 16.5306 22.2003 16.5306 22.7662C16.5306 23.3322 16.3155 23.8769 15.9287 24.2901C15.4968 24.6698 14.9414 24.8792 14.3663 24.8792C13.7913 24.8792 13.2359 24.6698 12.804 24.2901C12.4173 23.8769 12.2021 23.3321 12.2021 22.7662C12.2021 22.2003 12.4173 21.6555 12.804 21.2423Z" fill="#FEFEFB"/>
<path d="M18.0419 23.0351V24.1108H18.4261C18.9255 24.1108 19.1688 23.9315 19.1688 23.5858C19.1702 23.5117 19.1562 23.4381 19.1275 23.3697C19.0988 23.3013 19.0562 23.2397 19.0024 23.1888C18.8405 23.0685 18.6393 23.0137 18.4388 23.0351L18.0419 23.0351ZM17.2607 24.7895V20.7428H19.6042V21.4215H18.0419V22.3437H18.5925C18.9594 22.3253 19.3199 22.444 19.6042 22.6766C19.7304 22.7885 19.8302 22.9269 19.8966 23.0818C19.9631 23.2368 19.9944 23.4045 19.9884 23.573C19.9907 23.8346 19.91 24.0902 19.7579 24.303C19.6188 24.4739 19.4396 24.6078 19.2363 24.6927C19.033 24.7776 18.8118 24.8109 18.5925 24.7896L17.2607 24.7895Z" fill="#FEFEFB"/>
<path d="M21.4999 21.4215V22.6125H21.8329C22.0131 22.6276 22.1932 22.5826 22.3451 22.4844C22.416 22.428 22.4726 22.3557 22.5104 22.2734C22.5482 22.1911 22.5662 22.1011 22.5629 22.0106C22.5681 21.9203 22.5496 21.8302 22.5091 21.7493C22.4687 21.6684 22.4077 21.5995 22.3323 21.5496C22.1667 21.4502 21.9741 21.4054 21.7817 21.4215H21.4999ZM20.7188 20.7428H21.8969C22.1036 20.7409 22.3098 20.7624 22.5116 20.8068C22.6769 20.8545 22.8298 20.9375 22.9598 21.0501C23.0975 21.1706 23.2059 21.3209 23.2769 21.4895C23.3479 21.6581 23.3796 21.8407 23.3696 22.0233C23.381 22.1898 23.3572 22.3567 23.2998 22.5134C23.2425 22.67 23.1528 22.8128 23.0367 22.9326C22.9 23.06 22.7384 23.1576 22.5621 23.2194C22.3857 23.2811 22.1985 23.3055 22.0122 23.2911H21.4999V24.7895H20.7188L20.7188 20.7428Z" fill="#FEFEFB"/>
<path d="M24.714 23.2912H25.8665L25.2902 21.8441L24.714 23.2912ZM26.4556 24.7895L26.097 23.9443H24.4578L24.0992 24.7895H23.2412L24.9957 20.7428H25.6104L27.3008 24.7895H26.4556Z" fill="#FEFEFB"/>
<path d="M28.1459 21.6649L27.736 21.1271C28.073 20.814 28.5184 20.6441 28.9782 20.6532C29.3254 20.6329 29.669 20.7323 29.9515 20.935C30.0661 21.0271 30.158 21.1442 30.2202 21.2774C30.2824 21.4106 30.3132 21.5563 30.3101 21.7033C30.3184 21.8792 30.2756 22.0538 30.187 22.206C30.0984 22.3582 29.9677 22.4816 29.8107 22.5613C30.033 22.6146 30.2285 22.7465 30.3613 22.9327C30.5013 23.1308 30.5731 23.3689 30.5662 23.6114C30.5677 23.7892 30.5281 23.9651 30.4503 24.125C30.3726 24.285 30.2588 24.4248 30.118 24.5334C29.7786 24.7746 29.3687 24.8962 28.9526 24.8792C28.6528 24.9016 28.3525 24.8419 28.084 24.7066C27.8155 24.5712 27.589 24.3652 27.4287 24.1108L27.941 23.6242C28.021 23.8211 28.1717 23.9809 28.3636 24.0724C28.5485 24.1725 28.7552 24.2253 28.9654 24.2261C29.1768 24.2376 29.3854 24.1741 29.5546 24.0468C29.6156 23.9948 29.6644 23.9299 29.6976 23.8569C29.7308 23.7839 29.7476 23.7044 29.7466 23.6242C29.7466 23.2144 29.4521 23.0095 28.863 23.0095H28.4916V22.3308H28.863C29.0363 22.3389 29.2075 22.2893 29.3497 22.1899C29.4024 22.146 29.4454 22.0916 29.4762 22.0303C29.5069 21.9689 29.5246 21.9019 29.5283 21.8333C29.5319 21.7648 29.5213 21.6963 29.4972 21.632C29.4731 21.5678 29.436 21.5092 29.3881 21.4599C29.2603 21.3732 29.1068 21.3326 28.9528 21.3447C28.803 21.3351 28.653 21.3589 28.5135 21.4142C28.374 21.4696 28.2484 21.5553 28.1459 21.6649Z" fill="#FEFEFB"/>
<path d="M32.2828 23.7779C32.5467 24.0247 32.8947 24.1621 33.2561 24.1621C33.6175 24.1621 33.9653 24.0247 34.2293 23.7779C34.4786 23.501 34.6117 23.1386 34.6007 22.7662C34.614 22.3972 34.4804 22.038 34.2293 21.7673C33.9692 21.5128 33.6199 21.3703 33.2561 21.3703C32.8922 21.3703 32.5428 21.5128 32.2828 21.7673C32.0317 22.038 31.8981 22.3972 31.9114 22.7662C31.9004 23.1386 32.0335 23.501 32.2828 23.7779ZM31.6937 21.2423C32.1256 20.8626 32.6809 20.6532 33.256 20.6532C33.8311 20.6532 34.3865 20.8626 34.8184 21.2423C35.2051 21.6555 35.4203 22.2003 35.4203 22.7662C35.4203 23.3322 35.2051 23.8769 34.8184 24.2901C34.3865 24.6698 33.8311 24.8792 33.256 24.8792C32.6809 24.8792 32.1256 24.6698 31.6937 24.2901C31.3069 23.8769 31.0918 23.3321 31.0918 22.7662C31.0918 22.2003 31.3069 21.6555 31.6937 21.2423Z" fill="#FEFEFB"/>
<path d="M36.931 23.0351V24.1492H37.2769C37.4632 24.1593 37.6488 24.1195 37.8147 24.034C37.8947 23.988 37.96 23.9203 38.0031 23.8387C38.0461 23.7571 38.0651 23.6649 38.0579 23.573C38.065 23.4746 38.0401 23.3767 37.987 23.2936C37.934 23.2106 37.8556 23.1469 37.7634 23.1119C37.5908 23.0516 37.4081 23.0255 37.2256 23.0351H36.931ZM36.931 21.3831V22.4204H37.2769C37.3255 22.4151 37.3731 22.4021 37.4177 22.382C37.4831 22.3723 37.5449 22.3458 37.597 22.3052C37.6453 22.2621 37.6845 22.2099 37.7122 22.1515C37.7544 22.0727 37.7764 21.9847 37.7763 21.8954C37.782 21.8213 37.7685 21.747 37.7371 21.6797C37.7057 21.6124 37.6574 21.5543 37.597 21.5112C37.4718 21.4179 37.3173 21.3724 37.1615 21.3831H36.931ZM36.1499 20.7428H37.1487C37.497 20.7136 37.8448 20.8039 38.1348 20.9989C38.2617 21.096 38.363 21.2225 38.43 21.3676C38.4969 21.5126 38.5275 21.6718 38.5191 21.8313C38.5271 21.9941 38.4878 22.1556 38.406 22.2965C38.3242 22.4374 38.2033 22.5516 38.058 22.6253C38.2552 22.6546 38.4385 22.7441 38.583 22.8814C38.6815 22.9803 38.7586 23.0984 38.8092 23.2284C38.8599 23.3584 38.8832 23.4975 38.8776 23.637C38.8844 23.7907 38.8569 23.944 38.7971 24.0858C38.7373 24.2275 38.6467 24.3542 38.5318 24.4566C38.2436 24.6912 37.8783 24.8099 37.5073 24.7895H36.1499V20.7428Z" fill="#FEFEFB"/>
<path d="M40.5039 23.2912H41.6565L41.0802 21.8441L40.5039 23.2912ZM42.2456 24.7895L41.887 23.9443H40.2478L39.8893 24.7895H39.0312L40.7729 20.7428H41.4004L43.0908 24.7895H42.2456Z" fill="#FEFEFB"/>
<path d="M44.3587 20.7424V22.3053H46.0614V20.7424H46.856V24.7886H46.0614V22.9844H44.3587V24.7886H43.564V20.7424H44.3587Z" fill="#FEFEFB"/>
<path d="M47.7783 20.7424H48.5587V23.4324L50.7864 20.7424H51.35V24.7886H50.5574V22.0884L48.3277 24.7886H47.7783V20.7424Z" fill="#FEFEFB"/>
<path d="M54.5145 20.7424V21.4215H53.0529V22.3317H54.4495V23.0087H53.0529V24.1115H54.5145V24.7886H52.2725V20.7424H54.5145Z" fill="#FEFEFB"/>
<path d="M35.1764 9.48626C34.4593 9.49907 33.7294 9.51189 33.0122 9.51189C33.0122 7.2324 33.025 4.96571 33.0378 2.68622C22.985 2.99355 18.823 7.64219 18.7718 7.69341L18.0034 8.58984L17.1838 7.73182C17.1326 7.68061 12.5608 3.01917 2.89218 2.68622V16.5168H0.740723V0.521892H1.81645C7.6088 0.270737 13.3084 2.04082 17.9394 5.5291C19.745 3.94113 24.7522 0.521892 34.1007 0.521892H35.1764V9.48626Z" fill="#FEFEFB"/>
<path d="M17.9651 41.5016L17.2095 40.746C16.4981 40.0512 15.651 39.5106 14.7211 39.158C13.7912 38.8054 12.7986 38.6485 11.8053 38.697H8.00184C3.53248 38.697 0.740723 36.1358 0.740723 32.025V16.1838H2.89218V32.025C2.89218 34.8936 4.76188 36.5455 8.00184 36.5455H11.8053C14.0318 36.465 16.2147 37.1775 17.965 38.5561C19.7222 37.181 21.9077 36.4691 24.1376 36.5455H27.9411C31.1682 36.5455 33.0379 34.8935 33.0379 32.025V29.8992H35.1765V32.025C35.1765 36.1358 32.4104 38.697 27.9411 38.697H24.1376C23.1414 38.6489 22.1459 38.8073 21.2138 39.1621C20.2816 39.5169 19.4328 40.0605 18.7206 40.7588L17.9651 41.5016Z" fill="#FEFEFB"/>
</svg>
