<svg width="55" height="34" viewBox="0 0 55 34" fill="none" xmlns="http://www.w3.org/2000/svg">
<path fill-rule="evenodd" clip-rule="evenodd" d="M27.2804 1.71075C26.1408 3.93778 25.2742 5.78507 24.1976 7.94204C23.8605 8.58781 23.6923 8.65334 23.1258 8.62815L12.6346 8.61934C11.9242 8.62116 11.2434 8.90417 10.7411 9.4065C10.2388 9.90883 9.95576 10.5896 9.95393 11.3C9.95754 12.0099 10.2411 12.6898 10.7431 13.1918C11.245 13.6937 11.9248 13.9772 12.6346 13.9808C15.3753 13.9789 18.116 13.9771 20.8566 13.9753C21.4308 13.9746 21.6186 14.1946 21.4203 14.6721C21.2031 15.1103 20.9858 15.5485 20.7685 15.9865C20.4224 16.5858 20.2248 16.6124 19.6727 16.6124H9.56763C7.50941 16.6066 5.53716 15.7864 4.08167 14.3311C2.62618 12.8758 1.80576 10.9037 1.79959 8.84549V8.8444C1.80575 6.78628 2.62621 4.81424 4.08173 3.35912C5.53725 1.904 7.50951 1.08407 9.56763 1.07847L26.5906 1.10322C27.247 1.07847 27.3919 1.50607 27.2804 1.71075ZM9.63507 17.6709H10.3728C10.4676 17.6744 10.5573 17.7152 10.6222 17.7845C10.6871 17.8539 10.722 17.946 10.7192 18.0409V24.2811C10.7219 24.376 10.6871 24.4682 10.6222 24.5375C10.5573 24.6068 10.4676 24.6476 10.3728 24.6511H9.63507C9.54019 24.6476 9.45054 24.6068 9.38564 24.5375C9.32075 24.4682 9.28587 24.376 9.28861 24.2811V18.0409C9.28585 17.946 9.32071 17.8538 9.38562 17.7845C9.45052 17.7152 9.54018 17.6744 9.63507 17.6709ZM19.653 17.6611H19.7829C19.8564 17.6576 19.8805 17.7322 19.8376 17.8157C19.6998 18.0938 19.5619 18.3719 19.4239 18.6501C19.3668 18.7522 19.3065 18.7163 19.3065 18.635V18.0312C19.3038 17.9363 19.3386 17.8441 19.4035 17.7748C19.4684 17.7055 19.5581 17.6646 19.653 17.6611ZM17.1472 17.6611H17.8849C17.9798 17.6646 18.0694 17.7055 18.1343 17.7748C18.1992 17.8441 18.2341 17.9363 18.2313 18.0312V20.693C18.2319 20.9207 18.18 21.1455 18.0795 21.3499C17.7248 22.0571 17.3701 22.7644 17.0155 23.4717C16.9343 23.6195 16.8008 23.6686 16.8008 23.4041V18.0312C16.798 17.9363 16.8329 17.8441 16.8978 17.7748C16.9627 17.7055 17.0523 17.6647 17.1472 17.6611ZM14.618 17.6611H15.3557C15.4506 17.6646 15.5403 17.7055 15.6052 17.7748C15.6701 17.8441 15.7049 17.9363 15.7022 18.0312V24.2714C15.7049 24.3663 15.6701 24.4584 15.6052 24.5277C15.5403 24.5971 15.4506 24.6379 15.3557 24.6414H14.618C14.5232 24.6379 14.4335 24.597 14.3686 24.5277C14.3037 24.4584 14.2689 24.3663 14.2716 24.2714V18.0312C14.2688 17.9363 14.3037 17.8441 14.3686 17.7748C14.4335 17.7055 14.5231 17.6646 14.618 17.6611ZM12.1399 17.6611H12.8776C12.9725 17.6646 13.0622 17.7055 13.1271 17.7748C13.192 17.8441 13.2268 17.9363 13.2241 18.0312V24.2714C13.2268 24.3663 13.1919 24.4584 13.127 24.5277C13.0622 24.5971 12.9725 24.6379 12.8776 24.6414H12.1399C12.045 24.6379 11.9554 24.597 11.8905 24.5277C11.8256 24.4584 11.7907 24.3663 11.7935 24.2714V18.0312C11.7907 17.9363 11.8256 17.8441 11.8905 17.7748C11.9554 17.7055 12.045 17.6646 12.1399 17.6611ZM7.12187 17.2939L7.85956 17.5002C7.95799 17.5335 8.0439 17.5961 8.10582 17.6795C8.16773 17.7629 8.20269 17.8633 8.20602 17.9671V24.2074C8.21007 24.2511 8.20314 24.2951 8.18584 24.3354C8.16855 24.3757 8.14145 24.411 8.10701 24.4381C8.07258 24.4653 8.03189 24.4834 7.98867 24.4908C7.94545 24.4982 7.90107 24.4946 7.85956 24.4805L7.12187 24.2742C7.02344 24.2409 6.93753 24.1784 6.87562 24.0949C6.81371 24.0115 6.77876 23.9112 6.77545 23.8073V17.567C6.77139 17.5233 6.77832 17.4793 6.79561 17.439C6.8129 17.3987 6.83999 17.3634 6.87443 17.3363C6.90887 17.3091 6.94955 17.291 6.99277 17.2836C7.03599 17.2763 7.08037 17.2798 7.12187 17.2939ZM4.65782 16.1441L5.34226 16.5688C5.43953 16.6321 5.52122 16.7166 5.58122 16.816C5.64121 16.9154 5.67797 17.027 5.68873 17.1426V23.246C5.68873 23.445 5.51913 23.5323 5.34226 23.3959L4.60456 22.8268C4.51087 22.7597 4.43183 22.6742 4.37227 22.5756C4.31271 22.4769 4.27388 22.3672 4.25815 22.253V16.4006C4.25547 16.3524 4.26563 16.3043 4.2876 16.2613C4.30958 16.2183 4.34257 16.1819 4.38321 16.1558C4.42385 16.1298 4.47068 16.1149 4.51893 16.1129C4.56717 16.1108 4.6151 16.1216 4.65782 16.1441ZM2.25065 13.7528L2.90708 14.5989C3.11503 14.8348 3.22844 15.1392 3.2255 15.4537V20.735C3.2255 21.0227 3.0763 21.1877 2.91317 20.8929C2.31273 19.8985 1.9359 18.7852 1.80886 17.6305C1.79902 17.4859 1.79492 17.2771 1.79492 17.1811V14.1639C1.79492 13.5293 2.06604 13.5149 2.25065 13.7528ZM27.3435 25.7545H9.57007C7.2304 25.7418 4.99056 24.805 3.33863 23.1481C1.6867 21.4911 0.75659 19.2485 0.750977 16.9088V16.9076C0.750977 16.8536 0.774229 9.07273 0.775143 9.01845L0.790037 9.07344C0.788173 8.99839 0.787208 8.92313 0.787141 8.84766V8.8465C0.793761 6.50961 1.72503 4.27033 3.37748 2.61791C5.02993 0.965484 7.26922 0.0342487 9.60611 0.0276636C15.8794 0.0297737 21.7827 0.0318837 28.056 0.0340021C28.2546 0.0100933 28.4558 0.0467051 28.6333 0.139047C28.8108 0.231388 28.9563 0.375158 29.0507 0.551542L41.4107 24.8016C41.5708 25.343 41.1268 25.7432 40.5452 25.7545C37.5009 25.7545 36.0379 25.76 32.9936 25.7599C32.4252 25.7599 31.9357 25.7124 31.5184 24.7942L24.1993 10.6125C23.9075 9.89852 23.6125 9.67121 23.1011 9.67121H12.794C12.3525 9.67367 11.9298 9.85013 11.6175 10.1623C11.3053 10.4745 11.1288 10.8972 11.1263 11.3387C11.1263 12.2558 11.7776 12.9401 12.9962 12.9738H21.4239C21.6783 12.9363 21.9376 12.9917 22.1545 13.1299C22.3714 13.268 22.5312 13.4796 22.6048 13.726C24.4356 17.4105 26.2913 21.0898 28.1221 24.7744C28.369 25.226 27.9735 25.7545 27.3435 25.7545ZM54.7317 24.7471L42.2237 0.217197C42.1504 0.141562 42.0613 0.0830755 41.9627 0.045922C41.8641 0.00876851 41.7585 -0.00613255 41.6535 0.00228542C41.5485 0.0107034 41.4466 0.0422322 41.3552 0.094615C41.2638 0.146998 41.1852 0.218939 41.1248 0.305289C39.6457 3.2511 38.3644 5.87477 36.8851 8.82049C36.7575 9.08194 36.6881 9.36797 36.6817 9.65885C36.6753 9.94972 36.7321 10.2385 36.8482 10.5053L44.3647 25.0091C44.4989 25.2497 44.6986 25.4474 44.9405 25.5793C45.1824 25.7112 45.4568 25.7719 45.7318 25.7545H54.2223C54.3289 25.733 54.4291 25.6876 54.5156 25.6218C54.602 25.5559 54.6724 25.4713 54.7214 25.3744C54.7704 25.2774 54.7968 25.1706 54.7986 25.0619C54.8004 24.9533 54.7775 24.8456 54.7317 24.7471Z" fill="white"/>
<path fill-rule="evenodd" clip-rule="evenodd" d="M54.952 33.8783H52.405V31.588C52.0439 31.6513 51.8507 31.6861 51.8254 31.6925C51.4674 31.7549 51.1053 31.7899 50.742 31.7971C49.6965 31.7971 48.9743 31.5183 48.5752 30.9607C48.327 30.5838 48.2039 30.1382 48.2235 29.6873V27.2258H50.7705V29.3452C50.7617 29.4444 50.7833 29.544 50.8326 29.6306C50.8818 29.7171 50.9563 29.7866 51.0461 29.8298C51.1832 29.8917 51.3328 29.921 51.4832 29.9154C51.6379 29.9157 51.7922 29.9014 51.9442 29.8726C52.1009 29.8419 52.255 29.799 52.405 29.7443V27.2258H54.952L54.952 33.8783ZM47.3682 33.8783H44.8213V30.153H44.7833L43.1012 33.8783H40.1266V27.2258H42.6735V31.0272H42.7115L44.3936 27.2258H47.3682V33.8783ZM36.7053 31.8446C36.7104 31.7455 36.6894 31.6468 36.6444 31.5584C36.5993 31.4701 36.5319 31.3951 36.4487 31.341C36.2203 31.2126 35.9595 31.1531 35.698 31.1698H35.1088V32.5289H35.755C35.8949 32.5422 36.036 32.5272 36.1699 32.4847C36.3038 32.4422 36.4277 32.3732 36.5343 32.2817C36.5902 32.2237 36.634 32.1552 36.6634 32.0802C36.6927 32.0052 36.707 31.9251 36.7053 31.8446ZM36.6674 29.2121C36.6699 29.1334 36.655 29.0551 36.6238 28.9828C36.5925 28.9106 36.5457 28.8461 36.4867 28.794C36.282 28.633 36.0242 28.5549 35.7645 28.5754H35.1088V29.8583H35.7075C35.8518 29.8729 35.9976 29.8586 36.1363 29.8162C36.275 29.7738 36.4038 29.7041 36.5152 29.6113C36.6167 29.5036 36.6714 29.36 36.6674 29.2121ZM39.3093 32.1012C39.3237 32.435 39.2284 32.7644 39.0379 33.039C38.8474 33.3136 38.5723 33.5182 38.2545 33.6217C37.7116 33.812 37.1378 33.8991 36.5628 33.8783H32.6949V27.2258H36.6959C37.6146 27.2258 38.283 27.4349 38.7011 27.853C38.8484 27.9959 38.9649 28.1675 39.0433 28.3571C39.1217 28.5467 39.1605 28.7504 39.1572 28.9556C39.1627 29.3205 39.0324 29.6745 38.7914 29.9486C38.5362 30.2369 38.1882 30.4268 37.8078 30.4856V30.5236C38.1748 30.5667 38.5214 30.7152 38.8057 30.9512C38.9705 31.0929 39.1013 31.2698 39.1885 31.4688C39.2757 31.6679 39.317 31.884 39.3093 32.1012ZM32.1057 33.8783H29.0646L27.4299 31.0557H27.3919V33.8783H24.8451V27.2258H27.3919V29.8394H27.4299L28.9981 27.2258H31.8966L29.6538 30.343L32.1057 33.8783ZM24.1799 33.7263C23.8556 33.8176 23.5253 33.8859 23.1914 33.9306C22.9016 33.9699 22.6096 33.9906 22.3171 33.9924C21.2445 34.0565 20.1878 33.7099 19.3615 33.023C19.0224 32.7099 18.7557 32.3267 18.5801 31.8999C18.4045 31.4731 18.3241 31.0132 18.3446 30.5521C18.3279 30.1186 18.3993 29.6863 18.5545 29.2812C18.7096 28.8761 18.9454 28.5067 19.2474 28.1953C19.9634 27.4729 21.0088 27.1118 22.3836 27.1118C22.7111 27.1113 23.0382 27.1335 23.3625 27.1783C23.4575 27.1911 23.6729 27.2292 24.0087 27.2925L24.1607 27.321V29.0791C23.956 28.9987 23.7446 28.9367 23.5289 28.8938C23.2959 28.846 23.0586 28.8222 22.8208 28.8225C22.3433 28.8023 21.8772 28.9713 21.5236 29.2929C21.3598 29.4463 21.2306 29.6329 21.1446 29.8402C21.0585 30.0475 21.0177 30.2708 21.0247 30.4951C21.0103 30.8849 21.1238 31.2687 21.3478 31.588C21.5315 31.8079 21.7659 31.9798 22.0307 32.089C22.2955 32.1983 22.5829 32.2415 22.8682 32.2151C23.0467 32.2151 23.2248 32.1992 23.4005 32.1676C23.6642 32.1133 23.9244 32.0435 24.1799 31.9585L24.1799 33.7263ZM15.2846 30.5521C15.2997 30.1536 15.2483 29.7553 15.1326 29.3737C15.0826 29.1808 14.9692 29.0103 14.8106 28.8897C14.652 28.769 14.4575 28.7051 14.2582 28.7084C14.0598 28.7025 13.8651 28.7641 13.7063 28.8833C13.5474 29.0024 13.4338 29.172 13.3839 29.3642C13.2676 29.749 13.2162 30.1505 13.2318 30.5521C13.2166 30.9507 13.268 31.3489 13.3839 31.7305C13.4339 31.9234 13.5473 32.0939 13.7059 32.2146C13.8644 32.3352 14.059 32.399 14.2582 32.3958C14.4567 32.4017 14.6513 32.34 14.8101 32.2209C14.9689 32.1017 15.0826 31.9322 15.1326 31.74C15.2487 31.3552 15.3001 30.9538 15.2846 30.5521ZM17.9645 30.5521C17.9897 31.0177 17.9159 31.4832 17.748 31.9182C17.5801 32.3531 17.3219 32.7475 16.9904 33.0753C16.2338 33.725 15.2536 34.054 14.2582 33.9924C13.2628 34.054 12.2826 33.725 11.526 33.0753C11.1945 32.7475 10.9362 32.3531 10.7683 31.9182C10.6004 31.4833 10.5266 31.0177 10.5518 30.5521C10.5266 30.0866 10.6004 29.621 10.7683 29.1861C10.9362 28.7511 11.1944 28.3568 11.526 28.029C12.2826 27.3792 13.2628 27.0502 14.2582 27.1118C15.2536 27.0502 16.2338 27.3792 16.9904 28.029C17.3219 28.3568 17.5801 28.7511 17.748 29.1861C17.916 29.621 17.9897 30.0866 17.9645 30.5521ZM9.88661 33.8783H7.60576V28.6515H7.54875L6.23732 33.8783H4.11808L2.84456 28.6515H2.77807V33.8783H0.611328V27.2258H4.38407L5.24891 30.8657H5.29641L6.12334 27.2258H9.88661V33.8783Z" fill="white"/>
</svg>
