<svg width="151" height="46" viewBox="0 0 151 46" fill="none" xmlns="http://www.w3.org/2000/svg">
<path d="M82.7677 23.7491H79.9119V5.03935H82.7677V12.3773H83.2416C84.7911 12.3773 85.2905 10.6997 85.2905 9.44467V5.03935H88.1591V9.31655C88.2105 10.1758 88.0395 11.0338 87.6627 11.8077C87.2858 12.5816 86.7157 13.2453 86.0076 13.7347C86.7255 14.2114 87.3033 14.8709 87.6815 15.6452C88.0596 16.4196 88.2245 17.2807 88.1591 18.14V23.749H85.2905V18.012C85.2905 16.8082 84.7142 15.3355 83.2671 15.3483H82.7677V23.7491ZM131.303 23.7491V5.03935H133.851V15.9758L136.797 5.03931H139.985V23.7491H137.411V10.7381L133.902 23.7747L131.303 23.7491ZM142.009 23.7491V5.03935H144.557V15.9758L147.49 5.03931H150.679V23.7491H148.105V10.7381L144.596 23.7747L142.009 23.7491ZM149.488 2.79828H143.2V0.608429H149.488V2.79828ZM124.029 23.7491H121.173V5.03935H124.029V12.3773H124.503C126.053 12.3773 126.552 10.6997 126.552 9.44467V5.03935H129.421V9.31655C129.472 10.1758 129.301 11.0338 128.924 11.8077C128.547 12.5816 127.977 13.2453 127.269 13.7347C127.987 14.2114 128.565 14.8709 128.943 15.6452C129.321 16.4196 129.486 17.2807 129.421 18.14V23.749H126.552V18.012C126.552 16.8082 125.989 15.3355 124.529 15.3483H124.029V23.7491ZM72.254 23.7107H69.3983V5.01373H77.8886V12.5181H74.9687V7.67735H72.2538V21.047H74.9687V16.2062H77.8885V23.7106L72.254 23.7107ZM113.515 23.7107H110.66V5.01373H119.15V12.5181H116.23V7.67735H113.515V21.047H116.23V16.2062H119.15V23.7106L113.515 23.7107ZM64.4551 7.67741H61.7914V21.047H64.4551V7.67741ZM61.7402 23.7107H58.8843V5.01373H67.3749V23.7107H61.7402ZM95.7533 7.67741H93.0896V21.047H95.7533V7.67741ZM93.0383 23.7107H90.1826V5.01373H98.6731V23.7107H93.0383ZM103.552 7.67741V12.6974C104.615 12.7614 105.909 12.6974 105.909 10.7893V9.08609V7.67741H103.552ZM103.552 15.3739V21.047H105.909V17.4101C105.909 15.502 104.615 15.3227 103.552 15.3739ZM108.764 8.3049V10.5972C108.792 11.2324 108.661 11.8646 108.384 12.4368C108.107 13.0091 107.692 13.5035 107.176 13.8756C107.71 14.3297 108.131 14.9015 108.407 15.5458C108.682 16.1902 108.805 16.8897 108.764 17.5894V23.7107H100.696V5.01373H108.764V8.3049ZM50.842 17.5381C51.5847 13.5427 52.5581 9.07328 53.0063 5.03935H56.8609V23.7491H54.3637V16.3472L54.6583 9.66236C53.9539 14.4001 52.7609 19.0522 51.0982 23.5442V23.557H50.5731V23.5442C48.9138 19.0521 47.725 14.3999 47.0258 9.66236L47.3204 16.3472V23.7491H44.8232V5.03935H48.6649C49.1131 9.0733 50.0863 13.5426 50.842 17.5381Z" fill="white"/>
<path d="M79.1052 29.3582V37.695C80.1809 37.759 81.4616 37.5669 81.4616 35.6588V33.9684V29.3582H79.1052ZM84.3301 33.1872V35.4795C84.3301 38.3609 82.8447 40.3715 80.0657 40.3715H79.1052V45.3914H76.2495V26.6945C78.9388 26.7073 81.6409 26.6945 84.3301 26.6945V33.1872ZM85.1113 26.6945H93.9475V29.3581H90.9637V45.3914H88.1078V29.3582H85.1112L85.1113 26.6945ZM71.3959 29.3581H68.7322V42.7277H71.3959V29.3581ZM68.681 45.3914H65.8252V26.6945H74.303V45.3914L68.681 45.3914ZM47.6789 45.3914H44.8232V26.6945H53.3136V34.1989H50.3938V29.3581H47.6789V42.7277H50.3938V37.887H53.3136V45.3914L47.6789 45.3914ZM58.18 45.3914H55.3243V26.6945H63.8148V45.3914H60.895V29.3582H58.1801L58.18 45.3914Z" fill="white"/>
<path d="M19.8516 35.6716C20.5645 36.5253 21.3256 37.3377 22.1311 38.1048C26.0366 41.8118 30.9115 44.338 36.1922 45.3915V42.1643C31.7952 41.1514 27.7494 38.9804 24.4745 35.8765C23.4334 34.8869 22.482 33.8069 21.6316 32.6493L19.8516 35.6716Z" fill="white"/>
<path d="M8.10828 32.3036C9.90999 30.6198 11.3491 28.5861 12.3378 26.3269C13.3265 24.0677 13.8438 21.6305 13.8582 19.1645V5.0137H17.175V19.1645C17.1727 21.7667 17.57 24.3538 18.3531 26.8354C19.13 24.3524 19.5273 21.7662 19.5313 19.1645V5.0137H22.8481V19.1645C22.863 21.6292 23.3793 24.0652 24.3656 26.324C25.3519 28.5828 26.7876 30.6173 28.5853 32.3036C30.7542 34.3502 33.3532 35.8859 36.1921 36.7985V40.1025C32.4673 39.0932 29.0492 37.1797 26.2417 34.5319C24.1893 32.5914 22.5363 30.2683 21.3754 27.6934C20.6292 29.7965 19.6132 31.7938 18.3531 33.6355H18.3403C17.0894 31.7903 16.0781 29.7936 15.3309 27.6934C14.1608 30.2663 12.504 32.5885 10.4518 34.5319C7.649 37.1795 4.23518 39.0931 0.51416 40.1026V36.7986C3.3506 35.8888 5.94611 34.3525 8.10828 32.3036Z" fill="white"/>
<path d="M28.1498 18.87C28.1587 20.6658 28.5347 22.4408 29.2548 24.0859C29.975 25.7311 31.024 27.2115 32.3374 28.4362C33.4706 29.5155 34.7727 30.4023 36.1921 31.0614V34.4934C33.8822 33.6622 31.7711 32.358 29.994 30.6644C28.3741 29.155 27.0803 27.3298 26.1927 25.3013C25.3052 23.2728 24.8424 21.0841 24.833 18.87V15.6813H28.1498V18.87Z" fill="white"/>
<path d="M8.55641 15.6813H11.8732V18.8699C11.8638 21.0841 11.4011 23.2728 10.5135 25.3013C9.6259 27.3298 8.33231 29.155 6.71241 30.6644C4.93523 32.358 2.82409 33.6622 0.51416 34.4934V31.0616C1.93353 30.4024 3.23561 29.5156 4.36881 28.4363C5.68224 27.2116 6.73128 25.7312 7.45142 24.0861C8.17157 22.441 8.5476 20.6659 8.55641 18.8701V15.6813Z" fill="white"/>
<path d="M15.062 32.6494C14.2153 33.8101 13.2637 34.8903 12.219 35.8766C8.94901 38.9802 4.90728 41.1514 0.51416 42.1644V45.3916C5.79206 44.3408 10.6635 41.8141 14.5625 38.1049C15.3746 37.3444 16.1361 36.5316 16.842 35.6717L15.062 32.6494Z" fill="white"/>
</svg>
