<svg width="27" height="34" viewBox="0 0 27 34" fill="none" xmlns="http://www.w3.org/2000/svg">
<g clip-path="url(#clip0_614_22392)">
<path d="M11.9764 10.8193L11.6753 10.9173L11.9902 11.5455C11.9913 11.5477 11.9923 11.5487 11.9934 11.5508L12.0878 11.7383L12.0931 11.6456L11.9764 10.8193ZM11.9764 10.8193L11.6753 10.9173L11.9902 11.5455C11.9913 11.5477 11.9923 11.5487 11.9934 11.5508L12.0878 11.7383L12.0931 11.6456L11.9764 10.8193ZM11.9764 10.8193L11.6753 10.9173L11.9902 11.5455C11.9913 11.5477 11.9923 11.5487 11.9934 11.5508L12.0878 11.7383L12.0931 11.6456L11.9764 10.8193ZM11.9764 10.8193L11.6753 10.9173L11.9902 11.5455C11.9913 11.5477 11.9923 11.5487 11.9934 11.5508L12.0878 11.7383L12.0931 11.6456L11.9764 10.8193ZM11.9764 10.8193L11.6753 10.9173L11.9902 11.5455C11.9913 11.5477 11.9923 11.5487 11.9934 11.5508L12.0878 11.7383L12.0931 11.6456L11.9764 10.8193ZM11.9764 10.8193L11.6753 10.9173L11.9902 11.5455C11.9913 11.5477 11.9923 11.5487 11.9934 11.5508L12.0878 11.7383L12.0931 11.6456L11.9764 10.8193ZM11.9764 10.8193L11.6753 10.9173L11.9902 11.5455C11.9913 11.5477 11.9923 11.5487 11.9934 11.5508L12.0878 11.7383L12.0931 11.6456L11.9764 10.8193ZM11.9764 10.8193L11.6753 10.9173L11.9902 11.5455C11.9913 11.5477 11.9923 11.5487 11.9934 11.5508L12.0878 11.7383L12.0931 11.6456L11.9764 10.8193Z" fill="white"/>
<path d="M1.76174 33.9681V30.8309H1.18123V33.9681H0.611328V30.2798H2.33166V33.9681H1.76174Z" fill="white"/>
<path d="M3.72374 31.133C3.68851 31.3874 3.65155 31.6409 3.61286 31.8935C3.57418 32.146 3.53196 32.4031 3.48622 32.6646H3.98751L3.7501 31.133H3.72374ZM4.21974 33.9681L4.07731 33.1998H3.40183C3.37719 33.3269 3.35343 33.455 3.33056 33.5839C3.30765 33.7129 3.28566 33.8409 3.26459 33.9681H2.68408C2.80728 33.3499 2.93039 32.7353 3.05343 32.1241C3.17662 31.5128 3.29978 30.8981 3.4229 30.2798H4.05613L4.80024 33.9681H4.21974Z" fill="white"/>
<path d="M5.89148 30.815V33.968H5.32158V30.815H4.73047V30.2798H6.48257V30.815H5.89148Z" fill="white"/>
<path d="M7.37362 30.815V32.0073H7.57419C7.75011 32.0073 7.87238 31.957 7.941 31.8555C8.00962 31.7547 8.04393 31.603 8.04393 31.4006C8.04393 31.2195 8.01139 31.0767 7.9463 30.9722C7.88113 30.8671 7.76063 30.8147 7.58478 30.815H7.37362ZM7.61644 30.2798C7.95424 30.2798 8.20139 30.3681 8.3579 30.5448C8.51448 30.7214 8.59277 31.0058 8.59277 31.3979C8.59426 31.5564 8.57832 31.7146 8.54522 31.8696C8.51794 32.0012 8.46208 32.1252 8.38162 32.2326C8.30157 32.3353 8.1973 32.4163 8.07824 32.4684C7.95332 32.5249 7.79586 32.5532 7.60585 32.5531H7.37362V33.9681H6.80371V30.2798H7.61644Z" fill="white"/>
<path d="M10.2959 31.6576L9.52542 33.968H8.97656V30.2798H9.53072V32.6167H9.55177L10.317 30.2798H10.8711V33.968H10.3118V31.6576H10.2959Z" fill="white"/>
<path d="M13.1656 33.0247C13.1656 33.3461 13.0938 33.589 12.9502 33.7533C12.806 33.9176 12.5796 33.9997 12.2712 33.9998C11.9625 33.9998 11.7379 33.9212 11.5974 33.7639C11.4576 33.6067 11.3876 33.3797 11.3873 33.083V31.2283C11.3859 31.0941 11.4028 30.9604 11.4374 30.8308C11.4673 30.7179 11.52 30.6124 11.5922 30.5208C11.6661 30.4317 11.761 30.3625 11.8683 30.3194C11.9984 30.2689 12.1371 30.2445 12.2765 30.2479C12.4444 30.2479 12.5861 30.2699 12.7004 30.3141C12.8069 30.3533 12.9013 30.42 12.9739 30.5075C13.0446 30.598 13.0947 30.7029 13.1207 30.8148C13.1522 30.9485 13.1673 31.0856 13.1656 31.223V33.0247ZM12.5957 31.1805C12.5973 31.0846 12.5746 30.9898 12.5298 30.905C12.4858 30.8237 12.4022 30.7831 12.2791 30.783C12.2212 30.7805 12.164 30.7962 12.1155 30.8281C12.0745 30.8568 12.041 30.8949 12.0179 30.9393C11.9942 30.9859 11.9782 31.0361 11.9704 31.0878C11.962 31.1377 11.9576 31.1882 11.9572 31.2388V33.0936C11.9559 33.1844 11.9806 33.2736 12.0285 33.3506C12.0759 33.4266 12.1577 33.4645 12.2738 33.4645C12.39 33.4645 12.4727 33.4248 12.5218 33.3453C12.5732 33.258 12.5988 33.1578 12.5957 33.0565V31.1805Z" fill="white"/>
<path d="M14.6107 30.815V33.968H14.0408V30.815H13.4497V30.2798H15.2018V30.815H14.6107Z" fill="white"/>
<path d="M15.6756 33.3271H15.0845V33.9683H15.6756V33.3271Z" fill="white"/>
<path d="M17.0427 30.2478C17.1756 30.2449 17.3079 30.2662 17.4333 30.3106C17.5356 30.3484 17.6284 30.4084 17.705 30.4863C17.7776 30.5624 17.8318 30.6543 17.8633 30.7548C17.8978 30.8651 17.9147 30.9802 17.9135 31.0957L17.3593 31.2389C17.3593 31.1045 17.3338 30.995 17.2837 30.9103C17.2327 30.8254 17.1518 30.783 17.0401 30.783C16.9831 30.7805 16.9267 30.7953 16.8782 30.8254C16.837 30.8527 16.8034 30.8901 16.7806 30.9341C16.7581 30.9796 16.7425 31.028 16.7341 31.0781C16.7255 31.1262 16.7211 31.175 16.7208 31.2238V33.098C16.7212 33.137 16.7247 33.176 16.7314 33.2145C16.7383 33.257 16.7533 33.2978 16.7754 33.3346C16.7992 33.3727 16.8318 33.4045 16.8704 33.4274C16.9172 33.4539 16.9705 33.4667 17.0242 33.4645C17.2336 33.4645 17.3401 33.3125 17.3436 33.0087C17.4384 33.0264 17.5334 33.0414 17.6285 33.0538C17.7235 33.0662 17.8185 33.0794 17.9135 33.0936C17.9063 33.3727 17.8298 33.5935 17.6839 33.7559C17.5379 33.9185 17.3224 33.9998 17.0374 33.9998C16.7349 33.9998 16.5115 33.9229 16.3672 33.7692C16.223 33.6156 16.1509 33.3904 16.1509 33.0936V31.2547C16.1502 31.1235 16.1652 30.9928 16.1957 30.8652C16.2229 30.7489 16.2742 30.6397 16.3462 30.5446C16.4194 30.4505 16.5145 30.3759 16.6232 30.3274C16.7375 30.2743 16.8774 30.2478 17.0427 30.2478Z" fill="white"/>
<path d="M19.4956 33.9681V30.8309H18.9151V33.9681H18.3452V30.2798H20.0655V33.9681H19.4956Z" fill="white"/>
<path d="M22.3811 33.0247C22.3811 33.3461 22.3093 33.589 22.1657 33.7533C22.0214 33.9176 21.7951 33.9998 21.4866 33.9998C21.1779 33.9998 20.9533 33.9212 20.8128 33.7639C20.6731 33.6067 20.603 33.3797 20.6026 33.083V31.2283C20.6013 31.0941 20.6182 30.9604 20.6528 30.8308C20.6827 30.7179 20.7354 30.6124 20.8076 30.5208C20.8815 30.4317 20.9764 30.3625 21.0838 30.3194C21.2138 30.2689 21.3525 30.2445 21.4919 30.2479C21.6599 30.2479 21.8015 30.2699 21.9158 30.3141C22.0224 30.3533 22.1167 30.42 22.1894 30.5075C22.26 30.598 22.3101 30.7029 22.3362 30.8148C22.3676 30.9485 22.3827 31.0856 22.3811 31.223L22.3811 33.0247ZM21.8112 31.1805C21.8127 31.0846 21.79 30.9898 21.7452 30.905C21.7012 30.8237 21.6177 30.7831 21.4946 30.783C21.4367 30.7805 21.3794 30.7962 21.3309 30.8281C21.29 30.8568 21.2565 30.8949 21.2333 30.9393C21.2097 30.986 21.1936 31.0361 21.1858 31.0878C21.1774 31.1377 21.173 31.1882 21.1726 31.2388V33.0936C21.1713 33.1844 21.1961 33.2736 21.2439 33.3506C21.2913 33.4266 21.3731 33.4645 21.4893 33.4645C21.6054 33.4645 21.6881 33.4248 21.7373 33.3453C21.7886 33.258 21.8142 33.1578 21.8112 33.0565L21.8112 31.1805Z" fill="white"/>
<path d="M23.4934 30.815V32.0073H23.6938C23.8697 32.0073 23.992 31.957 24.0606 31.8555C24.1292 31.7547 24.1636 31.603 24.1636 31.4006C24.1636 31.2195 24.131 31.0767 24.0659 30.9722C24.0008 30.8671 23.8803 30.8147 23.7044 30.815H23.4934ZM23.7361 30.2798C24.0739 30.2798 24.321 30.3681 24.4775 30.5448C24.6341 30.7214 24.7124 31.0058 24.7124 31.3979C24.7139 31.5564 24.6979 31.7146 24.6649 31.8696C24.6376 32.0012 24.5817 32.1252 24.5012 32.2326C24.4212 32.3353 24.3169 32.4163 24.1979 32.4684C24.073 32.5249 23.9155 32.5532 23.7255 32.5531H23.4934V33.9681H22.9233V30.2798H23.7361Z" fill="white"/>
<path d="M26.0204 30.815V33.968H25.4505V30.815H24.8594V30.2798H26.6115V30.815H26.0204Z" fill="white"/>
<path d="M6.96472 28.9767L7.14465 27.7793H7.51172V29.4657H7.26221V28.2563L7.07988 29.4657H6.83037L6.63364 28.2732V29.4657H6.40332V27.7793H6.77039L6.96472 28.9767Z" fill="white"/>
<path d="M7.68213 28.1838C7.68213 28.0489 7.71652 27.9445 7.78529 27.8706C7.85404 27.7967 7.95321 27.7598 8.08278 27.7598C8.21233 27.7598 8.3115 27.7967 8.38028 27.8706C8.44903 27.9445 8.48341 28.0489 8.48344 28.1838V29.0607C8.48344 29.1956 8.44905 29.3 8.38028 29.3739C8.31149 29.4478 8.21232 29.4847 8.08278 29.4847C7.95323 29.4847 7.85406 29.4478 7.78529 29.3739C7.7165 29.3001 7.68211 29.1957 7.68213 29.0607V28.1838ZM7.94603 29.0776C7.94603 29.1884 7.99161 29.2438 8.08278 29.2438C8.17395 29.2438 8.21953 29.1884 8.21954 29.0776V28.1669C8.21954 28.0561 8.17395 28.0007 8.08278 28.0007C7.99162 28.0007 7.94604 28.0561 7.94603 28.1669V29.0776Z" fill="white"/>
<path d="M9.41924 28.8367V29.0607C9.41924 29.3434 9.28809 29.4848 9.02578 29.4847C8.76345 29.4847 8.6323 29.3434 8.63232 29.0607V28.1838C8.63232 27.9011 8.76348 27.7598 9.02578 27.7598C9.28807 27.7598 9.41923 27.9011 9.41924 28.1838V28.3476H9.16973V28.1669C9.16973 28.0561 9.12415 28.0007 9.03298 28.0007C8.94181 28.0007 8.89623 28.0561 8.89623 28.1669V29.0776C8.89623 29.1868 8.94181 29.2414 9.03298 29.2414C9.12414 29.2414 9.16973 29.1868 9.16973 29.0776V28.8367H9.41924Z" fill="white"/>
<path d="M9.92556 28.7936L9.84399 28.9477V29.4657H9.58008V27.7793H9.84399V28.5141L10.1895 27.7793H10.4534L10.0863 28.531L10.4534 29.4657H10.1823L9.92556 28.7936Z" fill="white"/>
<path d="M10.5513 28.1838C10.5513 28.0489 10.5857 27.9445 10.6544 27.8706C10.7232 27.7967 10.8223 27.7598 10.9519 27.7598C11.0815 27.7598 11.1806 27.7967 11.2494 27.8706C11.3182 27.9445 11.3526 28.0489 11.3526 28.1838V29.0607C11.3526 29.1956 11.3182 29.3 11.2494 29.3739C11.1806 29.4478 11.0815 29.4847 10.9519 29.4847C10.8224 29.4847 10.7232 29.4478 10.6544 29.3739C10.5856 29.3001 10.5513 29.1957 10.5513 29.0607V28.1838ZM10.8152 29.0776C10.8152 29.1884 10.8608 29.2438 10.9519 29.2438C11.0431 29.2438 11.0887 29.1884 11.0887 29.0776V28.1669C11.0887 28.0561 11.0431 28.0007 10.9519 28.0007C10.8608 28.0007 10.8152 28.0561 10.8152 28.1669V29.0776Z" fill="white"/>
<path d="M11.9212 27.7793C12.1819 27.7793 12.3122 27.9086 12.3123 28.1672V28.2274C12.3123 28.4009 12.2555 28.5141 12.1419 28.5671C12.2731 28.6185 12.3386 28.739 12.3387 28.9285V29.0658C12.3387 29.3324 12.2051 29.4657 11.938 29.4657H11.5229V27.7793H11.9212ZM11.7869 28.0202V28.4659H11.89C11.9956 28.4659 12.0484 28.4065 12.0484 28.2876V28.1937C12.0484 28.078 12.0036 28.0202 11.914 28.0202H11.7869ZM11.7869 28.7068V29.2248H11.938C12.0292 29.2248 12.0748 29.1694 12.0748 29.0586V28.9116C12.0748 28.8345 12.0612 28.7807 12.034 28.7502C12.0084 28.7213 11.9652 28.7068 11.9044 28.7068H11.7869Z" fill="white"/>
<path d="M13.2625 28.8367V29.0607C13.2625 29.3434 13.1313 29.4848 12.869 29.4847C12.6067 29.4847 12.4756 29.3434 12.4756 29.0607V28.1838C12.4756 27.9011 12.6067 27.7598 12.869 27.7598C13.1313 27.7598 13.2625 27.9011 13.2625 28.1838V28.3476H13.013V28.1669C13.013 28.0561 12.9674 28.0007 12.8762 28.0007C12.7851 28.0007 12.7395 28.0561 12.7395 28.1669V29.0776C12.7395 29.1868 12.7851 29.2414 12.8762 29.2414C12.9674 29.2414 13.013 29.1868 13.013 29.0776V28.8367H13.2625Z" fill="white"/>
<path d="M13.7688 28.7936L13.6872 28.9477V29.4657H13.4233V27.7793H13.6872V28.5141L14.0327 27.7793H14.2966L13.9296 28.531L14.2966 29.4657H14.0255L13.7688 28.7936Z" fill="white"/>
<path d="M14.6876 29.4657H14.4165V27.7793H14.6516V28.8466L14.7476 28.4755L14.9635 27.7793H15.2538V29.4657H15.0163V28.278L14.9083 28.6924L14.6876 29.4657Z" fill="white"/>
<path d="M15.712 29.4656H15.4409V27.7791H15.676V28.8464L15.772 28.4754L15.9879 27.7791H16.2782V29.4656H16.0407V28.2779L15.9327 28.6922L15.712 29.4656ZM15.9831 27.4033C15.9767 27.4772 15.9367 27.5142 15.8632 27.5141C15.7944 27.5141 15.7568 27.4772 15.7504 27.4033H15.5873C15.5921 27.5816 15.684 27.6707 15.8632 27.6707C16.0503 27.6707 16.1439 27.5816 16.1439 27.4033H15.9831Z" fill="white"/>
<path d="M16.8418 27.7793H17.1057V29.2248H17.4056V27.7793H17.6743V29.2296H17.7895V29.6922H17.5328V29.4657H16.8418V27.7793Z" fill="white"/>
<path d="M18.1975 28.49H18.5598V28.7309H18.1975V29.2248H18.6533V29.4657H17.9336V27.7793H18.6533V28.0202H18.1975V28.49Z" fill="white"/>
<path d="M19.0803 29.4657H18.8164V27.7793H19.0803V28.502H19.3802V27.7793H19.6489V29.4657H19.3802V28.743H19.0803V29.4657Z" fill="white"/>
<path d="M19.7637 27.7793H20.5794V28.0202H20.3035V29.4657H20.0396V28.0202H19.7637V27.7793Z" fill="white"/>
<path d="M21.0835 27.7793C21.3458 27.7793 21.4769 27.9182 21.4769 28.1961V28.4153C21.4769 28.6932 21.3458 28.8321 21.0835 28.8321H20.9587V29.4657H20.6948V27.7793H21.0835ZM20.9587 28.0202V28.5912H21.0835C21.1699 28.5912 21.213 28.5382 21.213 28.4322V28.1792C21.213 28.0732 21.1699 28.0202 21.0835 28.0202H20.9587Z" fill="white"/>
<path d="M22.0294 9.12195H22.0209L18.6458 9.00372L18.6777 8.86959C18.6969 8.78805 18.6891 8.70241 18.6554 8.62575L18.5706 8.42663C18.5642 8.4117 18.5568 8.39787 18.5494 8.38404L18.4465 8.20727C18.4397 8.19587 18.4323 8.18485 18.4243 8.17426L18.4009 8.14234C18.3999 8.14032 18.3984 8.13852 18.3967 8.13703L18.3362 8.05395C18.3031 8.00849 18.2605 7.97077 18.2114 7.94338C18.1624 7.91599 18.108 7.89958 18.0521 7.89528L17.9799 7.88998C17.9118 7.83743 17.8283 7.80898 17.7425 7.80908H17.6311C17.5757 7.75006 17.5034 7.70968 17.4243 7.69348C17.3451 7.67727 17.2629 7.68603 17.1889 7.71856L17.1858 7.7196L14.3896 0L22.0294 9.12195Z" fill="white"/>
<path d="M14.3897 0L12.0707 6.44297L11.9827 6.6868L11.9 6.91463L11.812 7.15956L11.7304 7.38743L11.6423 7.63231L11.5607 7.86018L11.4716 8.10506L11.39 8.33294L11.302 8.57781L11.2203 8.80569V8.80673L11.1673 8.8451C11.1663 8.84614 11.1642 8.84614 11.1631 8.84723L11.0889 8.90047L10.055 7.44171L9.85356 7.16382L7.85693 4.49019L14.3897 0Z" fill="white"/>
<path d="M9.15367 15.188L8.90235 16.0632L8.85886 16.2176L8.81752 16.3613L8.77299 16.5157L8.73163 16.6595L8.6871 16.8139L8.64576 16.9565L8.60227 17.1109L8.56093 17.2547L8.51637 17.4091L8.47503 17.5528L8.43051 17.7061L8.3902 17.8499L8.34567 18.0043L8.30431 18.148L8.26296 18.2907C8.24917 18.295 8.23433 18.3003 8.22054 18.3056L8.01696 18.3951L7.72221 18.4089H7.71687L6.47097 18.4855V15.8239L3.66319 16.8692L1.49121 9.23438L9.15367 15.188Z" fill="white"/>
<path d="M21.0188 14.0981L21.0152 14.1008L20.8896 14.1993L20.7723 14.2911L20.6467 14.3896L20.5292 14.4814L20.4038 14.5798L20.2863 14.6716L20.1607 14.7698L20.0438 14.8616L19.9178 14.9601L19.8006 15.0519L19.6753 15.1501L19.5578 15.2422L19.5557 15.2437L19.6246 15.4755L19.6897 15.695L19.7598 15.931L19.8249 16.1505L19.895 16.3862L19.9601 16.6057L20.0303 16.8417L20.0953 17.0612L20.1652 17.2967L20.2305 17.5164L20.3004 17.7519L20.3658 17.972L20.4356 18.2074L20.501 18.4275L20.5712 18.6629L22.2261 24.2369L22.239 24.2799L22.2345 24.2423L22.2321 24.2212L21.0194 14.1039L21.0188 14.0981Z" fill="white"/>
<path d="M21.4551 25.1248L21.6159 24.9229L21.5067 24.7263L21.441 24.7014L21.2279 24.7163L20.3886 24.6037L20.339 24.571L19.0777 23.739L18.5198 21.2728L18.5188 21.2681L18.2362 20.0188L18.1431 19.2381L18.1191 19.0363L18.09 18.3005L18.0582 18.2627H18.0582L16.0674 15.8961L15.6527 15.4033L15.409 15.1915L15.4089 15.1915L14.7407 14.611L14.7502 14.5775L14.9308 13.9383L14.9325 13.9325L15.1714 13.0869L15.1722 13.0837L15.1722 13.0837L15.2673 12.7469L15.6108 11.5634L15.6109 11.5634L15.6166 11.5437L16.5612 12.1257L16.5644 12.111L16.5999 12.073L16.8959 11.6661L16.8959 11.666L17.2874 11.1274L17.3173 11.054L17.698 10.1225L17.8894 9.75767L17.9426 9.54139L18.2425 9.0149L18.2977 8.78014L18.2126 8.5818L18.1096 8.40533L18.0865 8.37367L18.0865 8.37369L18.0221 8.28581L17.7926 8.26814L17.7418 8.19996L17.4617 8.20134L17.346 8.07642L17.0634 8.20196L17.0096 8.79957L17.0095 8.8011L17.0678 8.98218L17.0655 9.14127L17.0776 9.15612L17.0652 9.15782L17.0568 9.71008L16.4963 10.3685L16.4639 9.95316L16.1713 9.50433L16.1654 9.49525L16.1629 9.49144L16.0477 9.31542L16.0478 9.31539L16.0197 9.27264L15.9786 8.92638L15.7398 8.23007L15.5061 7.91234H15.5062L15.488 7.88763L15.1928 7.67355L15.2425 7.56892L15.4062 7.46262L15.8512 7.23281L15.8469 7.21055H15.8469L15.7796 6.86338L15.7215 6.69019L15.7923 6.5665L15.7766 6.38993L16.022 6.20512L15.9764 6.14859L15.8662 6.12915L15.9169 6.09779L15.9218 6.09472L15.923 6.09397L15.9439 6.10859L15.9291 6.09023L15.9104 6.06706L15.9103 6.06702L15.6767 5.77812L15.6305 5.72453L15.5783 5.33478L15.578 5.33286L15.2953 4.95031L15.2937 4.94813L13.961 4.61768L13.9119 4.67495L13.1505 5.44138L13.1365 5.43784L13.1357 5.43696L13.1358 5.43766L13.1246 5.43482L13.1559 5.64767L13.2192 6.30954L13.5439 6.90531L13.506 7.43844L13.4496 7.52337L13.2922 7.6911L13.2133 7.74611L13.2418 7.74025L13.2789 7.78039L13.2788 7.78067L13.234 7.77835L13.1789 7.77541L13.1061 7.82053L13.0339 7.87077L12.8752 7.9704L12.7316 8.17947L12.3392 8.3323L12.3143 8.36061L12.3142 8.36038L12.2169 8.47478L12.2169 8.47494L11.9225 8.82142L11.6554 8.97316L11.3949 9.16215L11.3949 9.16221L10.0208 10.1593L10.0223 10.1591L9.85308 10.2811L9.84377 10.2905L9.68688 10.719L10.0526 11.2647L10.0526 11.2647L10.0758 11.2992L10.7378 12.2865L11.4041 13.0313L11.4041 13.0313L11.778 13.4493L11.8172 13.7377L11.8284 13.793L11.8283 13.7931L11.8627 13.9642L11.6188 14.5053H11.6188L11.6079 14.5295L11.608 14.5295L11.4509 14.8781L11.526 16.1656L11.4809 16.2596L10.5046 18.2958L10.4536 18.4872L10.4544 18.4861L10.3664 18.8144L10.288 18.9269L10.2829 18.9288L10.2843 18.9322L10.2728 18.9487L10.2728 18.9486L10.2088 19.0403L10.119 19.0065L10.1191 19.0064L9.39503 18.7331L8.44211 18.6699L8.44216 18.6699L8.41207 18.6679L8.40855 18.6677L8.37507 18.6655L8.10598 18.782L7.74036 18.7996L6.01232 18.9049L5.67875 18.765L5.48384 18.5296L5.26609 18.2652L5.26603 18.2652L5.20481 18.1908L4.80106 18.1515L3.88372 18.9125L3.87178 18.9227L3.87141 18.9226L3.81351 18.9709L3.07531 19.3731L2.70245 20.0429L2.70251 20.043L2.375 20.631L2.79486 20.7988L3.68111 20.2462L4.82726 20.0336L5.1716 20.2156L5.18221 20.0234L5.17763 20.0254L5.18362 19.9972L5.18644 19.9462L5.4047 19.9463L5.40482 19.9462L6.71367 19.947L7.26466 20.0629L7.26461 20.063L8.70448 20.3658L10.1387 20.5421L10.5628 20.5774L10.5628 20.5774L10.982 20.6123L10.9874 20.6255L10.9921 20.6131L10.9988 20.6137L10.9988 20.6136L11.1186 20.6237L12.2367 19.4689L12.6563 18.8509L13.0169 18.3197H13.017L13.5224 17.575L13.7184 17.175L14.6413 17.9135L15.2603 18.2943H15.2603L15.9248 18.7033L15.9248 18.7033L16.4709 19.0392L16.7049 19.362L16.7137 19.5001L16.7138 19.5002L16.7487 20.0448L16.7487 20.0448L16.8038 20.9067L16.8039 20.9067L16.825 21.2355L17.3647 22.2633L17.7519 23.2925L17.9384 24.2564L17.9541 24.9793H17.954L17.9543 24.9894V24.9943H17.9544L17.9622 25.3524L18.1071 25.3926L18.1071 25.3927L18.656 25.5452L18.6559 25.5453L18.7383 25.5681L19.6225 25.5556L20.2836 25.5669L20.2846 25.5669L20.8098 25.4341L21.43 25.155L21.4436 25.1387L21.4441 25.1386L21.4522 25.1284L21.4552 25.1248H21.4551ZM11.9412 12.317L11.9318 12.2983L11.6422 11.7212L11.6422 11.7211L11.1225 10.6852L11.8619 10.4451L12.2975 10.3037L12.4839 11.6289L12.4298 12.5817L12.4295 12.5864L12.4038 13.0367L12.3391 12.9843L12.2826 12.9106L12.1632 12.7597L11.9436 12.3218L11.9412 12.317Z" fill="white"/>
</g>
<defs>
<clipPath id="clip0_614_22392">
<rect width="26" height="34" fill="white" transform="translate(0.611328)"/>
</clipPath>
</defs>
</svg>
